<ttFont>
          <CharString index="0">
            rmoveto
            38 18 10 -34 callsubr
            6 -54 callgsubr
            -16 9 -38 hhcurveto
            -39 -17 -10 -16 -2 -41 callgsubr
            -17 -3 16 -10 39 hhcurveto
            return
          </CharString>
          <CharString index="1">
            291 hlineto
            17 8 12 27 2 hvcurveto
            3 22 113 callgsubr
            -204 hlineto
            22 208 rlineto
            182 hlineto
            16 -24 callgsubr
            28 2 50 callsubr
            -181 hlineto
            20 192 rlineto
            203 hlineto
            16 12 callsubr
            2 97 callgsubr
            -16 hhcurveto
            -291 hlineto
            -22 -14 callgsubr
            -67 -632 45 callgsubr
            return
          </CharString>
          <CharString index="2">
            rmoveto
            11 hlineto
            23 15 5 16 11 hvcurveto
            67 93 rlineto
            4 7 4 6 4 vvcurveto
            8 1 -6 5 -13 hhcurveto
            -23 hlineto
            -18 -13 -5 -11 -8 hvcurveto
            -43 -61 -30 60 rlineto
            12 -6 -11 5 -17 hhcurveto
            -23 hlineto
            -12 -8 -5 -7 -1 hvcurveto
            -4 3 -8 2 -6 vhcurveto
            46 -93 rlineto
            -16 8 15 -5 22 hhcurveto
            return
          </CharString>
          <CharString index="3">
            rmoveto
            17 hlineto
            33 16 9 17 1 hvcurveto
            44 408 2 22 -1 22 -2 22 rlinecurve
            5 3 6 -21 5 -22 9 -21 rlinecurve
            174 -418 rlineto
            -16 6 14 -5 21 hhcurveto
            18 hlineto
            33 82 callgsubr
            68 2 callgsubr
            -17 -43 callgsubr
            -43 -398 -3 -23 1 -24 2 -24 rlinecurve
            -4 -2 -6 23 -7 23 -10 23 rlinecurve
            -165 405 rlineto
            18 -8 -14 5 -21 hhcurveto
            -24 hlineto
            -34 -14 -38 callgsubr
            -68 -652 35 callsubr
            34 hhcurveto
            return
          </CharString>
          <CharString index="4">
            hlineto
            -32 30 callgsubr
            -50 -474 rlineto
            -63 -7 -50 -46 -67 hhcurveto
            -93 callsubr
            return
          </CharString>
          <CharString index="5">
            rmoveto
            -61 callsubr
            -13 -6 -6 -4 -10 hhcurveto
            -13 -8 9 33 3 hvcurveto
            7 84 14 116 18 170 rrcurveto
            16 -14 10 -33 vhcurveto
            -14 hlineto
            -32 -17 -8 -18 -2 hvcurveto
            -5 -30 -18 -177 -12 -114 -2 -22 -2 -29 -1 -21 rrcurveto
            -92 -5 45 -19 46 hhcurveto
            return
          </CharString>
          <CharString index="6">
            -69 callsubr
            -132 -14 26 -142 114 hhcurveto
            40 94 rmoveto
            -57 -5 93 88 10 hvcurveto
            111 12 29 60 61 hhcurveto
            32 18 -17 -14 13 hvcurveto
            -3 -15 -3 -20 -3 -23 -17 -165 rcurveline
            -68 -21 -33 -30 -33 hhcurveto
            return
          </CharString>
          <CharString index="7">
            rmoveto
            -51 callgsubr
            -48 callgsubr
            47 229 rmoveto
            81 callsubr
            -43 hlineto
            82 12 31 68 69 hhcurveto
            return
          </CharString>
          <CharString index="8">
            rmoveto
            146 92 76 130 14 hvcurveto
            50 477 -30 callsubr
            32 callgsubr
            -92 callgsubr
            return
          </CharString>
          <CharString index="9">
            298 -6 callsubr
            14 26 callgsubr
            -183 hlineto
            239 356 1 3 1 3 1 6 rlinecurve
            22 2 -9 41 -9 hhcurveto
            -283 hlineto
            -16 -8 -12 91 callsubr
            -14 rlineto
            -27 -2 138 callgsubr
            167 hlineto
            -239 -357 rlineto
            -1 -3 -2 -4 -5 vvcurveto
            -23 -3 9 -39 11 hhcurveto
            return
          </CharString>
          <CharString index="10">
            rmoveto
            140 84 83 140 92 -56 46 -72 43 hvcurveto
            -56 33 -40 31 56 vvcurveto
            57 43 34 62 25 29 -7 -12 29 vhcurveto
            -2 7 8 -4 6 hhcurveto
            19 17 55 20 8 -4 8 -10 6 hvcurveto
            19 -31 -59 10 -47 hhcurveto
            -124 -88 -83 -130 -94 60 -48 72 -44 hvcurveto
            49 -30 43 -29 -57 vvcurveto
            -73 -51 -27 -57 -43 -39 10 25 -36 vhcurveto
            3 -5 -5 3 -5 hhcurveto
            -21 -15 -47 -26 -20 17 -10 17 -8 hvcurveto
            -25 38 47 -6 52 hhcurveto
            return
          </CharString>
          <CharString index="11">
            rmoveto
            41 147 callsubr
            4 hvcurveto
            118 392 30 123 4 -123 41 -392 rlineto
            -13 1 16 -5 22 hhcurveto
            42 hlineto
            23 18 5 13 4 hvcurveto
            197 651 rlineto
            3 5 0 5 3 vvcurveto
            14 2 -14 8 -34 hhcurveto
            -16 hlineto
            -30 -19 -7 -16 -4 hvcurveto
            -109 -433 -12 -48 -8 -35 -13 -46 rlinecurve
            -1 37 -1 51 -3 42 -38 436 rcurveline
            15 -1 -15 4 -25 hhcurveto
            -29 hlineto
            -25 -15 -4 -15 -4 hvcurveto
            -123 -435 -11 -41 -13 -44 -11 -45 rlinecurve
            -1 40 1 42 -4 46 -26 433 rcurveline
            16 -1 -17 7 -30 hhcurveto
            -20 hlineto
            -34 -15 -8 -14 -1 hvcurveto
            -1 -3 -1 -5 1 -5 75 -651 rcurveline
            -13 1 16 -5 24 hhcurveto
            endchar
          </CharString>
          <CharString index="12">
            32 52 -35 40 hhcurveto
            40 29 25 44 17 hvcurveto
            2 5 2 4 5 vvcurveto
            9 -5 5 -12 4 vhcurveto
            -9 73 callgsubr
            -3 1 -5 hhcurveto
            -9 -7 -5 -11 -6 hvcurveto
            -18 -13 -9 -3 -11 hhcurveto
            return
          </CharString>
          <CharString index="13">
            -31 -20 -29 -23 -32 hhcurveto
            -40 -16 26 46 5 hvcurveto
            35 339 -15 callsubr
            47 callsubr
            -15 106 callsubr
            -352 rlineto
            -99 -11 34 -56 85 hhcurveto
            55 47 33 45 31 hvcurveto
            -4 -37 rlineto
            -104 -11 -43 -49 -69 -74 -40 41 -11 hhcurveto
            -9 -6 -17 -23 -3 hvcurveto
            -10 0 -13 2 -12 vhcurveto
            -29 5 63 -29 82 hhcurveto
            137 70 88 201 20 hvcurveto
            return
          </CharString>
          <CharString index="14">
            -67 -40 45 64 6 hvcurveto
            50 474 -30 callsubr
            32 callgsubr
            -26 121 callgsubr
            -2 hvcurveto
            -50 -477 rlineto
            -130 -13 76 -76 147 hhcurveto
            return
          </CharString>
          <CharString index="15">
            95 10 -37 54 -78 hhcurveto
            -55 -47 -32 -44 -32 hvcurveto
            34 -3 4 34 -29 hhcurveto
            -15 -68 -6 -22 -3 hvcurveto
            -1 -10 7 -32 -9 -89 -36 -339 rcurveline
            -17 -2 13 -9 32 hhcurveto
            21 hlineto
            33 -41 callsubr
            38 358 rlineto
            30 18 29 23 30 hhcurveto
            39 13 -26 -47 -5 hvcurveto
            return
          </CharString>
          <CharString index="16">
            rmoveto
            25 hlineto
            33 14 36 callgsubr
            30 283 201 356 5 8 3 7 1 6 rlinecurve
            1 11 -14 6 -34 1 rrcurveto
            -27 hlineto
            -23 -18 -2 -14 -7 hvcurveto
            -139 -283 -75 282 rlineto
            14 -4 -17 3 -23 hhcurveto
            -31 hlineto
            -34 -14 -7 -11 -1 hvcurveto
            -1 -6 3 -7 3 -8 127 -353 rcurveline
            -31 -286 rlineto
            -17 -1 13 -9 33 hhcurveto
            return
          </CharString>
          <CharString index="17">
            -96 callgsubr
            endchar
          </CharString>
          <CharString index="18">
            rmoveto
            -35 callgsubr
            125 13 30 52 57 hhcurveto
            57 20 -52 -125 -13 hvcurveto
            -37 callgsubr
            return
          </CharString>
          <CharString index="19">
            8 80 8 81 9 80 rrcurveto
            61 6 27 35 50 vvcurveto
            -71 callgsubr
            -17 -12 -16 -31 vhcurveto
            -7 hlineto
            -12 hlineto
            -70 callsubr
            return
          </CharString>
          <CharString index="20">
            rmoveto
            15 80 50 60 52 -49 22 -50 20 callgsubr
            18 -24 8 hvcurveto
            7 11 12 27 hhcurveto
            18 16 -8 -17 hvcurveto
            -41 -64 -20 -23 vvcurveto
            -9 27 -11 15 vhcurveto
            return
          </CharString>
          <CharString index="21">
            96 73 64 94 9 hvcurveto
            9 83 -39 39 -57 31 -37 22 -34 20 5 44 rrcurveto
            33 4 26 16 32 37 23 -22 7 hhcurveto
            14 26 47 19 2 hvcurveto
            32 4 -66 17 -52 hhcurveto
            -90 -71 -57 -93 -10 hvcurveto
            -8 -81 41 -37 54 -29 44 -24 29 -22 -5 -43 rrcurveto
            -38 -3 -25 -20 -39 -47 -25 34 -10 hhcurveto
            -15 -32 -45 -20 -2 hvcurveto
            return
          </CharString>
          <CharString index="22">
            89 252 7 21 7 25 6 21 rlinecurve
            5 hlineto
            -21 2 -25 3 -21 vhcurveto
            34 -252 rlineto
            return
          </CharString>
          <CharString index="23">
            rmoveto
            195 hlineto
            17 8 11 24 2 hvcurveto
            2 12 47 callgsubr
            -17 hhcurveto
            -196 hlineto
            -16 -8 30 callsubr
            -12 rlineto
            -24 -2 6 -11 16 hhcurveto
            return
          </CharString>
          <CharString index="24">
            rmoveto
            39 37 8 10 21 hvcurveto
            23 11 10 15 1 23 1 29 -9 37 -28 -11 rrcurveto
            -10 -23 -25 -9 -36 hhcurveto
            -100 -40 83 172 18 hvcurveto
            173 19 55 80 100 hhcurveto
            34 23 -8 -8 18 hvcurveto
            24 -12 18 53 3 27 2 17 -3 12 -18 6 rrcurveto
            9 -21 -35 7 -37 hhcurveto
            -190 -88 -116 -240 -26 hvcurveto
            -245 -25 79 -113 179 hhcurveto
            endchar
          </CharString>
          <CharString index="25">
            594 -107 callsubr
            return
          </CharString>
          <CharString index="26">
            rmoveto
            75 52 44 50 5 hvcurveto
            21 3 -12 6 -15 hhcurveto
            -15 -6 -8 -13 -6 hvcurveto
            -14 -8 -19 -24 -48 hhcurveto
            -45 -15 22 15 -6 hvcurveto
            14 -5 -4 8 -15 hhcurveto
            -17 -10 -6 -21 -2 hvcurveto
            -51 -6 43 -43 76 hhcurveto
            -284 -87 callgsubr
            return
          </CharString>
          <CharString index="27">
            rmoveto
            72 30 -34 12 hhcurveto
            18 34 51 21 3 hvcurveto
            30 3 -82 36 -84 hhcurveto
            -191 -88 -115 -245 -26 hvcurveto
            -241 -26 87 -113 163 hhcurveto
            79 110 23 53 6 hvcurveto
            30 291 rlineto
            24 3 -10 10 -21 hhcurveto
            -155 hlineto
            -17 -8 -11 -28 -3 hvcurveto
            -2 -22 rlineto
            -28 -3 6 -11 16 hhcurveto
            70 hlineto
            -19 -190 rlineto
            -6 -20 -22 -3 -27 hhcurveto
            -100 -31 96 161 16 hvcurveto
            163 18 51 88 108 hhcurveto
            return
          </CharString>
          <CharString index="28">
            165 -7 rmoveto
            49 46 29 50 29 hvcurveto
            -62 8 39 -6 callgsubr
            -3 -11 hhcurveto
            -13 -7 8 33 1 hvcurveto
            12 124 30 276 21 200 rrcurveto
            17 2 -14 9 -33 hhcurveto
            -18 24 callsubr
            -25 -239 rlineto
            24 -20 -27 18 -44 hhcurveto
            -101 -75 -96 -170 -18 hvcurveto
            -167 -18 52 -104 91 hhcurveto
            return
          </CharString>
          <CharString index="29">
            rmoveto
            28 58 68 83 21 -12 14 -28 hvcurveto
            -14 hlineto
            -32 99 callgsubr
            -78 -20 -32 -21 vvcurveto
            -14 21 -4 14 vhcurveto
            return
          </CharString>
          <CharString index="30">
            -753 -106 callgsubr
            return
          </CharString>
          <CharString index="31">
            -36 callsubr
            -11 -25 7 -31 hhcurveto
            -32 66 callgsubr
            return
          </CharString>
          <CharString index="32">
            hhcurveto
            -129 -79 -96 -174 -18 hvcurveto
            -173 -18 59 -94 129 hhcurveto
            return
          </CharString>
          <CharString index="33">
            32 hlineto
            21 17 4 14 5 hvcurveto
            51 146 rlineto
            191 hlineto
            return
          </CharString>
          <CharString index="34">
            3 -32 -31 -25 -7 -20 -10 vhcurveto
            return
          </CharString>
          <CharString index="35">
            -44 rmoveto
            -48 callgsubr
            -51 callgsubr
            hvcurveto
            -77 -242 rmoveto
            -43 hlineto
            82 12 31 68 69 hhcurveto
            81 callsubr
            endchar
          </CharString>
          <CharString index="36">
            -17 38 -64 callsubr
            -12 return
          </CharString>
          <CharString index="37">
            53 callgsubr
            -101 callgsubr
            return
          </CharString>
          <CharString index="38">
            22 -18 -31 31 -55 hhcurveto
            -98 -76 -96 -168 -18 hvcurveto
            return
          </CharString>
          <CharString index="39">
            269 hlineto
            18 8 12 27 23 callsubr
            -17 hhcurveto
            -182 97 callsubr
            1 -12 9 -34 13 callsubr
            -642 45 callgsubr
            return
          </CharString>
          <CharString index="40">
            vstem
            83 -2 -104 callsubr
            return
          </CharString>
          <CharString index="41">
            10 89 rlineto
            44 5 15 10 22 16 9 -5 7 hhcurveto
            18 14 49 8 1 hvcurveto
            30 2 -50 10 -30 hhcurveto
            -63 -66 -32 -111 -12 hvcurveto
            -10 -92 rlineto
            -21 hlineto
            -17 -8 -12 91 callsubr
            -14 rlineto
            -27 -3 150 callgsubr
            21 hlineto
            -43 -407 rlineto
            return
          </CharString>
          <CharString index="42">
            25 callgsubr
            6 5 10 7 hvcurveto
            18 12 9 4 10 hhcurveto
            return
          </CharString>
          <CharString index="43">
            hhcurveto
            -61 callsubr
            return
          </CharString>
          <CharString index="44">
            rmoveto
            -39 -17 -10 -16 -2 -41 callgsubr
            -17 -3 16 -10 39 hhcurveto
            38 18 10 -34 callsubr
            6 -54 callgsubr
            -16 9 -38 hhcurveto
            endchar
          </CharString>
          <CharString index="45">
            -62 callgsubr
            119.9 return
          </CharString>
          <CharString index="46">
            8 callgsubr
            13 4 0 28 return
          </CharString>
          <CharString index="47">
            rmoveto
            26 hlineto
            33 -41 callsubr
            61 576 rlineto
            129 hlineto
            17 -24 callgsubr
            27 3 -6 12 -17 hhcurveto
            -378 hlineto
            -16 -9 -12 -27 -2 hvcurveto
            -3 -22 58 callgsubr
            16 hhcurveto
            130 hlineto
            -61 -576 rlineto
            -17 -1 76 callgsubr
            return
          </CharString>
          <CharString index="48">
            vvcurveto
            -26 9 -65 85 22 22 5 11 18 vhcurveto
            10 6 5 10 13 vvcurveto
            19 -9 7 -16 vhcurveto
            return
          </CharString>
          <CharString index="49">
            -155 -103 callgsubr
            -103 -589 -88 callgsubr
            hintmask 10111110
            -79 callgsubr
            hintmask 11011110
            -93 callgsubr
          </CharString>
          <CharString index="50">
            -102 callgsubr
            -79 callgsubr
            return
          </CharString>
          <CharString index="51">
            rmoveto
            29 -47 callsubr
            -6 -7 vvcurveto
            1 -12 26 -19 -28 vvcurveto
            -18 -13 -13 -19 -10 -13 3 7 -12 vhcurveto
            return
          </CharString>
          <CharString index="52">
            168 99 112 246 25 hvcurveto
            return
          </CharString>
          <CharString index="53">
            -21 -204 rlineto
            -3 -29 -2 -22 -11 vvcurveto
            -80 -1 46 -23 43 hhcurveto
            51 29 26 45 13 -4 12 -8 hvcurveto
            return
          </CharString>
          <CharString index="54">
            -31 callsubr
            -32 3 hvcurveto
            return
          </CharString>
          <CharString index="55">
            -246 -26 93 -112 151 hhcurveto
            return
          </CharString>
          <CharString index="56">
            hmoveto
            -89 callgsubr
            return
          </CharString>
          <CharString index="57">
            144 295 rmoveto
            12 hlineto
            19 9 6 10 1 hvcurveto
            40 379 rlineto
            7 1 -12 6 -6 hhcurveto
            -119 -26 -9 -2 -3 -4 -1 -7 rlinecurve
            -13 -2 1 -26 12 hhcurveto
            66 13 -35 -327 rlineto
            -10 -1 10 -6 17 hhcurveto
            return
          </CharString>
          <CharString index="58">
            119.9 vstem
            256 751 -107 callgsubr
            16 -758 -96 callgsubr
            return
          </CharString>
          <CharString index="59">
            35 14 8 13 9 hvcurveto
            75 100 return
          </CharString>
          <CharString index="60">
            -20 48 -24 -5 -5 -1 -3 -4 vhcurveto
            -28 -19 rlineto
            -6 -4 -3 return
          </CharString>
          <CharString index="61">
            12 27 2 hvcurveto
            3 22 rlineto
            return
          </CharString>
          <CharString index="62">
            18 19 176 8 68 vhcurveto
            103 12 -49 46 -69 hhcurveto
            -54 -46 -30 -38 -31 hvcurveto
            28 265 72 callgsubr
            -21 121 callgsubr
            -3 hvcurveto
            -73 -703 35 callsubr
            33 hhcurveto
            21 hlineto
            32 82 callgsubr
            37 358 rlineto
            20 11 30 33 39 hhcurveto
            39 15 -27 -46 -5 hvcurveto
            return
          </CharString>
          <CharString index="63">
            -5 162 -17 callsubr
            return
          </CharString>
          <CharString index="64">
            175 574 -107 callgsubr
            36 -40 callgsubr
            return
          </CharString>
          <CharString index="65">
            -7 95 437 -20 hstem
            271 164.1 vstem
            424 143 callgsubr
            -12 -7 7 26 4 17 150 23 225 hvcurveto
            17 1 -12 9 -32 hhcurveto
            -21 hlineto
            -33 -14 106 callsubr
            -347 rlineto
            -34 -16 -25 -30 -33 hhcurveto
            -36 -12 30 51 5 hvcurveto
            35 330 72 callgsubr
            -21 24 callsubr
            -72 -680 rlineto
            -17 -2 14 -9 33 hhcurveto
            21 hlineto
            32 14 36 callgsubr
            19 174 rlineto
            4 hlineto
            49 41 24 54 39 hvcurveto
            -59 9 38 -17 39 -64 callsubr
            -13 hhcurveto
            endchar
          </CharString>
          <CharString index="66">
            15 9 17 1 hvcurveto
            return
          </CharString>
          <CharString index="67">
            4 -17 -18 3 -19 hhcurveto
            -107 -72 -64 -111 -12 hvcurveto
            -7 -71 21 -51 43 -28 -32 -22 -20 -30 -4 -38 -4 -32 10 -26 22 -16 -1 -3 rcurveline
            return
          </CharString>
          <CharString index="68">
            29 47 115 callgsubr
            15 hvcurveto
            2 5 1 4 5 vvcurveto
            9 -3 5 -12 4 vhcurveto
            -7 54 callsubr
            -7 -5 -11 -5 hvcurveto
            -18 -12 -8 -3 -10 hhcurveto
            return
          </CharString>
          <CharString index="69">
            -49 rmoveto
            -71 callgsubr
            -22 -14 -12 -21 -15 -14 7 9 -17 vhcurveto
            hintmask 11011100
            -36 callgsubr
            hintmask 10111100
            52 callgsubr
            hintmask 10111010
            98 callsubr
            hintmask 11011100
            -181 -358 rmoveto
            -186 -20 -54 -72 -87 hhcurveto
            -81 callgsubr
            endchar
          </CharString>
          <CharString index="70">
            67 0 100 207 100 193 100 79 callsubr
            323 700 rmoveto
            14 callsubr
            -28 -259 rlineto
            -34 hlineto
            -27 -4 -35 -35 -21 7 -9 14 hvcurveto
            34 hlineto
            -29 -273 45 callgsubr
            177 hlineto
            160 103 102 248 26 hvcurveto
            247 26 -81 103 -160 hhcurveto
            94 -350 rmoveto
            -183 -19 -58 -67 -84 hhcurveto
            -85 hlineto
            22 207 rlineto
            94 hlineto
            27 4 34 36 21 -7 9 -14 hvcurveto
            -94 hlineto
            21 193 rlineto
            85 hlineto
            84 43 -68 -182 -19 hvcurveto
            endchar
          </CharString>
          <CharString index="71">
            -32 callgsubr
            20 return
          </CharString>
          <CharString index="72">
            rmoveto
            -65 callsubr
            return
          </CharString>
          <CharString index="73">
            17 2 hvcurveto
            return
          </CharString>
          <CharString index="74">
            vvcurveto
            1 -12 26 -19 -28 vvcurveto
            return
          </CharString>
          <CharString index="75">
            -86 callgsubr
            endchar
          </CharString>
          <CharString index="76">
            -25 52 10 -34 vvcurveto
            -17 -15 -6 -14 vhcurveto
            -30 -21 20 -16 hhcurveto
            -10 -15 -15 -18 -27 53 -20 46 55 45 23 63 51 -37 17 return
          </CharString>
          <CharString index="77">
            rlineto
            17 1 return
          </CharString>
          <CharString index="78">
            vstem
            418 525 rmoveto
            -34 hlineto
            -22 -12 -2 -14 -9 hvcurveto
            -141 -216 rlineto
            -5 hlineto
            45 434 rlineto
            17 2 32 callgsubr
            -20 24 callsubr
            -73 -703 rlineto
            -17 -3 13 -9 33 hhcurveto
            20 hlineto
            33 14 124 callgsubr
            24 229 rlineto
            8 hlineto
            104 -239 rlineto
            -14 6 6 -2 22 hhcurveto
            33 hlineto
            31 15 4 11 1 hvcurveto
            4 -1 5 -4 9 vhcurveto
            -108 240 145 218 6 10 3 6 1 5 rlinecurve
            9 1 -12 6 -30 hhcurveto
            return
          </CharString>
          <CharString index="79">
            -40 -33 -32 -44 -29 hvcurveto
            26 -3 0 42 -27 hhcurveto
            -18 -62 -6 -21 -2 hvcurveto
            -1 -11 8 -32 -9 -89 -36 -339 rcurveline
            return
          </CharString>
          <CharString index="80">
            178 -6 -97 callsubr
            return
          </CharString>
          <CharString index="81">
            hlineto
            15 14 2 14 9 hvcurveto
            37 61 return
          </CharString>
          <CharString index="82">
            36 344 rlineto
            21 9 31 35 34 26 8 -9 13 hhcurveto
            14 14 50 19 2 hvcurveto
            21 2 -10 25 -39 hhcurveto
            return
          </CharString>
          <CharString index="83">
            -39 31 50 -20 69 hhcurveto
            75 83 34 32 3 hvcurveto
            17 2 -21 45 -16 -11 -38 -36 -64 hhcurveto
            -63 -30 39 98 7 hvcurveto
            222 hlineto
            13 32 34 15 1 hvcurveto
            167 18 -51 92 -120 hhcurveto
            -48 -42 -13 -25 -35 hvcurveto
            24 -26 -44 14 -54 hhcurveto
            -84 -81 -32 -30 -3 hvcurveto
            -15 -2 20 -47 17 13 42 32 62 hhcurveto
            41 21 -18 -27 6 hvcurveto
            -8 -19 -8 -21 -4 -24 -166 -2 -78 -64 -12 -113 rrcurveto
            return
          </CharString>
          <CharString index="84">
            10 17 3 hvcurveto
            5 55 rlineto
            17 return
          </CharString>
          <CharString index="85">
            hvcurveto
            -65 -7 43 -46 75 hhcurveto
            return
          </CharString>
          <CharString index="86">
            594 -19 callgsubr
          </CharString>
          <CharString index="87">
            -3 -6 -7 -33 callsubr
            return
          </CharString>
          <CharString index="88">
            0 95 470 145 hstem
            6 521.37 vstem
            31 hmoveto
            462 hlineto
            18 11 11 21 2 hvcurveto
            3 24 1 14 0 11 -4 13 rlinecurve
            -136 591 rlineto
            18 -4 -10 7 -16 hhcurveto
            -50 hlineto
            -17 -11 -7 -18 -7 hvcurveto
            -253 -591 -6 -14 -4 -10 -1 -16 rlinecurve
            -3 -23 rlineto
            -20 -1 9 -11 17 hhcurveto
            99 95 rmoveto
            188 470 rlineto
            8 hlineto
            87 -470 rlineto
            endchar
          </CharString>
          <CharString index="89">
            110 callsubr
            30 284 rlineto
            223 hlineto
            -30 -284 rlineto
            -17 -2 13 -9 33 hhcurveto
            26 hlineto
            33 69 callgsubr
            -33 hhcurveto
            -26 -43 callgsubr
            -28 -268 rlineto
            -223 hlineto
            28 268 72 callgsubr
            -27 -43 callgsubr
            -69 -652 -1 callgsubr
            return
          </CharString>
          <CharString index="90">
            94 319 127 0 -20 return
          </CharString>
          <CharString index="91">
            -56 -10 callsubr
            return
          </CharString>
          <CharString index="92">
            rlineto
            -18 callgsubr
            return
          </CharString>
          <CharString index="93">
            hlineto
            -33 -15 return
          </CharString>
          <CharString index="94">
            rmoveto
            -7 -5 -3 -10 hhcurveto
            -12 -8 7 24 1 hvcurveto
            return
          </CharString>
          <CharString index="95">
            -100 hvcurveto
            -12 8 14 -9 return
          </CharString>
          <CharString index="96">
            hstemhm
            52.59 513.41 -512 119 return
          </CharString>
          <CharString index="97">
            -7 -12 callgsubr
            return
          </CharString>
          <CharString index="98">
            38 91 97 116 12 hvcurveto
            21 2 -14 14 -33 148 callsubr
            -14 -23 -2 hvcurveto
            -8 -79 -23 -49 -22 -38 -5 -10 -5 -10 -1 -7 rrcurveto
            -13 -1 21 -5 14 hhcurveto
            return
          </CharString>
          <CharString index="99">
            hstemhm
            37.84 115.35 171.3 114.47 -7.96 68 return
          </CharString>
          <CharString index="100">
            rmoveto
            50 35 20 49 16 -7 11 -11 hvcurveto
            4 callgsubr
            return
          </CharString>
          <CharString index="101">
            -17 callgsubr
            2 return
          </CharString>
          <CharString index="102">
            rmoveto
            24 19 callsubr
            -24 24 callsubr
            -8 -78 35 callsubr
            34 hhcurveto
            return
          </CharString>
          <CharString index="103">
            57 vstem
            306 -6 rmoveto
            159 127 125 233 233 -127 124 -159 -159 -128 -124 -233 -233 128 -125 159 hvcurveto
            55 vmoveto
            -126 -104 102 201 202 104 100 126 126 103 -100 -202 -201 -103 -102 -126 hvcurveto
            return
          </CharString>
          <CharString index="104">
            rlineto
            108 hlineto
            17 7 11 27 3 hvcurveto
            1 15 rlineto
            27 3 -5 12 -17 hhcurveto
            -108 hlineto
            18 167 -30 callsubr
            -11 9 -27 hhcurveto
            -12 hlineto
            -28 -11 -38 callgsubr
            -18 -167 rlineto
            -109 hlineto
            -16 -9 -12 -27 -2 hvcurveto
            -2 -15 rlineto
            -27 -3 7 -11 16 hhcurveto
            109 hlineto
            return
          </CharString>
          <CharString index="105">
            -7 -12 -5 -14 hhcurveto
            -22 -27 5 38 return
          </CharString>
          <CharString index="106">
            119 callgsubr
            -33 hhcurveto
            return
          </CharString>
          <CharString index="107">
            hstemhm
            16 423.03 -396.04 115.01 return
          </CharString>
          <CharString index="108">
            16 -29 -29 10 -39 -75 callsubr
            -47 callgsubr
            return
          </CharString>
          <CharString index="109">
            89 -7 100 513 101 return
          </CharString>
          <CharString index="110">
            94 352 92 -5 -20 return
          </CharString>
          <CharString index="111">
            hlineto
            34 15 callsubr
            return
          </CharString>
          <CharString index="112">
            -7 41 callsubr
            return
          </CharString>
          <CharString index="113">
            -77 rmoveto
            14 hlineto
            23 14 7 17 6 hvcurveto
            246 719 rlineto
            2 9 1 3 4 vvcurveto
            13 -10 8 -21 vhcurveto
            -15 hlineto
            -23 -14 -8 -17 -6 hvcurveto
            -246 -719 rlineto
            -2 -7 -1 -6 -3 vvcurveto
            -13 10 -7 22 vhcurveto
            endchar
          </CharString>
          <CharString index="114">
            36.46 115.58 136.95999 return
          </CharString>
          <CharString index="115">
            -33 5 callsubr
            return
          </CharString>
          <CharString index="116">
            232 312 rmoveto
            96 15 33 37 49 hhcurveto
            46 18 -41 -92 -9 hvcurveto
            -356 -216 rmoveto
            -38 -16 25 41 4 hvcurveto
            7 66 55 23 69 2 -4 -46 1 -40 8 -33 rrcurveto
            -25 -23 -31 -13 -32 hhcurveto
            endchar
          </CharString>
          <CharString index="117">
            hstemhm
            37.84 115.35 -6.69 -61 callgsubr
            67.49 return
          </CharString>
          <CharString index="118">
            27 3 hvcurveto
            1 14 35 callgsubr
            return
          </CharString>
          <CharString index="119">
            9 12 27 3 hvcurveto
            return
          </CharString>
          <CharString index="120">
            14 callgsubr
            -68 return
          </CharString>
          <CharString index="121">
            -177 hlineto
            -22 -14 callgsubr
            return
          </CharString>
          <CharString index="122">
            15 36 callgsubr
            return
          </CharString>
          <CharString index="123">
            rmoveto
            -3 callgsubr
            return
          </CharString>
          <CharString index="124">
            hstem
            48.48 122.48 return
          </CharString>
          <CharString index="125">
            47 229 rmoveto
            81 callsubr
            -43 hlineto
            82 12 31 68 69 hhcurveto
            endchar
          </CharString>
          <CharString index="126">
            45 callsubr
            8 78 34 callgsubr
            return
          </CharString>
          <CharString index="127">
            9 6 13 4 hvcurveto
            15 63 26 116 1 9 rrcurveto
            17 2 -14 9 -34 hhcurveto
            -10 hlineto
            -34 30 callgsubr
            -1 -9 3 -179 rlineto
            -13 1 8 -6 16 hhcurveto
            return
          </CharString>
          <CharString index="128">
            587 -35 callsubr
            return
          </CharString>
          <CharString index="129">
            34 callsubr
            hintmask 10111000
            return
          </CharString>
          <CharString index="130">
            3 128 callsubr
            return
          </CharString>
          <CharString index="131">
            27 callgsubr
            -2 hvcurveto
            return
          </CharString>
          <CharString index="132">
            29 callsubr
            -2 hvcurveto
            return
          </CharString>
          <CharString index="133">
            8 12 27 3 hvcurveto
            return
          </CharString>
          <CharString index="134">
            38.91 531.09 return
          </CharString>
          <CharString index="135">
            hstem
            31 callsubr
            vstem
            return
          </CharString>
          <CharString index="136">
            hlineto
            85 callsubr
            return
          </CharString>
          <CharString index="137">
            59 callgsubr
            -1 return
          </CharString>
          <CharString index="138">
            41 114 171 107 return
          </CharString>
          <CharString index="139">
            -52 callsubr
            11 100 rmoveto
            -88 -39 72 186 20 hvcurveto
            return
          </CharString>
          <CharString index="140">
            hstemhm
            36.67 113.24 return
          </CharString>
          <CharString index="141">
            hstemhm
            -17 488.25 return
          </CharString>
          <CharString index="142">
            92 callgsubr
            -9 return
          </CharString>
          <CharString index="143">
            -22 callgsubr
            76 77 78 84 callgsubr
            hintmask 11011110
            return
          </CharString>
          <CharString index="144">
            rmoveto
            18 6 3 9 9 -7 20 -29 70 hvcurveto
            20 -9 -26 7 -29 hhcurveto
            -26 54 callgsubr
            12 -7 24 hhcurveto
            return
          </CharString>
          <CharString index="145">
            hlineto
            -15 -13 -6 -15 -6 hvcurveto
            -291 -661 rlineto
            -3 -5 -2 -5 -2 vvcurveto
            return
          </CharString>
          <CharString index="146">
            13 26 3 hvcurveto
            1 7 113 callgsubr
            return
          </CharString>
          <CharString index="147">
            95 -92 92 437 -20 return
          </CharString>
          <CharString index="148">
            92 353 92 return
          </CharString>
          <CharString index="149">
            191 hlineto
            5 -133 rlineto
            -20 -1 9 -9 17 hhcurveto
            262 -6 callsubr
            22 rlineto
            27 4 -7 12 -16 hhcurveto
            return
          </CharString>
          <CharString index="150">
            hvcurveto
            -52 callsubr
            return
          </CharString>
          <CharString index="151">
            33.87 380.13 return
          </CharString>
          <CharString index="152">
            hlineto
            33 15 callsubr
            return
          </CharString>
          <CharString index="153">
            13 4 0 28 -13 return
          </CharString>
          <CharString index="154">
            -34 hhcurveto
            -15 hlineto
            -34 return
          </CharString>
          <CharString index="155">
            hstem
            27 callsubr
            vstem
            return
          </CharString>
          <CharString index="156">
            48 22 39 5 9 5 9 1 7 rrcurveto
            14 1 -22 4 -14 hhcurveto
            -37 -91 -97 -116 -12 hvcurveto
            -21 -2 15 -14 32 hhcurveto
            return
          </CharString>
          <CharString index="157">
            -6 11 -16 hhcurveto
            return
          </CharString>
          <CharString index="158">
            50 25 -51 rlineto
            -10 8 8 -5 19 hhcurveto
            24 hlineto
            12 8 5 8 1 hvcurveto
            3 -3 8 -4 8 vhcurveto
            -41 69 rlineto
            15 return
          </CharString>
          <CharString index="159">
            -7 102 199 100 209 104 return
          </CharString>
          <CharString index="160">
            hstem
            37.37 117.54 return
          </CharString>
          <CharString index="161">
            73 callgsubr
            -3 1 -4 hhcurveto
            -8 return
          </CharString>
          <CharString index="162">
            rmoveto
            15 4 callsubr
            return
          </CharString>
          <CharString index="163">
            -24 -45 130 callsubr
            return
          </CharString>
          <CharString index="164">
            76 callsubr
            hstem
            return
          </CharString>
          <CharString index="165">
            -6 12 -16 hhcurveto
            return
          </CharString>
          <CharString index="166">
            67 rmoveto
            -41 -3 44 53 5 hvcurveto
            50 6 11 47 42 hhcurveto
            43 1 -47 -50 -5 hvcurveto
            -53 -5 -13 -44 -41 hhcurveto
            return
          </CharString>
          <CharString index="167">
            -21 -199 rlineto
            -3 -34 -2 -23 -11 vvcurveto
            -78 44 -22 44 return
          </CharString>
          <CharString index="168">
            16 -4 22 hhcurveto
            return
          </CharString>
          <CharString index="169">
            73 29 callgsubr
            73 100 609 -20 hstemhm
            54 119 24.5 -61 callgsubr
            return
          </CharString>
          <CharString index="170">
            hlineto
            -28 -2 -38 -15 -18 5 -11 16 hvcurveto
            return
          </CharString>
          <CharString index="171">
            46 412.54 return
          </CharString>
          <CharString index="172">
            17 2 -14 10 -34 hhcurveto
            return
          </CharString>
          <CharString index="173">
            vvcurveto
            -85 56 -31 58 50 35 20 49 16 -7 11 -11 vhcurveto
            -6 -12 -4 -12 hhcurveto
            -26 -13 7 27 return
          </CharString>
          <CharString index="174">
            133 callsubr
            148.81 73 -50.51 return
          </CharString>
          <CharString index="175">
            55 hstemhm
            49.7 121.54 211.76001 73 -7.58 return
          </CharString>
          <CharString index="176">
            hstem
            64 callsubr
            vstem
            return
          </CharString>
          <CharString index="177">
            -18 -4 -17 -11 hvcurveto
            -62 -94 return
          </CharString>
          <CharString index="178">
            rmoveto
            95 callsubr
            return
          </CharString>
          <CharString index="179">
            8 84 -8 66 -26 46 rrcurveto
            return
          </CharString>
          <CharString index="180">
            hlineto
            -71 -681 rlineto
            -17 9 -9 36 vhcurveto
            14 hlineto
            32 18 36 callgsubr
            71 681 rlineto
            return
          </CharString>
          <CharString index="181">
            hstem
            49.74 120.88 277.87999 119.93 vstem
            return
          </CharString>
          <CharString index="182">
            -652 rlineto
            -17 return
          </CharString>
          <CharString index="183">
            -20 76 152 return
          </CharString>
          <CharString index="184">
            764 -35 callsubr
            return
          </CharString>
          <CharString index="185">
            53 callsubr
            vstem
            return
          </CharString>
          <CharString index="186">
            hstem
            44 callgsubr
            vstem
            return
          </CharString>
          <CharString index="187">
            -3 hvcurveto
            -12 -1 11 -22 12 9 25 28 42 hhcurveto
            return
          </CharString>
          <CharString index="188">
            33 20 -23 -36 -68 -60 -23 -62 hvcurveto
            return
          </CharString>
          <CharString index="189">
            -9 -17 -1 hvcurveto
            return
          </CharString>
          <CharString index="190">
            80 hvcurveto
            20 -10 -25 7 -32 hhcurveto
            -31 66 callgsubr
            6 -6 77 -100 hvcurveto
            -12 8 return
          </CharString>
          <CharString index="191">
            -18 callgsubr
            -34 hhcurveto
            endchar
          </CharString>
          <CharString index="192">
            -34 -16 -9 -17 return
          </CharString>
          <CharString index="193">
            292 661 rlineto
            3 126 callgsubr
            return
          </CharString>
          <CharString index="194">
            hlineto
            -17 -9 -12 -27 -3 hvcurveto
            -1 -14 rlineto
            -27 return
          </CharString>
          <CharString index="195">
            91 102 callsubr
            return
          </CharString>
          <CharString index="196">
            -9 33 hhcurveto
            26 hlineto
            33 -41 callsubr
            return
          </CharString>
          <CharString index="197">
            rmoveto
            14 hlineto
            15 12 6 15 return
          </CharString>
          <CharString index="198">
            -27 -3 hvcurveto
            -2 return
          </CharString>
          <CharString index="199">
            -10 -13 callgsubr
            return
          </CharString>
          <CharString index="200">
            10 -29 -31 10 -24 hhcurveto
            -45 -31 -24 -45 -19 hvcurveto
            -3 -7 -1 -5 -3 vvcurveto
            return
          </CharString>
          <CharString index="201">
            27 hlineto
            32 -41 callsubr
            return
          </CharString>
          <CharString index="202">
            -1 4 3 -1 4 hhcurveto
            return
          </CharString>
          <CharString index="203">
            -73 -6 101 514 101 return
          </CharString>
          <CharString index="204">
            120 callgsubr
            17 return
          </CharString>
          <CharString index="205">
            69 3 31 36 53 vvcurveto
            return
          </CharString>
          <CharString index="206">
            111 callgsubr
            hstem
            54 119 406 68 vstem
            return
          </CharString>
          <CharString index="207">
            96 callsubr
            48 152 129 callgsubr
            return
          </CharString>
          <CharString index="208">
            42.99 115.01 return
          </CharString>
          <CharString index="209">
            -2 55 callsubr
            return
          </CharString>
          <CharString index="210">
            81 hstem
            45 244.1 vstem
            65 return
          </CharString>
          <CharString index="211">
            121 callsubr
            hstem
            return
          </CharString>
          <CharString index="212">
            156 callgsubr
            12 return
          </CharString>
          <CharString index="213">
            156 callsubr
            -36 return
          </CharString>
          <CharString index="214">
            14 hlineto
            32 15 15 22 hvcurveto
            78 20 32 21 vvcurveto
            14 -21 4 -14 return
          </CharString>
          <CharString index="215">
            174 18 -58 96 -129 hhcurveto
            -129 -79 -96 -174 -18 hvcurveto
            return
          </CharString>
          <CharString index="216">
            -14 -8 -25 52 10 -34 vvcurveto
            -17 -15 -6 -14 vhcurveto
            -30 -21 20 return
          </CharString>
          <CharString index="217">
            rmoveto
            94 callsubr
            return
          </CharString>
          <CharString index="218">
            12 10 vvcurveto
            14 -11 4 -24 return
          </CharString>
          <CharString index="219">
            58 callgsubr
            17 hhcurveto
            return
          </CharString>
          <CharString index="220">
            431 92 143 92 hstem
            return
          </CharString>
          <CharString index="221">
            702 57 callsubr
            return
          </CharString>
          <CharString index="222">
            -240 -7 92 668 -20 return
          </CharString>
          <CharString index="223">
            27 2 -5 12 -16 hhcurveto
            return
          </CharString>
          <CharString index="224">
            -105 0 92 339 92 return
          </CharString>
          <CharString index="225">
            -9 -12 -27 -2 hvcurveto
            -1 return
          </CharString>
          <CharString index="226">
            581 152 hstem
            return
          </CharString>
          <CharString index="227">
            0 100 500 100 return
          </CharString>
          <CharString index="228">
            -20 89 108 return
          </CharString>
          <CharString index="229">
            vstem
            166 -140 rmoveto
            12 hlineto
            27 13 9 17 1 hvcurveto
            return
          </CharString>
          <CharString index="230">
            rmoveto
            204 hlineto
            10 4 7 15 2 hvcurveto
            1 8 rlineto
            16 return
          </CharString>
          <CharString index="231">
            120.17 -12.59 69 hintmask 00000000
            return
          </CharString>
          <CharString index="232">
            rmoveto
            28 hlineto
            19 13 6 12 6 hvcurveto
            71 146 rlineto
            return
          </CharString>
          <CharString index="233">
            126 148 7 8 5 8 1 7 rlinecurve
            19 2 return
          </CharString>
          <CharString index="234">
            -261 -212 92 645 -20 return
          </CharString>
          <CharString index="235">
            hvcurveto
            3 22 105 callsubr
            return
          </CharString>
          <CharString index="236">
            92 346 92 hstemhm
            62 112 return
          </CharString>
          <CharString index="237">
            -16 hvcurveto
            -2 -6 -1 return
          </CharString>
          <CharString index="238">
            -248 702 -20 return
          </CharString>
          <CharString index="239">
            33 callgsubr
            vstem
            return
          </CharString>
          <CharString index="240">
            55 hstemhm
            37.84 115.35 return
          </CharString>
          <CharString index="241">
            -24 -3 hvcurveto
            -1 -9 rlineto
            -24 -2 6 -10 16 hhcurveto
            return
          </CharString>
          <CharString index="242">
            -102 5 callsubr
            return
          </CharString>
          <CharString index="243">
            -20 82 122 callgsubr
            return
          </CharString>
          <CharString index="244">
            702 -20 hstem
            return
          </CharString>
          <CharString index="245">
            92 51 152 return
          </CharString>
          <CharString index="246">
            hlineto
            17 7 10 24 3 hvcurveto
            1 9 rlineto
            24 return
          </CharString>
          <CharString index="247">
            -58 253 40 232 -20 248 -20 hstem
            return
          </CharString>
          <CharString index="248">
            -61 callgsubr
            hintmask 00000000
            return
          </CharString>
          <CharString index="249">
            -4 -4 1 -3 hhcurveto
            -9 -6 return
          </CharString>
          <CharString index="250">
            -8 -3 vvcurveto
            -9 -1 6 -4 return
          </CharString>
          <CharString index="251">
            54 139 54 116 54 return
          </CharString>
          <CharString index="252">
            851 rmoveto
            25 11 6 10 return
          </CharString>
          <CharString index="253">
            -7 102 607 -20 return
          </CharString>
          <CharString index="254">
            hlineto
            22 19 5 13 return
          </CharString>
          <CharString index="255">
            hhcurveto
            -13 hlineto
            -34 -17 return
          </CharString>
          <CharString index="256">
            hlineto
            16 9 12 return
          </CharString>
          <CharString index="257">
            rlineto
            -27 -3 6 return
          </CharString>
          <CharString index="258">
            hstemhm
            45 299 -261 112 hintmask 01110000
            return
          </CharString>
          <CharString index="259">
            hhcurveto
            -55 callsubr
            return
          </CharString>
          <CharString index="260">
            19 5 4 -32 callgsubr
            return
          </CharString>
          <CharString index="261">
            22 11 2 hvcurveto
            6 -1 5 -4 7 vhcurveto
            return
          </CharString>
          <CharString index="262">
            29 callgsubr
            80 100 500 100 hstem
            return
          </CharString>
          <CharString index="263">
            -9 -17 -3 hvcurveto
            return
          </CharString>
        <CharString name=".notdef">
          4 0 50 600 50 hstem
          -20 573 vstem
          -20 hmoveto
          500 hlineto
          73 700 rlineto
          -500 hlineto
          218 -305 rmoveto
          -144 255 rlineto
          340 hlineto
          -428 -555 rmoveto
          53 510 144 -255 rlineto
          203 -255 rmoveto
          -143 255 196 255 rlineto
          -427 -555 rmoveto
          196 255 144 -255 rlineto
          endchar
        </CharString>
        <CharString name="A">
          -44 callsubr
          34 callsubr
          hintmask 10110000
          22 -2 -106 callgsubr
          hintmask 11010000
          -85 callsubr
          endchar
        </CharString>
        <CharString name="AE">
          236 0 100 62 100 46 100 192 100 123 callgsubr
          hintmask 11111000
          21 -2 125 callsubr
          hintmask 11110100
          42 callsubr
          hintmask 11111000
          -25 callgsubr
        </CharString>
        <CharString name="AEacute">
          236 0 100 62 100 46 100 192 100 58 152 123 callgsubr
          hintmask 11111100
          420 758 rmoveto
          -105 callgsubr
          -399 -760 125 callsubr
          hintmask 11111010
          42 callsubr
          hintmask 11111100
          -25 callgsubr
        </CharString>
        <CharString name="Aacute">
          -44 callsubr
          76 152 22 callsubr
          279 758 rmoveto
          -105 callgsubr
          -257 -29 callgsubr
        </CharString>
        <CharString name="Abreve">
          -44 callsubr
          76 77 22 callsubr
          306 758 -103 callgsubr
          -284 -29 callgsubr
        </CharString>
        <CharString name="Acircumflex">
          110 callgsubr
          488.25 hintmask 10111000
          208 751 -107 callgsubr
          -186 -77 callsubr
          hintmask 11011000
          -85 callsubr
          endchar
        </CharString>
        <CharString name="Adieresis">
          -44 callsubr
          89 108 hstemhm
          195 1 callgsubr
          hintmask 10111100
          236 771 -104 callgsubr
          -355 -773 -106 callgsubr
          hintmask 11011100
          -85 callsubr
          endchar
        </CharString>
        <CharString name="Agrave">
          -44 callsubr
          76 152 22 callsubr
          323 758 -95 callgsubr
          -301 -29 callgsubr
        </CharString>
        <CharString name="Amacron">
          -44 callsubr
          100 81 22 callsubr
          210 782 -84 callsubr
          -188 -784 -106 callgsubr
          hintmask 11011000
          -85 callsubr
          endchar
        </CharString>
        <CharString name="Aogonek">
          -5 -171 66 267 -17 callsubr
          hstemhm
          323 64 hintmask 11011000
          469 -100 rmoveto
          -2 callsubr
          16 4 22 9 22 hvcurveto
          30 hlineto
          27 13 7 12 1 hvcurveto
          1 5 -1 4 -1 6 -105 647 rcurveline
          16 -3 -15 7 -29 hhcurveto
          -41 hlineto
          -28 -18 -7 -16 -6 hvcurveto
          -238 -647 rlineto
          -2 -6 -2 -4 -5 vvcurveto
          -12 -1 11 -7 29 hhcurveto
          -74 callsubr
          19 -137 rlineto
          -27 -38 -8 -43 -24 -59 callsubr
          -294 356 rmoveto
          hintmask 11101000
          -85 callsubr
          endchar
        </CharString>
        <CharString name="Aring">
          -44 callsubr
          53 47 87 48 hstemhm
          222 48 85 48 hintmask 10111110
          302 735 -70 callgsubr
          -285 -784 -106 callgsubr
          hintmask 11011110
          -85 callsubr
          endchar
        </CharString>
        <CharString name="Aringacute">
          -5 162 94 491 47 24 112 hstemhm
          209 48 85 47 hintmask 00000000
          hintmask 11111000
          292 818 rmoveto
          32 19 9 12 12 hvcurveto
          77 66 7 4 1 7 rrcurveto
          11 1 -17 3 -36 hhcurveto
          -35 -26 -6 -21 -14 hvcurveto
          -15 -22 -11 -15 -21 -36 rrcurveto
          -9 6 -3 20 vhcurveto
          178 -786 rmoveto
          -101 618 rlineto
          hintmask 11011000
          11 15 7 18 2 20 rrcurveto
          54 6 -31 37 -56 hhcurveto
          -54 -39 -37 -54 -6 hvcurveto
          -2 -19 2 -17 7 -14 -229 -621 rcurveline
          -2 -6 -2 -4 -5 vvcurveto
          -12 -1 11 -7 29 hhcurveto
          -74 callsubr
          20 -146 rlineto
          -14 2 61 callsubr
          31 hlineto
          27 13 7 12 1 hvcurveto
          hintmask 11111000
          1 5 -1 4 -1 6 rrcurveto
          hintmask 11011000
          -213 670 rmoveto
          28 3 16 17 28 hhcurveto
          27 13 -17 -28 -2 hvcurveto
          -27 -4 -17 -16 -27 hhcurveto
          -27 -13 16 27 3 hvcurveto
          -82 -446 rmoveto
          -85 callsubr
          endchar
        </CharString>
        <CharString name="Atilde">
          -44 callsubr
          82 70 -35 70 34 callsubr
          hintmask 10101100
          173 77 callsubr
          hintmask 10110100
          -95 callsubr
          hintmask 10101100
          -74 callgsubr
          -141 -769 -106 callgsubr
          hintmask 11001100
          -85 callsubr
          endchar
        </CharString>
        <CharString name="B">
          29 0 96 215 94 200 95 hstemhm
          375 116 -105 118 hintmask 11110000
          74 hmoveto
          177 hlineto
          153 74 72 127 13 hvcurveto
          12 108 -65 45 -41 13 rrcurveto
          4 vlineto
          hintmask 11101000
          52 22 47 62 8 73 rrcurveto
          107 11 -56 67 -141 hhcurveto
          -170 hlineto
          -22 -14 callgsubr
          -67 -632 rlineto
          hintmask 11110000
          -42 callgsubr
          127 405 rmoveto
          21 200 rlineto
          hintmask 11101000
          88 hlineto
          59 24 -30 -67 -7 hvcurveto
          -62 -6 -37 -41 -54 hhcurveto
          -121 -309 rmoveto
          22 215 rlineto
          hintmask 11110000
          98 hlineto
          65 29 -35 -68 -7 hvcurveto
          -73 -8 -36 -39 -57 hhcurveto
          endchar
        </CharString>
        <CharString name="C">
          95 callgsubr
          17 callsubr
          vstem
          286 -7 -83 callsubr
        </CharString>
        <CharString name="CR">
          -270 endchar
        </CharString>
        <CharString name="Cacute">
          95 callgsubr
          51 152 17 callsubr
          vstem
          297 758 rmoveto
          -105 callgsubr
          -11 -765 -83 callsubr
        </CharString>
        <CharString name="Cacute.loclPLK">
          95 callgsubr
          51 152 17 callsubr
          vstem
          306 758 -76 callgsubr
          -20 -765 -83 callsubr
        </CharString>
        <CharString name="Ccaron">
          95 callgsubr
          48 144 17 callsubr
          vstem
          319 755 -105 callsubr
          -33 -762 -83 callsubr
        </CharString>
        <CharString name="Ccedilla">
          -51 -211 60 144 103 508 103 hstem
          48.58 122.38 67.04 78 vstem
          450 691 rmoveto
          9 -21 -35 7 -37 hhcurveto
          -190 -88 -116 -240 -26 hvcurveto
          -21 -208 53 -112 126 -30 rrcurveto
          -20 -58 -5 -14 -8 -53 callsubr
          13 48 rlineto
          -1 9 8 0 9 hhcurveto
          39 37 8 10 21 hvcurveto
          23 11 10 15 1 23 1 29 -9 37 -28 -11 rrcurveto
          -10 -23 -25 -9 -36 hhcurveto
          -100 -40 83 172 18 hvcurveto
          173 19 55 80 100 hhcurveto
          34 23 -8 -8 18 hvcurveto
          24 -12 18 53 3 27 2 17 -3 12 -18 6 rrcurveto
          endchar
        </CharString>
        <CharString name="Ccircumflex">
          95 callgsubr
          44 144 17 callsubr
          vstem
          227 751 -107 callgsubr
          59 -758 -83 callsubr
        </CharString>
        <CharString name="Cdotaccent">
          95 callgsubr
          64 108 17 callsubr
          105.54001 -11 callgsubr
          326 771 -107 callsubr
          -40 -778 -83 callsubr
        </CharString>
        <CharString name="D">
          67 120 callsubr
          79 callsubr
          72 hmoveto
          -57 callgsubr
          endchar
        </CharString>
        <CharString name="Dcaron">
          67 120 callsubr
          55 144 79 callsubr
          322 755 -105 callsubr
          -250 -755 rmoveto
          -57 callgsubr
          endchar
        </CharString>
        <CharString name="Dcroat">
          -37 callsubr
        </CharString>
        <CharString name="E">
          -26 callgsubr
          69 callsubr
          74 hmoveto
          -106 callsubr
          endchar
        </CharString>
        <CharString name="Eacute">
          -26 callgsubr
          58 152 69 callsubr
          273 758 rmoveto
          -105 callgsubr
          -199 -758 rmoveto
          -106 callsubr
          endchar
        </CharString>
        <CharString name="Ebreve">
          -26 callgsubr
          58 77 69 callsubr
          300 758 -103 callgsubr
          -226 -758 rmoveto
          -106 callsubr
          endchar
        </CharString>
        <CharString name="Ecaron">
          -26 callgsubr
          55 144 69 callsubr
          294 755 -105 callsubr
          -220 -755 rmoveto
          -106 callsubr
          endchar
        </CharString>
        <CharString name="Ecircumflex">
          -26 callgsubr
          51 144 69 callsubr
          203 751 -107 callgsubr
          -129 -751 rmoveto
          -106 callsubr
          endchar
        </CharString>
        <CharString name="Edieresis">
          -26 callgsubr
          71 108 hstem
          190 1 callgsubr
          vstem
          231 771 -104 callgsubr
          -298 -771 rmoveto
          -106 callsubr
          endchar
        </CharString>
        <CharString name="Edotaccent">
          -26 callgsubr
          71 108 hstem
          252.5 -11 callgsubr
          302 771 -107 callsubr
          -228 -771 rmoveto
          -106 callsubr
          endchar
        </CharString>
        <CharString name="Egrave">
          -26 callgsubr
          58 152 69 callsubr
          317 758 -95 callgsubr
          -243 -758 rmoveto
          -106 callsubr
          endchar
        </CharString>
        <CharString name="Emacron">
          -26 callgsubr
          82 81 69 callsubr
          205 782 -84 callsubr
          -131 -782 rmoveto
          -106 callsubr
          endchar
        </CharString>
        <CharString name="Eng">
          80 -212 92 822 -20 48 callsubr
          525 702 rmoveto
          -17 -43 callgsubr
          -43 -398 -3 -23 1 -24 2 -24 rlinecurve
          -4 -2 -6 23 -7 23 -10 23 rlinecurve
          -165 405 rlineto
          18 -8 -14 5 -21 hhcurveto
          -24 hlineto
          -34 -14 -38 callgsubr
          -68 -652 35 callsubr
          34 hhcurveto
          17 hlineto
          33 16 9 17 1 hvcurveto
          44 408 2 22 -1 22 -2 22 rlinecurve
          5 3 6 -21 5 -22 9 -21 rlinecurve
          172 -415 -9 -85 rlineto
          -45 -5 -14 -12 -19 -18 -9 4 -6 hhcurveto
          -17 -13 -42 -15 -2 hvcurveto
          -32 -2 39 -7 42 hhcurveto
          57 66 35 110 12 hvcurveto
          78 743 -1 callsubr
          endchar
        </CharString>
        <CharString name="Eogonek">
          -53 -177 66 111 100 208 100 192 100 hstem
          299 64 vstem
          445 -106 rmoveto
          -2 callsubr
          20 6 30 16 28 hvcurveto
          4 6 2 10 1 13 3 22 rcurveline
          116 callsubr
          -204 hlineto
          22 208 rlineto
          182 hlineto
          16 -24 callgsubr
          28 2 50 callsubr
          -181 hlineto
          20 192 rlineto
          203 hlineto
          16 12 callsubr
          2 97 callgsubr
          -16 hhcurveto
          -291 hlineto
          -22 -14 callgsubr
          -67 -632 45 callgsubr
          248 hlineto
          -17 -33 -6 -33 -20 -59 callsubr
          endchar
        </CharString>
        <CharString name="Eth">
          -37 callsubr
        </CharString>
        <CharString name="Euro">
          -7 -7 103 139 70 86 70 144 102 hstemhm
          63 123 -118 117 hintmask 11111000
          283 -7 rmoveto
          91 82 44 33 3 hvcurveto
          15 2 -16 51 -24 -14 -41 -40 -70 hhcurveto
          -64 -40 43 96 -6 hvcurveto
          203 hlineto
          17 8 9 22 2 hvcurveto
          1 7 rlineto
          23 2 -6 9 -17 hhcurveto
          hintmask 11110100
          -211 hlineto
          1 15 2 15 1 16 2 13 1 14 2 13 rrcurveto
          211 hlineto
          17 8 9 23 2 hvcurveto
          1 7 rlineto
          22 3 -6 9 -17 hhcurveto
          -205 hlineto
          99 27 49 45 68 66 27 -35 12 hhcurveto
          19 33 49 22 3 hvcurveto
          27 3 -68 39 -87 hhcurveto
          -141 -92 -80 -166 -40 hvcurveto
          -39 hlineto
          -17 -8 -9 -22 151 callgsubr
          rlineto
          -23 -2 7 -9 17 hhcurveto
          32 hlineto
          -2 -13 -1 -13 -2 -14 -1 -16 -2 -15 -1 -15 rrcurveto
          hintmask 11111000
          -32 hlineto
          -17 -9 -9 -23 -2 hvcurveto
          -1 -7 rlineto
          -22 -2 6 -9 17 hhcurveto
          39 hlineto
          -165 5 71 -77 144 hhcurveto
          endchar
        </CharString>
        <CharString name="F">
          -87 308 100 192 100 hstem
          44.95 389.05 vstem
          89 -2 rmoveto
          25 hlineto
          34 14 36 callgsubr
          30 284 rlineto
          165 hlineto
          17 8 11 28 23 callsubr
          -16 hhcurveto
          -165 hlineto
          20 192 rlineto
          179 140 callgsubr
          2 -6 12 -16 hhcurveto
          -266 hlineto
          -22 -14 callgsubr
          -68 -642 -1 callgsubr
          endchar
        </CharString>
        <CharString name="G">
          42 52 callsubr
          132 callsubr
          353 603 -80 callsubr
          endchar
        </CharString>
        <CharString name="Gbreve">
          42 52 callsubr
          51 77 132 callsubr
          349 758 -103 callgsubr
          4 -155 -80 callsubr
          endchar
        </CharString>
        <CharString name="Gcircumflex">
          42 52 callsubr
          44 144 132 callsubr
          251 751 -107 callgsubr
          102 -148 -80 callsubr
          endchar
        </CharString>
        <CharString name="Gcommaaccent">
          42 52 callsubr
          33 callgsubr
          56.76 101 vstem
          353 603 -80 callsubr
          -63 -654 rmoveto
          -14 hlineto
          -32 99 callgsubr
          -78 -20 -32 -21 vvcurveto
          -14 21 -4 14 28 58 68 83 21 -12 14 -28 vhcurveto
          endchar
        </CharString>
        <CharString name="Gdotaccent">
          42 52 callsubr
          64 108 33 callgsubr
          128.26 -11 callgsubr
          350 771 -107 callsubr
          3 -168 -80 callsubr
          endchar
        </CharString>
        <CharString name="H">
          91 308 100 294 -20 hstem
          44.95 530.08 vstem
          89 -2 -18 callsubr
          endchar
        </CharString>
        <CharString name="Hbar">
          91 308 100 76 82 136 -20 hstem
          108 119.5 222.5 119.5 vstem
          634 566 rmoveto
          -70 hlineto
          11 110 34 callgsubr
          -26 -43 callgsubr
          -12 -110 rlineto
          -222 hlineto
          11 110 72 callgsubr
          -27 -43 callgsubr
          -12 -110 rlineto
          -73 63 callsubr
          74 hlineto
          -49 -460 -1 callgsubr
          94 callsubr
          30 284 rlineto
          223 hlineto
          -30 -284 rlineto
          -17 -2 13 89 callsubr
          49 460 rlineto
          70 hlineto
          28 2 114 callgsubr
          -206 -158 rmoveto
          -223 hlineto
          8 76 rlineto
          223 hlineto
          endchar
        </CharString>
        <CharString name="Hcircumflex">
          91 308 100 294 -20 69 144 hstem
          44.95 530.08 vstem
          257 751 -107 callgsubr
          -168 -753 -18 callsubr
          endchar
        </CharString>
        <CharString name="I">
          131 callsubr
          hstem
          46 188.03 vstem
          90 -2 -83 callgsubr
          endchar
        </CharString>
        <CharString name="IJ">
          107 146 callsubr
          hstem
          46 538 vstem
          90 -2 -83 callgsubr
          244 -5 -63 callgsubr
        </CharString>
        <CharString name="Iacute">
          -248 114 callsubr
          46 252 vstem
          157 758 rmoveto
          -105 callgsubr
          -67 -760 -83 callgsubr
          endchar
        </CharString>
        <CharString name="Iacute_J.loclNLD">
          107 -7 102 607 57 callsubr
          46 599 vstem
          157 758 rmoveto
          -105 callgsubr
          347 hmoveto
          -105 callgsubr
          -414 -760 -83 callgsubr
          244 -5 -63 callgsubr
        </CharString>
        <CharString name="Ibreve">
          131 callsubr
          76 77 hstem
          46 272 vstem
          184 758 -103 callgsubr
          -94 -760 -83 callgsubr
          endchar
        </CharString>
        <CharString name="Icircumflex">
          131 callsubr
          69 144 hstem
          46 253 vstem
          86 751 -107 callgsubr
          4 -753 -83 callgsubr
          endchar
        </CharString>
        <CharString name="Idieresis">
          -248 145 callgsubr
          73 1 callgsubr
          vstem
          114 771 -104 callgsubr
          -165 -773 -83 callgsubr
          endchar
        </CharString>
        <CharString name="Idotaccent">
          -248 145 callgsubr
          135.5 -11 callgsubr
          185 771 -107 callsubr
          -95 -773 -83 callgsubr
          endchar
        </CharString>
        <CharString name="Igrave">
          -248 114 callsubr
          46 188.03 vstem
          201 758 -95 callgsubr
          -111 -760 -83 callgsubr
          endchar
        </CharString>
        <CharString name="Imacron">
          131 callsubr
          100 81 hstem
          46 266.1 vstem
          88 782 -84 callsubr
          2 -784 -83 callgsubr
          endchar
        </CharString>
        <CharString name="Iogonek">
          -248 -174 66 810 -20 hstem
          76 64 vstem
          222 -103 rmoveto
          -2 callsubr
          20 6 30 16 28 hvcurveto
          2 3 1 4 4 vvcurveto
          69 652 72 callgsubr
          -27 121 callgsubr
          -2 hvcurveto
          -69 75 callsubr
          -1 76 callgsubr
          6 hlineto
          -15 -32 -5 -30 -19 -59 callsubr
          endchar
        </CharString>
        <CharString name="Itilde">
          -248 702 136 callsubr
          41 273 hintmask 00000000
          hintmask 10110000
          64 764 7 callgsubr
          hintmask 11010000
          -39 callsubr
          hintmask 10110000
          -2 callgsubr
          35 -769 -83 callgsubr
          endchar
        </CharString>
        <CharString name="J">
          -155 146 callsubr
          hstem
          -25 347 vstem
          72 -7 -63 callgsubr
        </CharString>
        <CharString name="Jcircumflex">
          -155 146 callsubr
          69 144 hstem
          -25 410 vstem
          172 751 -107 callgsubr
          -100 -758 -63 callgsubr
        </CharString>
        <CharString name="K">
          0 137 callsubr
          44.95 488.05 -28 callgsubr
          endchar
        </CharString>
        <CharString name="Kcommaaccent">
          0 137 callsubr
          181 101 -28 callgsubr
          107 -235 -78 callsubr
          endchar
        </CharString>
        <CharString name="L">
          137 callgsubr
          hstem
          46 329 vstem
          74 hmoveto
          -68 callsubr
          endchar
        </CharString>
        <CharString name="Lacute">
          137 callgsubr
          77 152 hstem
          46 329 vstem
          157 759 rmoveto
          -105 callgsubr
          -83 -759 rmoveto
          -68 callsubr
          endchar
        </CharString>
        <CharString name="Lcaron">
          -102 0 100 600 -20 22 -20 hstemhm
          305 102 hintmask 10110000
          74 hmoveto
          -68 callsubr
          257 519 rmoveto
          hintmask 11010000
          -16 callgsubr
          hintmask 10110000
          -14 22 -5 14 vhcurveto
          endchar
        </CharString>
        <CharString name="Lcommaaccent">
          137 callgsubr
          hstem
          149 101 vstem
          74 hmoveto
          -68 callsubr
          90 -237 -78 callsubr
          endchar
        </CharString>
        <CharString name="Ldot">
          -102 0 100 200 119 283 -20 hstemhm
          46 329 -120 115 hintmask 11110000
          74 hmoveto
          -68 callsubr
          hintmask 11101000
          232 300 9 callgsubr
        </CharString>
        <CharString name="Lslash">
          137 callgsubr
          hstem
          44 329.1 vstem
          353 100 rmoveto
          -183 hlineto
          61 576 34 callgsubr
          -25 hlineto
          -34 -14 -38 callgsubr
          -68 -642 rlineto
          -24 -2 8 -10 22 hhcurveto
          270 hlineto
          17 -24 callgsubr
          27 2 -5 12 -17 hhcurveto
          -190 308 rmoveto
          -5 vlineto
          -1 0 0 -1 vhcurveto
          0 1 0 0 vhcurveto
          -1 vlineto
          -23 -12 rlineto
          1 1 0 1 2 vvcurveto
          5 vlineto
          0 0 1 0 vhcurveto
          23 12 rlineto
          -2 -1 1 0 -2 vvcurveto
          endchar
        </CharString>
        <CharString name="M">
          179 137 callsubr
          38.91 631.09 vstem
          329 232 rmoveto
          26 hlineto
          16 8 5 13 8 hvcurveto
          118 190 12 19 11 20 10 20 rlinecurve
          4 -1 -6 -22 -5 -21 -2 -22 rlinecurve
          -43 -409 -1 callgsubr
          21 45 callsubr
          69 2 callgsubr
          -25 hlineto
          -25 -15 -7 -15 -10 hvcurveto
          -173 -279 -10 -16 -7 -16 -5 -16 rlinecurve
          -3 16 -3 16 -6 16 -116 279 rcurveline
          15 -6 -14 7 -25 hhcurveto
          -25 hlineto
          -34 -14 -38 callgsubr
          -68 -652 35 callsubr
          34 hhcurveto
          21 45 callsubr
          43 409 2 22 0 21 -1 22 rlinecurve
          4 1 6 -20 6 -20 8 -19 rlinecurve
          78 -190 rlineto
          -13 6 7 -5 16 hhcurveto
          endchar
        </CharString>
        <CharString name="N">
          80 702 -20 hstem
          38.91 531.09 -67 callsubr
          endchar
        </CharString>
        <CharString name="NULL">
          -510 endchar
        </CharString>
        <CharString name="Nacute">
          80 702 -20 76 152 48 callsubr
          319 758 rmoveto
          -105 callgsubr
          -236 -760 -104 callsubr
          endchar
        </CharString>
        <CharString name="Nacute.loclPLK">
          80 702 -20 76 152 48 callsubr
          327 758 -76 callgsubr
          -244 -760 -104 callsubr
          endchar
        </CharString>
        <CharString name="Ncaron">
          80 702 -20 73 144 48 callsubr
          340 755 -105 callsubr
          -257 -757 -104 callsubr
          endchar
        </CharString>
        <CharString name="Ncommaaccent">
          80 137 callsubr
          217 101 -67 callsubr
          149 -235 -78 callsubr
          endchar
        </CharString>
        <CharString name="Ntilde">
          80 702 136 callsubr
          27 callsubr
          hintmask 00000000
          hintmask 10110000
          213 77 callsubr
          hintmask 11010000
          -95 callsubr
          hintmask 10110000
          -74 callgsubr
          -120 -769 -104 callsubr
          endchar
        </CharString>
        <CharString name="O">
          2 callsubr
          -53 callgsubr
          272 -7 -90 callsubr
        </CharString>
        <CharString name="OE">
          313 -7 100 -93 100 208 100 192 100 -94 101 hstemhm
          49.64 121.6 hintmask 01110100
          806 700 rmoveto
          -298 hlineto
          -22 -10 59 callgsubr
          hintmask 10101100
          -1 -18 rlineto
          42 -33 -46 17 -59 hhcurveto
          -159 -95 -112 -244 -26 hvcurveto
          -246 -26 92 -112 141 hhcurveto
          57 49 17 33 40 hvcurveto
          -1 -9 rlineto
          hintmask 01110100
          -24 -2 8 -10 22 hhcurveto
          299 149 callsubr
          27 2 hvcurveto
          2 22 rlineto
          27 3 -5 12 -17 hhcurveto
          -211 hlineto
          22 208 rlineto
          189 hlineto
          16 10 12 27 2 hvcurveto
          2 22 rlineto
          28 3 50 callsubr
          -189 hlineto
          20 192 rlineto
          211 hlineto
          16 9 12 27 2 128 callsubr
          -16 hhcurveto
          hintmask 10101100
          -362 -349 rmoveto
          -186 -20 -54 -72 -87 hhcurveto
          -81 callgsubr
          endchar
        </CharString>
        <CharString name="Oacute">
          2 callsubr
          51 152 -53 callgsubr
          326 758 rmoveto
          -105 callgsubr
          -54 -765 -90 callsubr
        </CharString>
        <CharString name="Oacute.loclPLK">
          2 callsubr
          51 152 -53 callgsubr
          334 758 -76 callgsubr
          -62 -765 -90 callsubr
        </CharString>
        <CharString name="Obreve">
          2 callsubr
          51 77 -53 callgsubr
          353 758 -103 callgsubr
          -81 -765 -90 callsubr
        </CharString>
        <CharString name="Ocircumflex">
          89 -7 100 513 101 44 144 hstem
          49.7 121.54 277.18001 -49 callsubr
          endchar
        </CharString>
        <CharString name="Odieresis">
          2 callsubr
          64 108 hstemhm
          49.7 121.54 71.76001 1 callgsubr
          -30.08 119.9 hintmask 11111010
          284 771 rmoveto
          33 15 10 -34 callsubr
          6 55 -1 callsubr
          -33 -15 -10 -16 -1 hvcurveto
          -6 -55 rlineto
          -17 -2 13 -10 33 hhcurveto
          hintmask 11111100
          141 hmoveto
          33 15 -23 callsubr
          2 -14 9 -32 hhcurveto
          -33 -15 -10 -16 -1 hvcurveto
          -6 -55 92 callgsubr
          -10 33 hhcurveto
          -153 -778 -39 callgsubr
          hintmask 11111010
          246 26 -92 110 -152 hhcurveto
          -168 -98 -109 -247 -26 hvcurveto
          hintmask 11111100
          32 callsubr
          hintmask 11111010
          187 19 54 68 88 hhcurveto
          87 39 -68 -187 -19 hvcurveto
          hintmask 11111100
          -186 -20 -54 -72 -87 hhcurveto
          endchar
        </CharString>
        <CharString name="Ograve">
          2 callsubr
          51 152 -53 callgsubr
          370 758 -95 callgsubr
          -98 -765 -90 callsubr
        </CharString>
        <CharString name="Ohorn">
          2 callsubr
          -90 36 -7 callgsubr
          hintmask 00000000
          hintmask 10110100
          625 709 rmoveto
          -71 callgsubr
          -22 -14 -12 -21 -15 -14 7 9 -17 vhcurveto
          hintmask 11011000
          -36 callgsubr
          hintmask 10111000
          52 callgsubr
          hintmask 10110100
          98 callsubr
          hintmask 11011000
          -181 -358 rmoveto
          -186 -20 -54 -72 -87 hhcurveto
          -81 callgsubr
          endchar
        </CharString>
        <CharString name="Ohungarumlaut">
          2 callsubr
          51 152 -53 callgsubr
          265 758 -73 callgsubr
          -137 -765 -90 callsubr
        </CharString>
        <CharString name="Omacron">
          2 callsubr
          75 81 -53 callgsubr
          258 782 -84 callsubr
          14 -789 -90 callsubr
        </CharString>
        <CharString name="Oslash">
          2 callsubr
          74 callsubr
          515 631 -49 callgsubr
        </CharString>
        <CharString name="Oslashacute">
          2 callsubr
          51 152 74 callsubr
          322 758 rmoveto
          -105 callgsubr
          193 -127 -49 callgsubr
        </CharString>
        <CharString name="Otilde">
          2 callsubr
          57 122 callgsubr
          -62 callsubr
          hintmask 00000000
          hintmask 11011100
          220 77 callsubr
          hintmask 11101100
          -95 callsubr
          hintmask 11011100
          -74 callgsubr
          62 -774 -90 callsubr
        </CharString>
        <CharString name="P">
          282 99 219 100 hstem
          44.95 442.9 vstem
          90 -2 rmoveto
          23 45 callsubr
          28 258 rlineto
          92 hlineto
          43 140 25 187 20 hvcurveto
          179 18 -115 27 -71 hhcurveto
          -169 hlineto
          -23 -14 callgsubr
          -68 -642 rlineto
          -17 -2 13 -9 34 hhcurveto
          110 383 rmoveto
          23 219 rlineto
          79 hlineto
          34 41 -19 -87 -9 hvcurveto
          -94 -9 -47 -19 -29 hhcurveto
          endchar
        </CharString>
        <CharString name="Q">
          89 606 101 hstem
          48.6 121.35 277.41998 120.24 vstem
          485 -165 rmoveto
          27 35 66 13 3 hvcurveto
          1 7 -3 6 -8 4 -176 80 rcurveline
          4 vlineto
          109 40 69 109 21 186 rrcurveto
          245 26 -85 112 -159 hhcurveto
          -174 -93 -111 -246 -25 hvcurveto
          -19 -181 40 -100 87 -55 rrcurveto
          -46 73 237 -133 14 hhcurveto
          -203 257 rmoveto
          -88 -40 71 187 21 hvcurveto
          186 19 54 70 88 hhcurveto
          86 40 -70 -186 -19 hvcurveto
          -186 -21 -54 -72 -86 hhcurveto
          endchar
        </CharString>
        <CharString name="R">
          116 callgsubr
          hstem
          41 441.78 vstem
          86 -2 -32 callsubr
        </CharString>
        <CharString name="Racute">
          116 callgsubr
          58 152 hstem
          41 441.78 vstem
          278 758 rmoveto
          -105 callgsubr
          -192 -760 -32 callsubr
        </CharString>
        <CharString name="Rcaron">
          116 callgsubr
          55 144 hstem
          41 441.78 vstem
          299 755 -105 callsubr
          -213 -757 -32 callsubr
        </CharString>
        <CharString name="Rcommaaccent">
          116 callgsubr
          hstem
          178 101 vstem
          86 -2 -86 callgsubr
          -86 -629 -78 callsubr
          endchar
        </CharString>
        <CharString name="S">
          96 callsubr
          129 callgsubr
          -27 callsubr
          endchar
        </CharString>
        <CharString name="Sacute">
          100 callsubr
          251 758 rmoveto
          -105 callgsubr
          -73 -764 -97 callsubr
          endchar
        </CharString>
        <CharString name="Sacute.loclPLK">
          100 callsubr
          260 758 -76 callgsubr
          -82 -764 -97 callsubr
          endchar
        </CharString>
        <CharString name="Scaron">
          96 callsubr
          45 144 129 callgsubr
          272 755 -105 callsubr
          -94 -761 -97 callsubr
          endchar
        </CharString>
        <CharString name="Scedilla">
          -73 -211 60 145 101 514 101 hstemhm
          60 118 0 78 28 118 hintmask 11110100
          274 398 rmoveto
          -56 33 -40 31 56 vvcurveto
          57 43 34 62 25 29 -7 -12 29 vhcurveto
          -2 7 8 -4 6 hhcurveto
          19 17 55 20 8 -4 8 -10 6 hvcurveto
          19 -31 -59 10 -47 hhcurveto
          -124 -88 -83 -130 -94 60 -48 72 -44 hvcurveto
          49 -30 43 -29 -57 vvcurveto
          -73 -51 -27 -57 -43 -39 10 25 -36 vhcurveto
          3 -5 -5 3 -5 hhcurveto
          -21 -15 -47 -26 -20 17 -10 17 -8 hvcurveto
          hintmask 11101100
          31 -20 36 -8 41 -3 rrcurveto
          -19 -52 -4 -13 -8 -53 callsubr
          13 48 rlineto
          hintmask 11110100
          127 9 75 81 133 vvcurveto
          92 -56 46 -72 43 vhcurveto
          endchar
        </CharString>
        <CharString name="Scircumflex">
          96 callsubr
          41 144 129 callgsubr
          181 751 -107 callgsubr
          -3 -757 -97 callsubr
          endchar
        </CharString>
        <CharString name="Scommaaccent">
          96 callsubr
          hstemhm
          60 118 -52 101 57 118 hintmask 11101000
          -27 callsubr
          hintmask 11011000
          -37 -231 -78 callsubr
          endchar
        </CharString>
        <CharString name="T">
          -56 600 100 hstem
          53.45 429.07 vstem
          186 -2 -60 callsubr
          endchar
        </CharString>
        <CharString name="Tbar">
          -56 311 82 207 100 hstem
          27 455.52 vstem
          462 700 rmoveto
          -378 hlineto
          -16 -9 -12 -27 -2 hvcurveto
          -3 -22 58 callgsubr
          16 hhcurveto
          130 hlineto
          -22 -207 rlineto
          -124 63 callsubr
          124 hlineto
          -30 -287 rlineto
          -17 -1 12 89 callsubr
          31 287 rlineto
          117 hlineto
          28 3 114 callgsubr
          -119 hlineto
          22 207 rlineto
          129 hlineto
          17 -24 callgsubr
          27 3 -6 12 -17 hhcurveto
          endchar
        </CharString>
        <CharString name="Tcaron">
          -56 600 100 55 144 hstem
          53.45 429.07 vstem
          273 755 -105 callsubr
          -87 -757 -60 callsubr
          endchar
        </CharString>
        <CharString name="Thorn">
          167 99 218 100 118 -20 hstem
          351 120.01 vstem
          84 -2 rmoveto
          25 45 callsubr
          15 143 rlineto
          91 hlineto
          44 140 24 187 20 hvcurveto
          180 19 -116 26 -72 hhcurveto
          -82 hlineto
          10 92 rlineto
          17 1 -13 9 -33 13 callsubr
          75 callsubr
          -3 13 -9 33 hhcurveto
          100 268 rmoveto
          23 218 rlineto
          77 hlineto
          35 41 -19 -87 -9 hvcurveto
          -94 -10 -47 -18 -29 hhcurveto
          endchar
        </CharString>
        <CharString name="U">
          117 callgsubr
          hstemhm
          54 119 hintmask 00000000
          hintmask 11100000
          264 -7 -99 callgsubr
        </CharString>
        <CharString name="Uacute">
          111 callgsubr
          -11 callsubr
          hintmask 11110000
          317 758 rmoveto
          -105 callgsubr
          hintmask 11101000
          -53 -765 -99 callgsubr
        </CharString>
        <CharString name="Ubreve">
          117 callgsubr
          76 77 -11 callsubr
          hintmask 11110000
          345 758 -103 callgsubr
          hintmask 11101000
          -81 -765 -99 callgsubr
        </CharString>
        <CharString name="Ucircumflex">
          117 callgsubr
          69 144 -11 callsubr
          hintmask 11110000
          247 751 -107 callgsubr
          hintmask 11101000
          17 -758 -99 callgsubr
        </CharString>
        <CharString name="Udieresis">
          117 callgsubr
          89 108 hstem
          54 119 61 1 callgsubr
          vstem
          275 771 -104 callgsubr
          -152 -778 -99 callgsubr
        </CharString>
        <CharString name="Ugrave">
          111 callgsubr
          -11 callsubr
          hintmask 11110000
          362 758 -95 callgsubr
          hintmask 11101000
          -98 -765 -99 callgsubr
        </CharString>
        <CharString name="Uhorn">
          117 callgsubr
          hstem
          54 119 406 68 vstem
          647 756 rmoveto
          30 -47 callsubr
          -7 -6 11 callgsubr
          -39 -103 callsubr
          146 92 76 130 14 hvcurveto
          49 468 rlineto
          57 8 25 34 47 vvcurveto
          endchar
        </CharString>
        <CharString name="Uhungarumlaut">
          111 callgsubr
          -11 callsubr
          hintmask 11110000
          257 758 -73 callgsubr
          hintmask 11101000
          -137 -765 -99 callgsubr
        </CharString>
        <CharString name="Umacron">
          117 callgsubr
          100 81 -11 callsubr
          hintmask 11110000
          249 782 -84 callsubr
          hintmask 11101000
          15 -789 -99 callgsubr
        </CharString>
        <CharString name="Uogonek">
          73 -163 66 90 100 609 -20 hstem
          54 119 143 64 vstem
          522 702 rmoveto
          -92 callgsubr
          24 23 2 4 21 hvcurveto
          -12 -28 -4 -26 -17 -59 callsubr
          -2 callsubr
          20 6 29 15 27 hvcurveto
          66 34 40 61 9 82 50 477 rcurveline
          17 1 32 callgsubr
          endchar
        </CharString>
        <CharString name="Uring">
          117 callgsubr
          53 47 87 48 hstem
          54 119 87 48 85 48 vstem
          340 735 -70 callgsubr
          -81 -789 -99 callgsubr
        </CharString>
        <CharString name="Utilde">
          73 -7 100 609 -20 82 70 -35 70 -11 callsubr
          hintmask 00000000
          hintmask 11011000
          212 77 callsubr
          hintmask 11101000
          -95 callsubr
          hintmask 11011000
          -74 callgsubr
          hintmask 11100100
          62 -774 -99 callgsubr
        </CharString>
        <CharString name="V">
          -2 -2 126 578 -20 hstem
          57 481 vstem
          202 -2 rmoveto
          51 hlineto
          23 18 4 14 5 hvcurveto
          235 651 rlineto
          2 7 2 4 5 vvcurveto
          12 1 -14 7 -32 hhcurveto
          -23 hlineto
          -23 -19 -5 -17 -6 hvcurveto
          -166 -496 -16 -60 rlineto
          -3 hlineto
          -2 59 -61 497 rlineto
          17 -2 -18 5 -23 hhcurveto
          -24 hlineto
          -33 -16 -7 -12 -1 hvcurveto
          -1 -5 2 -4 1 -6 101 -652 rcurveline
          -14 2 17 -4 23 hhcurveto
          endchar
        </CharString>
        <CharString name="W">
          242 702 -20 48 callgsubr
          175 -2 -96 callsubr
        </CharString>
        <CharString name="Wacute">
          242 702 -20 76 152 48 callgsubr
          402 758 rmoveto
          -105 callgsubr
          -227 -760 -96 callsubr
        </CharString>
        <CharString name="Wcircumflex">
          242 702 -20 69 144 48 callgsubr
          332 751 -107 callgsubr
          -157 -753 -96 callsubr
        </CharString>
        <CharString name="Wdieresis">
          242 145 callgsubr
          319 1 callgsubr
          vstem
          360 771 -104 callgsubr
          -326 -773 -96 callsubr
        </CharString>
        <CharString name="Wgrave">
          242 702 -20 76 152 48 callgsubr
          447 758 -95 callgsubr
          -272 -760 -96 callsubr
        </CharString>
        <CharString name="X">
          -4 137 callsubr
          -11 536 vstem
          37 -2 rmoveto
          28 hlineto
          23 17 1 16 8 hvcurveto
          144 267 82 -267 rlineto
          -14 4 17 -3 23 hhcurveto
          30 hlineto
          34 16 6 12 1 hvcurveto
          1 6 -3 6 -3 9 -123 327 rcurveline
          180 299 rlineto
          5 9 4 7 5 vvcurveto
          12 2 -16 6 -34 hhcurveto
          -28 hlineto
          -23 -17 -2 -15 -8 hvcurveto
          -127 -239 -69 239 rlineto
          15 -4 -18 2 -21 hhcurveto
          -32 hlineto
          -35 -16 -7 -11 -1 hvcurveto
          -6 3 -7 3 -8 vhcurveto
          112 -296 -197 -330 -5 -10 -4 -6 -1 -5 rlinecurve
          -12 -1 14 -6 35 hhcurveto
          endchar
        </CharString>
        <CharString name="Y">
          -26 137 callsubr
          56 460 vstem
          202 -2 -91 callsubr
          endchar
        </CharString>
        <CharString name="Y.loclGUA">
          23 callgsubr
          hstemhm
          37 450 -421 113 hintmask 11110000
          441 702 -9 callgsubr
          hintmask 11101000
          -97 callgsubr
          hintmask 11110000
          85 callgsubr
        </CharString>
        <CharString name="Yacute">
          -26 114 callsubr
          56 460 vstem
          267 758 rmoveto
          -105 callgsubr
          -65 -760 -91 callsubr
          endchar
        </CharString>
        <CharString name="Yacute.loclGUA">
          23 callgsubr
          76 152 hstemhm
          37 450 -421 113 hintmask 11111000
          275 758 rmoveto
          -105 callgsubr
          166 -56 -9 callgsubr
          hintmask 11110100
          -97 callgsubr
          hintmask 11111000
          85 callgsubr
        </CharString>
        <CharString name="Ycircumflex">
          -26 702 -20 69 144 hstem
          56 460 vstem
          197 751 -107 callgsubr
          5 -753 -91 callsubr
          endchar
        </CharString>
        <CharString name="Ycircumflex.loclGUA">
          23 callgsubr
          69 144 hstemhm
          37 450 -421 113 hintmask 11111000
          205 751 -107 callgsubr
          236 -49 -9 callgsubr
          hintmask 11110100
          -97 callgsubr
          hintmask 11111000
          85 callgsubr
        </CharString>
        <CharString name="Ydieresis">
          -26 145 callgsubr
          184 1 callgsubr
          vstem
          225 771 -104 callgsubr
          -164 -773 -91 callsubr
          endchar
        </CharString>
        <CharString name="Ydieresis.loclGUA">
          23 callgsubr
          89 108 hstemhm
          66 113 13 1 callgsubr
          hintmask 11110110
          233 771 -104 callgsubr
          67 -69 -9 callgsubr
          hintmask 11111110
          -97 callgsubr
          hintmask 11110110
          85 callgsubr
        </CharString>
        <CharString name="Ygrave">
          -26 114 callsubr
          56 460 vstem
          312 758 -95 callgsubr
          -110 -760 -91 callsubr
          endchar
        </CharString>
        <CharString name="Ygrave.loclGUA">
          23 callgsubr
          76 152 hstemhm
          37 450 -421 113 hintmask 11111000
          319 758 -95 callgsubr
          122 -56 -9 callgsubr
          hintmask 11110100
          -97 callgsubr
          hintmask 11111000
          85 callgsubr
        </CharString>
        <CharString name="Z">
          -3 120 callsubr
          hstem
          8 499 vstem
          31 -51 callsubr
          endchar
        </CharString>
        <CharString name="Zacute">
          -3 120 callsubr
          58 152 hstem
          8 499 vstem
          281 758 rmoveto
          -105 callgsubr
          -250 -758 rmoveto
          -89 callgsubr
          endchar
        </CharString>
        <CharString name="Zacute.loclPLK">
          -3 120 callsubr
          58 152 hstem
          8 499 vstem
          289 758 -76 callgsubr
          -258 -758 rmoveto
          -89 callgsubr
          endchar
        </CharString>
        <CharString name="Zcaron">
          -3 120 callsubr
          55 144 hstem
          8 499 vstem
          302 755 -105 callsubr
          -271 -755 rmoveto
          -89 callgsubr
          endchar
        </CharString>
        <CharString name="Zdotaccent">
          -3 120 callsubr
          71 108 hstem
          260.5 -11 callgsubr
          310 771 -107 callsubr
          -279 -771 rmoveto
          -89 callgsubr
          endchar
        </CharString>
        <CharString name="a">
          -22 callgsubr
          -65 callgsubr
          hintmask 11011000
          166 -8 -88 callgsubr
          hintmask 10111000
          -79 callgsubr
          hintmask 11011000
          -93 callgsubr
        </CharString>
        <CharString name="aacute">
          -22 callgsubr
          76 84 callgsubr
          hintmask 11011100
          242 581 rmoveto
          -105 callgsubr
          -76 -589 -100 callgsubr
        </CharString>
        <CharString name="abreve">
          -22 callgsubr
          76 77 -65 callgsubr
          hintmask 11011100
          269 581 -103 callgsubr
          -103 -589 -100 callgsubr
        </CharString>
        <CharString name="acircumflex">
          -22 callgsubr
          69 144 -65 callgsubr
          hintmask 11011100
          172 574 -107 callgsubr
          -6 -582 -100 callgsubr
        </CharString>
        <CharString name="acute">
          -254 119 callsubr
          44 166 vstem
          69 581 rmoveto
          -105 callgsubr
          endchar
        </CharString>
        <CharString name="acute.loclPLK">
          -254 119 callsubr
          49 142 vstem
          77 581 -76 callgsubr
          endchar
        </CharString>
        <CharString name="acutecomb">
          -510 119 callsubr
          -9 166 vstem
          16 581 rmoveto
          -105 callgsubr
          endchar
        </CharString>
        <CharString name="adieresis">
          -22 callgsubr
          89 108 -58 callgsubr
          9.12 94 34 111 -97 93.5 hintmask 00000000
          hintmask 11011101
          200 594 -104 callgsubr
          hintmask 10111010
          -175 -602 rmoveto
          -57 callsubr
          hintmask 11011010
          -69 callsubr
          hintmask 10111010
          -132 -14 26 -142 114 hhcurveto
          40 94 rmoveto
          -57 -5 93 88 10 hvcurveto
          hintmask 11011000
          111 12 29 60 61 hhcurveto
          32 18 -17 -14 13 hvcurveto
          -3 -15 -3 -20 -3 -23 -17 -165 rcurveline
          hintmask 10111010
          64 callgsubr
        </CharString>
        <CharString name="ae">
          154 -7 92 -92 96 133 83 133 92 62 callgsubr
          hintmask 00000000
          hintmask 01111010
          148 -7 rmoveto
          61 53 25 34 33 hvcurveto
          hintmask 10111110
          -24 callsubr
          hintmask 01111010
          -99 -10 61 -58 83 hhcurveto
          hintmask 01111110
          9 callsubr
        </CharString>
        <CharString name="aeacute">
          154 -7 92 -92 96 133 83 133 138 callsubr
          62 callgsubr
          hintmask 10111001
          341 581 rmoveto
          -105 callgsubr
          hintmask 01111101
          -193 -588 rmoveto
          61 53 25 34 33 hvcurveto
          hintmask 10111111
          -24 callsubr
          hintmask 01111101
          -99 -10 61 -58 83 hhcurveto
          hintmask 01111111
          9 callsubr
        </CharString>
        <CharString name="agrave">
          -22 callgsubr
          76 84 callgsubr
          hintmask 11011100
          286 581 -95 callgsubr
          -120 -589 -100 callgsubr
        </CharString>
        <CharString name="amacron">
          -22 callgsubr
          100 81 -65 callgsubr
          hintmask 11011100
          174 605 -84 callsubr
          -8 -613 -100 callgsubr
        </CharString>
        <CharString name="ampersand">
          10 -7 92 239 92 199 92 hstemhm
          14 116 -63 114 120 116 hintmask 11101100
          488 416 rmoveto
          -42 hlineto
          10 100 rlineto
          18 2 -10 9 -27 hhcurveto
          -23 hlineto
          -26 -16 -9 -18 -3 hvcurveto
          -22 -100 rlineto
          -77 hlineto
          -54 -24 54 50 5 hvcurveto
          43 5 20 52 52 20 14 -8 6 hhcurveto
          13 18 40 24 2 hvcurveto
          27 3 -49 9 -35 hhcurveto
          -99 -72 -61 -110 -12 hvcurveto
          -8 -72 25 -52 43 -23 rrcurveto
          -4 vlineto
          hintmask 11110100
          -64 -22 -39 -65 -10 -95 rrcurveto
          -144 -15 70 -66 105 hhcurveto
          56 45 18 24 45 hvcurveto
          -32 18 28 -10 37 hhcurveto
          25 50 3 35 4 hvcurveto
          8 1 -4 50 -15 -5 -6 -4 -13 hhcurveto
          -19 -8 13 47 4 hvcurveto
          20 179 rlineto
          41 hlineto
          16 12 callsubr
          1 14 rlineto
          hintmask 11101100
          27 3 58 callsubr
          hintmask 11110100
          -358 -211 rmoveto
          86 9 32 33 68 hhcurveto
          83 hlineto
          -21 -193 -1 -6 0 -5 1 -6 rlinecurve
          -18 -40 -30 -11 -32 hhcurveto
          -47 -31 31 89 9 hvcurveto
          endchar
        </CharString>
        <CharString name="aogonek">
          -29 -187 66 113 94 -90 -20 462 92 -5 -20 -65 callgsubr
          -77 64 hintmask 10110101
          467 -116 rmoveto
          -2 callsubr
          19 6 29 15 28 hvcurveto
          hintmask 10101110
          30 9 16 23 34 vvcurveto
          12 -3 13 -9 vhcurveto
          -6 -6 -3 -10 hhcurveto
          -13 -8 8 29 1 hvcurveto
          6 54 12 113 10 100 rrcurveto
          -79 callgsubr
          hintmask 11010110
          -69 callsubr
          -132 -14 26 -142 114 hhcurveto
          49 42 26 58 30 hvcurveto
          hintmask 10110110
          5 -51 26 -22 30 -7 rrcurveto
          hintmask 10110101
          -21 -35 -6 -36 -21 -59 callsubr
          -157 465 rmoveto
          hintmask 11010101
          -17 -165 rlineto
          -68 -21 -33 -30 -33 hhcurveto
          -57 -5 93 88 10 hvcurveto
          111 12 29 60 61 hhcurveto
          32 18 -17 -14 13 hvcurveto
          hintmask 10110101
          -3 -15 -3 -20 -3 -23 rrcurveto
          endchar
        </CharString>
        <CharString name="approxequal">
          -72 94 67 -29 67 69 67 -30 68 hstemhm
          38 365 hintmask 01101000
          220 288 rmoveto
          -10 30 30 -10 25 hhcurveto
          44 32 23 46 18 hvcurveto
          3 6 1 5 3 vvcurveto
          6 -3 6 -8 4 vhcurveto
          -8 4 -17 9 -7 -8 -12 -14 rlinecurve
          -17 -14 -12 -6 -13 hhcurveto
          -21 -26 9 9 -26 hvcurveto
          hintmask 01011000
          93 callsubr
          -6 3 -6 8 -3 vhcurveto
          9 -5 16 -9 7 9 13 13 rlinecurve
          17 13 12 6 14 hhcurveto
          hintmask 01101000
          20 26 -9 -8 26 hvcurveto
          -14 -174 rmoveto
          hintmask 10101000
          -10 29 31 -10 24 hhcurveto
          44 32 23 46 19 hvcurveto
          3 6 1 5 4 vvcurveto
          -1 5 -3 6 -8 4 -8 4 rcurveline
          -17 9 -7 -8 -12 -14 rrcurveto
          -17 -14 -12 -6 -13 hhcurveto
          -21 -25 9 9 -27 hvcurveto
          hintmask 01101000
          93 callsubr
          1 -6 3 -5 7 -4 9 -5 rcurveline
          16 -9 7 9 13 13 rrcurveto
          17 13 13 7 13 hhcurveto
          21 25 -10 -8 27 hvcurveto
          endchar
        </CharString>
        <CharString name="aring">
          -22 callgsubr
          53 47 87 48 -58 callgsubr
          35.12 48 54 111 -80 48 hintmask 0000000000000000
          hintmask 1101111010000000
          265 558 -70 callgsubr
          -104 -613 rmoveto
          hintmask 1010111100000000
          -57 callsubr
          hintmask 1100110100000000
          -69 callsubr
          hintmask 1101111010000000
          -132 -14 26 -142 114 hhcurveto
          40 94 rmoveto
          -57 -5 93 88 10 hvcurveto
          hintmask 1100110000000000
          111 12 29 60 61 hhcurveto
          32 18 -17 -14 13 hvcurveto
          -3 -15 -3 -20 -3 -23 -17 -165 rcurveline
          hintmask 1101111010000000
          64 callgsubr
        </CharString>
        <CharString name="aringacute">
          -22 callgsubr
          53 47 87 48 31 152 -58 callgsubr
          35.12 48 54 111 -80 48 hintmask 1100111000000000
          284 771 rmoveto
          -105 callgsubr
          hintmask 1101111101000000
          -19 -213 -70 callgsubr
          -104 -613 rmoveto
          hintmask 1010111110000000
          -57 callsubr
          hintmask 1100111010000000
          -69 callsubr
          hintmask 1101111101000000
          -132 -14 26 -142 114 hhcurveto
          40 94 rmoveto
          -57 -5 93 88 10 hvcurveto
          hintmask 1100111000000000
          111 12 29 60 61 hhcurveto
          32 18 -17 -14 13 hvcurveto
          -3 -15 -3 -20 -3 -23 -17 -165 rcurveline
          hintmask 1101111101000000
          64 callgsubr
        </CharString>
        <CharString name="arrowdown">
          19 708 -20 hstem
          16.93 502.07 vstem
          499 334 rmoveto
          -207 -189 57 537 rlineto
          17 2 -10 9 -25 hhcurveto
          -14 hlineto
          -26 -11 -38 callgsubr
          -56 -534 -160 183 -10 11 -10 -2 -2 -18 rlinecurve
          -7 -64 -3 -21 3 -7 13 -13 rlinecurve
          189 -213 rlineto
          5 -6 4 -1 8 9 4 2 6 hflex1
          235 213 15 14 4 9 2 19 rlinecurve
          7 66 1 13 -10 6 -11 -10 rlinecurve
          endchar
        </CharString>
        <CharString name="arrowleft">
          90 217 86 226 -20 hstem
          2 594 vstem
          573 303 rmoveto
          -425 hlineto
          181 198 rlineto
          16 15 0 12 -24 hhcurveto
          -58 hlineto
          -18 -12 -5 -13 -12 hvcurveto
          -210 -229 rlineto
          -6 -5 -2 -5 -7 vvcurveto
          -1 -9 1 -4 4 -6 162 -228 rcurveline
          -13 9 11 -5 18 hhcurveto
          53 hlineto
          21 4 12 17 -12 hvcurveto
          -134 188 rlineto
          427 hlineto
          17 10 11 25 2 hvcurveto
          2 14 rlineto
          25 2 -8 11 -17 hhcurveto
          endchar
        </CharString>
        <CharString name="arrowright">
          90 226 86 217 -20 hstem
          1.77 594.23 vstem
          591 283 rmoveto
          -162 228 rlineto
          13 -9 -11 5 -18 hhcurveto
          -52 hlineto
          -21 -5 -12 -17 12 hvcurveto
          134 -188 rlineto
          -426 hlineto
          -17 -10 -11 -25 -3 hvcurveto
          -1 -14 rlineto
          -26 -3 8 -10 17 hhcurveto
          425 hlineto
          -180 -198 rlineto
          -17 -15 0 -11 24 hhcurveto
          58 hlineto
          18 12 5 13 11 hvcurveto
          210 229 6 5 2 5 1 6 rlinecurve
          1 10 -1 4 -5 6 rrcurveto
          endchar
        </CharString>
        <CharString name="arrowup">
          -5 701 -20 hstem
          17 502.47 vstem
          505 488 rmoveto
          -189 213 rlineto
          -5 6 -4 1 -8 -9 -4 -2 -6 hflex1
          -235 -213 -15 -14 -4 -8 -1 -19 rlinecurve
          -8 -66 -1 -14 10 -6 11 11 rlinecurve
          207 188 -57 -537 rlineto
          -17 -2 10 -9 26 hhcurveto
          13 hlineto
          26 12 9 17 1 hvcurveto
          57 534 159 -183 10 -11 10 2 2 18 rlinecurve
          8 64 2 22 -3 6 -13 13 rlinecurve
          endchar
        </CharString>
        <CharString name="asciicircum">
          -150 319 366 hstem
          37 302.25 vstem
          338 352 rmoveto
          -71 309 rlineto
          18 -4 -10 6 -16 hhcurveto
          -25 hlineto
          -15 -12 -6 -18 -8 hvcurveto
          -136 -309 -2 -5 -1 -5 -1 -4 rlinecurve
          -12 -1 7 -7 17 hhcurveto
          17 hlineto
          20 13 8 18 8 hvcurveto
          99 245 43 -245 rlineto
          -18 3 14 -8 20 hhcurveto
          15 hlineto
          18 8 7 12 1 hvcurveto
          1 4 -1 5 -1 5 rrcurveto
          endchar
        </CharString>
        <CharString name="asciitilde">
          -73 222 67 -29 67 hstemhm
          44 351 hintmask 10100000
          296 222 rmoveto
          45 31 24 45 19 hvcurveto
          3 6 1 5 4 vvcurveto
          -1 6 -3 5 -8 4 -8 5 rcurveline
          -16 9 -8 -9 -12 -13 rrcurveto
          -17 -13 -13 -7 -13 hhcurveto
          -21 -25 10 8 -27 hvcurveto
          hintmask 01100000
          10 -29 -31 10 -24 hhcurveto
          -44 -32 -23 -46 -19 hvcurveto
          -3 -6 -1 -5 -4 vvcurveto
          1 -6 3 -5 8 -4 8 -4 rcurveline
          17 -10 7 9 12 13 rrcurveto
          18 14 12 6 13 hhcurveto
          21 25 -9 -9 27 hvcurveto
          hintmask 10100000
          -10 29 31 -10 24 hhcurveto
          endchar
        </CharString>
        <CharString name="asterisk">
          -211 426 283 hstem
          163.5 48 vstem
          95 426 rmoveto
          6 8 3 9 6 hvcurveto
          59 80 43 -80 rlineto
          -8 4 7 -4 6 hhcurveto
          11 17 11 11 2 hvcurveto
          1 5 -2 5 -4 7 -45 86 rcurveline
          78 28 rlineto
          12 5 6 5 1 9 2 17 -9 12 0 flex1
          -4 -4 0 -3 -7 hvcurveto
          -70 -25 9 85 rlineto
          17 2 -6 8 -17 hhcurveto
          -17 -9 -8 -17 -1 hvcurveto
          -9 -85 -66 25 rlineto
          3 -5 -5 0 -3 hhcurveto
          -14 -10 -15 -14 -2 hvcurveto
          -1 -9 6 -5 11 -5 70 -28 rcurveline
          -62 -86 rlineto
          -5 -7 -3 -5 -5 vvcurveto
          -11 -2 15 -11 12 hhcurveto
          endchar
        </CharString>
        <CharString name="at">
          282 -125 49 132 66 -66 78 295 77 152 48 hstemhm
          55 58 101 95 360 58 hintmask 11011111
          442 706 rmoveto
          -219 -168 -205 -263 -215 112 -148 164 44 99 11 39 19 -5 9 -9 hvcurveto
          -18 -32 -29 -74 hhcurveto
          -134 -89 126 186 238 144 184 182 137 93 -108 -171 -135 -54 -122 -58 -12 -19 6 30 hvcurveto
          28 26 284 10 vvcurveto
          13 -8 9 -25 vhcurveto
          -8 hlineto
          -27 -4 -8 -31 -10 hvcurveto
          18 -15 -31 25 -42 hhcurveto
          -101 -67 -110 -159 hvcurveto
          hintmask 10111111
          -134 60 -47 56 43 38 24 45 23 vhcurveto
          hintmask 11011111
          -43 9 32 -26 50 hhcurveto
          118 84 144 178 200 -114 128 -171 hvcurveto
          hintmask 10111111
          -7 -496 rmoveto
          -56 -20 -29 -20 -23 hhcurveto
          -31 -23 25 85 103 23 82 68 24 18 -13 -12 12 hvcurveto
          -9 -41 -7 -102 -3 -51 rrcurveto
          endchar
        </CharString>
        <CharString name="atilde">
          -22 callgsubr
          82 70 -35 70 -65 callgsubr
          hintmask 00000000
          hintmask 11001100
          136 21 callsubr
          hintmask 11010100
          -95 callsubr
          hintmask 10101110
          -74 callgsubr
          40 -598 rmoveto
          -57 callsubr
          hintmask 11010110
          -69 callsubr
          hintmask 10101110
          -132 -14 26 -142 114 hhcurveto
          40 94 rmoveto
          -57 -5 93 88 10 hvcurveto
          hintmask 11010100
          111 12 29 60 61 hhcurveto
          32 18 -17 -14 13 hvcurveto
          -3 -15 -3 -20 -3 -23 -17 -165 rcurveline
          hintmask 10101110
          64 callgsubr
        </CharString>
        <CharString name="b">
          -7 94 350 93 223 -20 hstem
          322.55 116.53 vstem
          252 -7 rmoveto
          93 73 103 167 18 hvcurveto
          172 17 -54 95 -101 hhcurveto
          -45 -31 -19 -23 -25 hvcurveto
          26 239 34 callgsubr
          -19 24 callsubr
          -74 -703 rlineto
          -17 -2 13 -9 31 hhcurveto
          9 hlineto
          22 15 3 15 6 hvcurveto
          14 50 rlineto
          -46 23 39 -27 46 hhcurveto
          -23 94 rmoveto
          -28 -24 21 33 -16 hvcurveto
          28 264 rlineto
          21 20 24 11 26 hhcurveto
          53 20 -52 -121 -13 hvcurveto
          -119 -12 -30 -58 -48 hhcurveto
          endchar
        </CharString>
        <CharString name="backslash">
          -221 137 callsubr
          55 211 vstem
          211 -21 rmoveto
          23 hlineto
          19 11 8 12 2 hvcurveto
          4 -1 5 13 vvcurveto
          -122 656 rlineto
          17 -3 -12 8 -20 hhcurveto
          -22 hlineto
          -19 -10 -8 -12 -2 hvcurveto
          -4 0 -3 2 -14 vhcurveto
          121 -657 rlineto
          -17 2 12 -8 19 hhcurveto
          endchar
        </CharString>
        <CharString name="bar">
          -310 -139 908 hstem
          19 173 vstem
          159 769 rmoveto
          -12 hlineto
          -25 -11 -8 -13 callgsubr
          -90 -858 rlineto
          -17 -2 10 -8 25 hhcurveto
          12 hlineto
          25 11 8 -34 callsubr
          90 858 rlineto
          17 2 -10 8 -25 hhcurveto
          endchar
        </CharString>
        <CharString name="baraccent">
          -193 278 103 callsubr
          278 -84 callsubr
          endchar
        </CharString>
        <CharString name="baraccentlong">
          7 278 82 hstem
          -68 656 vstem
          567 360 rmoveto
          -605 63 callsubr
          605 hlineto
          28 2 114 callgsubr
          endchar
        </CharString>
        <CharString name="baraccentmedium">
          -93 278 82 hstem
          1 413 vstem
          393 360 rmoveto
          -362 63 callsubr
          361 hlineto
          28 3 114 callgsubr
          endchar
        </CharString>
        <CharString name="braceleft">
          -261 -138 76 754 76 hstemhm
          55 92 -70.66 90.66 hintmask 00000000
          hintmask 11100000
          130 -138 rmoveto
          42 hlineto
          17 9 10 24 2 hvcurveto
          1 8 rlineto
          24 3 -6 10 -16 hhcurveto
          -10 hlineto
          -24 -5 18 33 4 hvcurveto
          hintmask 11010000
          20 186 8 82 -37 44 -22 13 rlinecurve
          27 16 44 45 9 80 20 187 rcurveline
          33 3 9 17 25 hhcurveto
          8 hlineto
          16 8 11 23 3 hvcurveto
          8 vlineto
          24 3 -7 10 -17 hhcurveto
          -42 hlineto
          -40 -50 -33 -83 -9 hvcurveto
          -19 -181 -6 -59 -11 -34 -35 -15 rlinecurve
          -19 -9 -11 -11 -2 -21 -1 -14 rcurveline
          -2 -21 8 -11 16 -9 32 -15 4 -35 -6 -58 rrcurveto
          hintmask 11100000
          -19 -181 rlineto
          -84 -9 44 -32 40 hhcurveto
          endchar
        </CharString>
        <CharString name="braceright">
          -261 -138 76 754 76 hstemhm
          97 89.65 -70.65 92 hintmask 11100000
          -4 -138 rmoveto
          42 hlineto
          40 50 32 84 9 hvcurveto
          19 181 6 58 11 35 36 15 rlinecurve
          18 9 11 11 2 21 1 14 rcurveline
          3 21 -9 11 -16 9 -32 15 -4 34 6 59 rrcurveto
          hintmask 11010000
          19 181 rlineto
          83 9 -44 33 -40 hhcurveto
          -42 hlineto
          -17 -8 59 callgsubr
          -8 vlineto
          -23 -3 6 -11 16 hhcurveto
          8 hlineto
          25 4 -17 -33 -3 hvcurveto
          hintmask 11100000
          -19 -187 -9 -80 37 -45 23 -16 rlinecurve
          -26 -13 -47 -44 -8 -82 -19 -186 rcurveline
          -33 -4 -8 -18 -23 hhcurveto
          -10 hlineto
          -16 -8 30 callsubr
          -8 rlineto
          -24 -2 6 -10 17 hhcurveto
          endchar
        </CharString>
        <CharString name="bracketleft">
          155 callgsubr
          247.1 vstem
          29 -138 rmoveto
          104 139 callsubr
          3 -6 9 -17 hhcurveto
          -45 hlineto
          79 753 rlineto
          45 139 callsubr
          2 -5 10 -17 hhcurveto
          -104 hlineto
          -22 -10 59 callgsubr
          -88 -838 rlineto
          -24 -2 8 -10 22 hhcurveto
          endchar
        </CharString>
        <CharString name="bracketright">
          155 callgsubr
          247 vstem
          21 -138 rmoveto
          104 hlineto
          22 10 10 24 3 hvcurveto
          88 838 rlineto
          24 2 -8 10 -22 hhcurveto
          -104 hlineto
          -16 -8 -10 134 callsubr
          47 hlineto
          -79 -753 rlineto
          -47 hlineto
          -16 -8 -9 134 callsubr
          endchar
        </CharString>
        <CharString name="breve">
          -254 581 77 hstem
          48.67 245.33 vstem
          160 581 -103 callgsubr
          endchar
        </CharString>
        <CharString name="brokenbar">
          -310 -140 910 hstem
          19 173 vstem
          159 770 rmoveto
          -12 hlineto
          -25 -11 -38 callgsubr
          -11 -109 -23 -207 -11 vvcurveto
          -16 9 -8 24 vhcurveto
          12 hlineto
          24 12 36 callgsubr
          11 109 23 206 10 vvcurveto
          16 -7 10 -26 vhcurveto
          -55 -534 rmoveto
          -13 hlineto
          -25 -11 -38 callgsubr
          -11 -108 -23 -203 -13 vvcurveto
          -17 7 -9 26 vhcurveto
          12 hlineto
          25 11 36 callgsubr
          11 108 23 205 11 vvcurveto
          17 -7 9 -25 vhcurveto
          endchar
        </CharString>
        <CharString name="bullet">
          -212 199 255 hstem
          37.25 237.48 vstem
          143 199 rmoveto
          64 57 40 87 10 hvcurveto
          87 9 -49 41 -65 hhcurveto
          -64 -58 -41 -87 -9 hvcurveto
          -87 -9 49 -40 65 hhcurveto
          endchar
        </CharString>
        <CharString name="c">
          135 callsubr
          78 callsubr
          224 -7 -80 callgsubr
        </CharString>
        <CharString name="cacute">
          135 callsubr
          51 152 78 callsubr
          240 581 rmoveto
          -105 callgsubr
          -16 -588 -80 callgsubr
        </CharString>
        <CharString name="cacute.loclPLK">
          135 callsubr
          51 152 78 callsubr
          248 581 -76 callgsubr
          -24 -588 -80 callgsubr
        </CharString>
        <CharString name="caron">
          -254 578 144 hstem
          57 231 vstem
          153 578 -105 callsubr
          endchar
        </CharString>
        <CharString name="caron.alt">
          -254 700 -20 hstem
          82 102 vstem
          108 519 rmoveto
          -16 callgsubr
          -14 22 -5 14 vhcurveto
          endchar
        </CharString>
        <CharString name="ccaron">
          135 callsubr
          48 144 78 callsubr
          261 578 -105 callsubr
          -37 -585 -80 callgsubr
        </CharString>
        <CharString name="ccedilla">
          -102 -211 60 145 91 353 92 hstem
          37.47 117.44 65.09 78 vstem
          280 530 rmoveto
          -131 -88 -73 -195 -20 hvcurveto
          -18 -172 51 -83 117 -12 rrcurveto
          -19 -53 -4 -13 -8 -53 callsubr
          13 48 54 5 70 25 3 28 rlinecurve
          17 2 -16 45 -17 hhcurveto
          -3 -6 -4 -4 -7 hvcurveto
          -8 -17 -26 -13 -38 hhcurveto
          -71 -25 51 128 13 hvcurveto
          127 14 40 47 67 hhcurveto
          34 24 -14 -8 13 hvcurveto
          -3 6 4 -3 4 hhcurveto
          15 27 46 18 2 hvcurveto
          30 3 -66 26 -65 hhcurveto
          endchar
        </CharString>
        <CharString name="ccircumflex">
          135 callsubr
          44 144 78 callsubr
          170 574 -107 callgsubr
          54 -581 -80 callgsubr
        </CharString>
        <CharString name="cdotaccent">
          135 callsubr
          64 108 53 callsubr
          64.59001 -11 callgsubr
          269 -82 callsubr
          -45 -601 -80 callgsubr
        </CharString>
        <CharString name="cedilla">
          -254 -211 60 hstem
          145 78 vstem
          153 -54 rmoveto
          17 58 rlineto
          -51 hlineto
          -21 -61 -5 -14 -8 -31 callsubr
          -33 3 hvcurveto
          endchar
        </CharString>
        <CharString name="cent">
          -70 5 callsubr
          -2 -20 22 -20 hstemhm
          37.42 117.26 27.32 50 14 49 hintmask 00011010
          291 530 rmoveto
          hintmask 10101010
          4 34 rlineto
          14 -4 6 -14 vhcurveto
          -9 hlineto
          -13 -6 -6 -14 -1 hvcurveto
          -4 -36 -111 -13 -74 -76 -18 -177 rlinecurve
          -18 -171 50 -82 114 -14 rrcurveto
          hintmask 11001110
          -5 -48 rlineto
          -14 3 -6 15 vhcurveto
          9 hlineto
          12 7 7 13 2 hvcurveto
          4 46 55 4 77 26 3 29 rlinecurve
          17 2 -16 45 -17 hhcurveto
          -3 -6 -4 -4 -7 hvcurveto
          -8 -17 -25 -13 -36 hhcurveto
          38 353 33 -1 22 -13 13 -8 rlinecurve
          -3 6 4 -3 4 hhcurveto
          15 27 46 18 2 hvcurveto
          hintmask 00011010
          3 28 -58 25 -62 3 rrcurveto
          -133 -266 rmoveto
          10 95 25 50 40 20 -35 -335 rcurveline
          -38 20 -12 53 10 97 rrcurveto
          endchar
        </CharString>
        <CharString name="circumflex">
          -254 574 144 hstem
          44 232 vstem
          63 574 -107 callgsubr
          endchar
        </CharString>
        <CharString name="colon">
          -322 -2 130 267 130 hstemhm
          14 118 -77 118 hintmask 00000000
          hintmask 11010000
          95 395 rmoveto
          25 hlineto
          33 -41 callsubr
          8 78 rlineto
          17 3 -13 9 -33 hhcurveto
          -24 hlineto
          -34 -14 156 callsubr
          -8 -78 rlineto
          -17 -1 76 callgsubr
          hintmask 11100000
          -41 -397 -5 callsubr
          endchar
        </CharString>
        <CharString name="comma">
          -322 -120 248 hstem
          -36 164.03 vstem
          -3 -120 rmoveto
          34 84 139 callgsubr
          -15 hlineto
          -32 60 callgsubr
        </CharString>
        <CharString name="commaaccentinvert">
          -157 581 186 hstem
          106 100 vstem
          192 767 rmoveto
          144 callgsubr
          27 hvcurveto
          15 hlineto
          32 14 14 23 hvcurveto
          78 21 32 21 vvcurveto
          14 -21 4 -14 vhcurveto
          endchar
        </CharString>
        <CharString name="copyright">
          82 -6 55 95 57 299 58 96 55 hstem
          19 57 93 68 298 -4 callsubr
          10 95 rmoveto
          38 62 20 24 8 -12 32 -14 hvcurveto
          -6 -24 -27 -44 hhcurveto
          -54 -25 48 102 102 25 47 55 hvcurveto
          44 18 -23 5 hhcurveto
          11 17 30 13 19 -53 19 -41 -99 -50 -69 -138 -142 47 -65 100 hvcurveto
          endchar
        </CharString>
        <CharString name="currency">
          -48 116 84 216 84 hstem
          69 84 160 85 vstem
          77 112 rmoveto
          8 8 3 8 8 hvcurveto
          25 23 rlineto
          -19 24 30 -11 33 hhcurveto
          34 32 11 20 28 hvcurveto
          21 -24 rlineto
          -8 6 8 -3 7 hhcurveto
          8 7 4 6 7 hvcurveto
          15 14 7 6 6 9 1 7 rlinecurve
          7 -3 8 -6 7 vhcurveto
          -26 30 17 29 12 33 4 36 rlinecurve
          4 36 -6 33 -12 30 35 31 rcurveline
          9 8 4 8 7 vvcurveto
          1 7 -3 7 -6 7 -12 14 rcurveline
          7 -6 -8 3 -7 hhcurveto
          -7 -8 -4 -7 -8 hvcurveto
          -29 -26 rlineto
          19 -23 -29 12 -34 hhcurveto
          -33 -31 -12 -19 -27 hvcurveto
          -23 26 rlineto
          8 -7 -7 4 -8 hhcurveto
          -7 -8 -4 -6 -7 hvcurveto
          -16 -16 -7 -6 -3 -8 -1 -6 rlinecurve
          -1 -8 3 -8 7 -7 27 -30 rcurveline
          -19 -29 -12 -35 -4 -36 -4 -37 5 -33 13 -29 -32 -29 rcurveline
          -9 -7 -5 -8 -1 -8 rrcurveto
          -7 2 -7 6 -6 vhcurveto
          13 -15 rlineto
          -7 7 7 -3 6 hhcurveto
          145 88 rmoveto
          -44 -33 37 71 8 hvcurveto
          70 7 40 38 45 hhcurveto
          44 31 -38 -70 -7 hvcurveto
          -71 -8 -39 -37 -44 hhcurveto
          endchar
        </CharString>
        <CharString name="d">
          -29 -7 94 350 93 223 -20 hstem
          7 callsubr
          111 vstem
          -79 callsubr
          44 94 0 callgsubr
        </CharString>
        <CharString name="dagger">
          -82 417 92 193 -20 hstem
          56.6 356.08 122 callsubr
          57 531 -3 callsubr
          -56 -531 rlineto
          -17 -1 10 -9 27 hhcurveto
          endchar
        </CharString>
        <CharString name="daggerdbl">
          -82 52 92 273 92 193 -20 hstem
          18.45 394.23 122 callsubr
          18 166 rlineto
          108 hlineto
          17 8 12 27 2 hvcurveto
          2 14 35 callgsubr
          -108 hlineto
          30 273 -3 callsubr
          -29 -273 rlineto
          -110 hlineto
          -16 -8 -12 -27 -3 hvcurveto
          -1 -14 58 callgsubr
          16 hhcurveto
          110 hlineto
          -18 -166 rlineto
          -17 -1 10 -9 27 hhcurveto
          endchar
        </CharString>
        <CharString name="dcaron">
          -29 -7 94 350 93 170 -20 73 -20 hstem
          7 callsubr
          111 98 102 vstem
          -79 callsubr
          359 526 rmoveto
          -16 callgsubr
          -14 22 -5 14 vhcurveto
          -315 -432 0 callgsubr
        </CharString>
        <CharString name="dcroat">
          -29 -7 94 350 93 61 81 81 -20 hstemhm
          7 callsubr
          163.12 -104.62 -61 callgsubr
          hintmask 11111010
          498 672 rmoveto
          -40 hlineto
          2 19 1 18 2 18 rrcurveto
          17 2 -14 9 -33 hhcurveto
          -18 24 callsubr
          -5 -55 rlineto
          -43 hlineto
          -16 -8 30 callsubr
          -12 rlineto
          -24 -2 6 -11 16 hhcurveto
          42 hlineto
          -11 -103 rlineto
          24 -20 -27 18 -44 hhcurveto
          -101 -75 -96 -170 -18 hvcurveto
          -167 -18 52 -104 91 hhcurveto
          hintmask 11111100
          49 46 29 50 29 hvcurveto
          -62 8 39 -6 callgsubr
          -3 -11 hhcurveto
          -13 -7 8 33 1 hvcurveto
          10 98 20 192 19 174 rrcurveto
          hintmask 11111010
          40 hlineto
          17 8 11 24 2 hvcurveto
          2 12 47 callgsubr
          -17 hhcurveto
          -209 -529 rmoveto
          -34 -24 -28 -22 -28 hhcurveto
          -48 -18 60 116 13 hvcurveto
          119 12 32 55 54 hhcurveto
          26 21 -11 -20 15 hvcurveto
          endchar
        </CharString>
        <CharString name="degree">
          -234 442 52 160 53 hstem
          65 54 102 56 vstem
          157 442 rmoveto
          60 51 46 86 9 hvcurveto
          87 9 -41 46 -60 hhcurveto
          -60 -51 -46 -87 -9 hvcurveto
          -86 -9 41 -46 60 hhcurveto
          5 52 rmoveto
          -30 -18 27 53 5 hvcurveto
          52 6 23 28 30 hhcurveto
          30 18 -28 -52 -5 hvcurveto
          -53 -6 -23 -27 -30 hhcurveto
          endchar
        </CharString>
        <CharString name="dieresis">
          -254 594 108 hstem
          52 1 callgsubr
          vstem
          93 594 -104 callgsubr
          endchar
        </CharString>
        <CharString name="divide">
          -62 -2 112 76 85 75 113 hstemhm
          151 101 -64.5 101.5 hintmask 00000000
          hintmask 01101000
          228 346 rmoveto
          8 hlineto
          33 15 9 18 2 hvcurveto
          6 59 rlineto
          17 2 -13 10 -33 hhcurveto
          -8 -14 callsubr
          -10 -17 -1 hvcurveto
          -7 -59 rlineto
          -18 -2 13 -9 33 hhcurveto
          -188 -160 rmoveto
          353 hlineto
          17 8 13 26 3 hvcurveto
          1 7 rlineto
          26 2 -5 13 -17 hhcurveto
          -353 hlineto
          -17 -8 -13 -26 151 callgsubr
          rlineto
          -26 -3 7 -13 16 hhcurveto
          hintmask 11010000
          151 -188 rmoveto
          8 45 callsubr
          6 60 34 callgsubr
          -8 -43 callgsubr
          -6 -60 35 callsubr
          33 hhcurveto
          endchar
        </CharString>
        <CharString name="dollar">
          -70 -6 101 613 -20 71 -20 hstemhm
          53 109 0 49.5 32 49.5 -3 110 hintmask 00000000
          hintmask 11101010
          179 -71 rmoveto
          8 hlineto
          13 8 6 14 1 hvcurveto
          5 47 rlineto
          116 14 70 78 119 vvcurveto
          98 -54 49 -89 47 vhcurveto
          22 208 26 -1 27 -7 27 -11 rlinecurve
          -2 7 8 -4 6 hhcurveto
          19 17 55 20 8 -4 8 -10 6 hvcurveto
          hintmask 11110100
          -26 15 -44 10 -42 3 1 10 1 15 1 5 rrcurveto
          14 -4 6 -13 vhcurveto
          -9 hlineto
          -15 -5 -6 -14 -2 hvcurveto
          -3 -31 rlineto
          -110 -9 -79 -78 -112 vvcurveto
          -113 76 -47 70 -39 vhcurveto
          -23 -215 rlineto
          -49 -36 11 24 -36 hvcurveto
          3 -5 -5 3 -5 hhcurveto
          -20 -16 -47 -26 1 hvcurveto
          -20 17 -10 16 -8 vhcurveto
          hintmask 11101010
          36 -23 43 -7 49 -1 rrcurveto
          -2 -20 -2 -21 -4 vvcurveto
          -14 3 -6 14 vhcurveto
          hintmask 11110010
          33 498 rmoveto
          -32 23 -18 26 35 vvcurveto
          48 26 32 43 12 vhcurveto
          -6 -500 rmoveto
          19 180 rlineto
          28 -20 18 -26 -37 vvcurveto
          -55 -27 -30 -38 -12 vhcurveto
          endchar
        </CharString>
        <CharString name="dotaccent">
          -254 594 108 hstem
          115.5 -11 callgsubr
          165 -82 callsubr
          endchar
        </CharString>
        <CharString name="dotbelowcomb">
          -510 29 callgsubr
          hstem
          -95.5 -11 callgsubr
          -46 -188 -107 callsubr
          endchar
        </CharString>
        <CharString name="dotlessi">
          57 callgsubr
          hstem
          53 108 vstem
          134 -5 -102 callsubr
          endchar
        </CharString>
        <CharString name="e">
          -16 callsubr
          28 callsubr
          226 209 -100 callsubr
          endchar
        </CharString>
        <CharString name="eacute">
          -16 callsubr
          51 152 28 callsubr
          252 581 rmoveto
          -105 callgsubr
          -26 -372 -100 callsubr
          endchar
        </CharString>
        <CharString name="ebreve">
          -16 callsubr
          51 77 28 callsubr
          280 581 -103 callgsubr
          -54 -372 -100 callsubr
          endchar
        </CharString>
        <CharString name="ecaron">
          -16 callsubr
          48 144 28 callsubr
          229 599 rmoveto
          -16 8 15 -5 22 hhcurveto
          11 hlineto
          23 15 5 16 11 hvcurveto
          67 93 rlineto
          4 7 4 6 4 vvcurveto
          8 1 -6 5 -13 hhcurveto
          -23 hlineto
          -18 -13 -5 -11 -8 hvcurveto
          -43 -61 -30 60 rlineto
          12 -6 -11 5 -17 hhcurveto
          -23 hlineto
          -12 -8 -5 -7 -1 hvcurveto
          -4 3 -8 2 -6 vhcurveto
          43 -483 -100 callsubr
          endchar
        </CharString>
        <CharString name="ecircumflex">
          -16 callsubr
          44 144 28 callsubr
          182 574 -107 callgsubr
          44 -365 -100 callsubr
          endchar
        </CharString>
        <CharString name="edieresis">
          -16 callsubr
          64 108 hstemhm
          41 114 14 1 callgsubr
          -78.5 107 hintmask 00000000
          hintmask 11111110
          210 594 -104 callgsubr
          -125 -385 rmoveto
          hintmask 11111001
          -51 callgsubr
          -165 -75 -148 -180 hvcurveto
          -157 -1 87 -52 108 hhcurveto
          40 74 15 36 27 hvcurveto
          11 16 4 20 19 vvcurveto
          17 -5 16 -12 vhcurveto
          -16 -36 -47 -71 hhcurveto
          -58 -40 27 103 2 hvcurveto
          hintmask 11111110
          5 callgsubr
          hintmask 11111001
          18 callsubr
        </CharString>
        <CharString name="edotaccent">
          -16 callsubr
          64 108 hstemhm
          41 114 76.5 -61 callgsubr
          -16 107 hintmask 00000000
          hintmask 11111100
          281 -82 callsubr
          -55 -385 -21 callgsubr
        </CharString>
        <CharString name="egrave">
          -16 callsubr
          51 152 28 callsubr
          297 581 -95 callgsubr
          -71 -372 -100 callsubr
          endchar
        </CharString>
        <CharString name="eight">
          -51 -7 92 530 92 hstemhm
          25 114 -60 112 113 115 -90 110 hintmask 11100100
          201 -7 rmoveto
          hintmask 11101000
          126 79 86 117 13 hvcurveto
          11 102 -44 47 -51 32 rrcurveto
          hintmask 11010100
          49 26 46 46 9 86 rrcurveto
          111 12 -71 61 -101 hhcurveto
          -108 -80 -67 -112 -12 hvcurveto
          -9 -80 31 -44 39 -31 rrcurveto
          hintmask 11100100
          -54 -27 -50 -52 -11 -99 rrcurveto
          -124 -12 65 -78 123 hhcurveto
          hintmask 11010100
          59 430 rmoveto
          -42 23 -34 28 7 59 rrcurveto
          56 6 34 26 38 hhcurveto
          38 28 -26 -58 -6 hvcurveto
          -6 -50 -25 -33 -38 -25 rrcurveto
          hintmask 11101000
          -50 -338 rmoveto
          -46 -33 35 80 8 hvcurveto
          7 63 27 36 39 27 52 -29 49 -27 -9 -77 rrcurveto
          -63 -6 -39 -45 -49 hhcurveto
          endchar
        </CharString>
        <CharString name="ellipsis">
          42 -2 130 hstemhm
          16 115 68 115 68 116 hintmask 00000000
          hintmask 11110000
          55 -2 rmoveto
          22 19 callsubr
          -22 -43 callgsubr
          -8 -78 rlineto
          -17 -3 13 -9 33 hhcurveto
          183 hmoveto
          22 19 callsubr
          -22 121 callgsubr
          -2 hvcurveto
          -8 -78 35 callsubr
          33 hhcurveto
          184 hmoveto
          22 hlineto
          33 14 124 callgsubr
          8 78 -30 callsubr
          32 callgsubr
          -22 24 callsubr
          -8 -78 35 callsubr
          34 hhcurveto
          endchar
        </CharString>
        <CharString name="emacron">
          -16 callsubr
          75 81 28 callsubr
          184 605 -84 callsubr
          42 -396 -100 callsubr
          endchar
        </CharString>
        <CharString name="emdash">
          376 222 86 hstem
          -0.55 887.67 vstem
          19 222 rmoveto
          840 -17 callgsubr
          1 9 rlineto
          27 2 -5 11 -16 hhcurveto
          -840 94 callgsubr
        </CharString>
        <CharString name="endash">
          -67 222 86 hstem
          -0.55 444.67 vstem
          19 222 rmoveto
          397 -17 callgsubr
          1 9 rlineto
          27 2 -5 11 -16 hhcurveto
          -397 94 callgsubr
        </CharString>
        <CharString name="eng">
          -212 92 555 95 hstem
          74 114 122 117 vstem
          243 -212 rmoveto
          57 67 35 110 11 hvcurveto
          49 448 rlineto
          -92 callsubr
          -43 -425 rlineto
          -44 -5 -13 -13 -20 -18 -8 4 -7 hhcurveto
          -17 -13 -42 -15 -1 hvcurveto
          -32 -3 39 -7 42 hhcurveto
          endchar
        </CharString>
        <CharString name="eogonek">
          -56 -151 66 78 -12 callgsubr
          hstemhm
          41 114 125 64 -18 107 hintmask 00000000
          hintmask 11111100
          426 -80 rmoveto
          -2 callsubr
          19 5 28 14 26 hvcurveto
          5 4 4 5 4 4 rrcurveto
          11 16 4 20 19 vvcurveto
          17 -5 16 -12 vhcurveto
          -16 -36 -47 -71 hhcurveto
          -58 -40 27 103 2 hvcurveto
          5 callgsubr
          hintmask 11111010
          -51 callgsubr
          -165 -75 -148 -180 hvcurveto
          -157 -1 87 -52 108 hhcurveto
          hintmask 11111100
          15 21 2 5 21 hvcurveto
          -9 -24 -3 -21 -15 -59 callsubr
          hintmask 11111010
          -153 518 rmoveto
          81 callsubr
          -43 hlineto
          82 12 31 68 69 hhcurveto
          endchar
        </CharString>
        <CharString name="equal">
          100 callgsubr
          59 269 rmoveto
          334 hlineto
          16 8 39 callsubr
          -334 19 callgsubr
          -18 -171 rmoveto
          334 hlineto
          17 7 39 callsubr
          -334 19 callgsubr
          endchar
        </CharString>
        <CharString name="estimated">
          105 -7 55 307 50 252 50 hstem
          22 141 293 137 vstem
          163 355 rmoveto
          430 hlineto
          227 -127 125 -154 -159 -131 -125 -227 -232 135 -130 163 81 77 39 65 55 vhcurveto
          6 8 4 7 6 vvcurveto
          12 -14 16 -16 -8 -6 -6 -9 -7 vhcurveto
          -52 -38 -74 -31 -60 hhcurveto
          -60 -55 20 40 -42 hvcurveto
          293 490 rmoveto
          -193 -293 193 vlineto
          39 40 52 20 57 hhcurveto
          53 51 -20 -39 40 hvcurveto
          endchar
        </CharString>
        <CharString name="eth">
          -33 -7 92 349 92 63 55 -27.5 54.5 hstemhm
          38.13 114.22 172.14 114.49 hintmask 11011100
          420 671 rmoveto
          -4 -39 -6 -5 -32 hvcurveto
          hintmask 11101100
          -12 18 -9 14 -11 11 rrcurveto
          7 -7 -9 4 -13 hhcurveto
          -16 -15 -2 -2 -13 hvcurveto
          -12 -2 -5 -4 -1 -7 -1 -9 15 -20 12 -20 -60 -8 rcurveline
          -13 -2 -6 -5 -1 -8 rrcurveto
          -17 -1 13 -19 17 hhcurveto
          2 2 0 10 71 hvcurveto
          13 -25 11 -26 8 -27 rrcurveto
          4 -14 -14 1 -16 hhcurveto
          -127 -74 -95 -171 -18 hvcurveto
          -173 -18 66 -94 122 hhcurveto
          137 70 94 174 18 hvcurveto
          hintmask 11011100
          13 131 -28 121 -49 100 55 7 rcurveline
          11 1 7 5 1 8 rrcurveto
          12 1 -9 25 -18 hhcurveto
          -99 -410 rmoveto
          -37 callgsubr
          -58 -19 52 124 13 hvcurveto
          122 14 29 51 58 hhcurveto
          57 20 -51 -122 -13 hvcurveto
          endchar
        </CharString>
        <CharString name="exclam">
          -264 -2 130 574 -20 hstemhm
          28.95 210.05 -206 118 hintmask 11100000
          105 211 rmoveto
          8 hlineto
          31 7 9 17 4 hvcurveto
          84 440 rlineto
          16 1 -15 9 -30 hhcurveto
          -33 121 callgsubr
          -2 hvcurveto
          -46 -439 rlineto
          -17 -2 8 -9 32 hhcurveto
          hintmask 11010000
          -32 -213 rmoveto
          24 45 callsubr
          8 78 rlineto
          17 2 -12 9 -34 hhcurveto
          -24 24 callsubr
          -8 -78 -1 callgsubr
          endchar
        </CharString>
        <CharString name="exclamdown">
          -264 395 130 hstemhm
          99 118 hintmask 00000000
          hintmask 11000000
          139 395 rmoveto
          25 hlineto
          33 14 36 callgsubr
          8 78 rlineto
          17 3 -13 9 -33 hhcurveto
          -25 121 callgsubr
          -3 hvcurveto
          -8 -78 -1 callgsubr
          -84 -574 rmoveto
          33 hlineto
          33 -41 callsubr
          46 438 rlineto
          18 2 -7 9 -31 hhcurveto
          -9 hlineto
          -32 -6 -9 -18 -4 hvcurveto
          -29 -146 -53 -271 -3 -23 rrcurveto
          -16 -1 15 -8 30 hhcurveto
          endchar
        </CharString>
        <CharString name="f">
          -224 113 callsubr
          111 112 vstem
          100 102 callsubr
          43 407 rlineto
          52 hlineto
          17 9 12 11 callsubr
          -53 hlineto
          -66 callsubr
          -17 -2 14 -9 34 hhcurveto
          endchar
        </CharString>
        <CharString name="f_f">
          62 113 callsubr
          111 112 174 112 vstem
          543 758 rmoveto
          -63 -66 -32 -111 -12 hvcurveto
          -10 -92 rlineto
          -174 hlineto
          -66 callsubr
          -17 -2 14 -9 34 hhcurveto
          15 4 callsubr
          43 407 rlineto
          148 hlineto
          5 hlineto
          21 hlineto
          -43 -407 142 callgsubr
          15 4 callsubr
          43 407 rlineto
          52 hlineto
          17 9 12 11 callsubr
          -53 hlineto
          10 89 rlineto
          44 5 15 10 22 16 9 -5 7 hhcurveto
          18 14 49 8 1 hvcurveto
          30 2 -50 10 -30 hhcurveto
          endchar
        </CharString>
        <CharString name="f_t">
          74 -7 92 346 92 143 92 hstemhm
          111 112 125 112 -65 117 hintmask 00000000
          hintmask 11110100
          525 431 rmoveto
          -55 callgsubr
          -25 hlineto
          -1 hlineto
          -145 hlineto
          -66 callsubr
          -17 -2 14 -9 34 hhcurveto
          15 4 callsubr
          43 407 rlineto
          hintmask 11111000
          140 hlineto
          5 hlineto
          26 hlineto
          -20 -185 -12 -113 -24 66 callsubr
          39 11 91 21 182 hvcurveto
          endchar
        </CharString>
        <CharString name="fi">
          30 -5 92 344 92 71 108 -36 92 hstemhm
          111 112 116 108 -57.5 -61 callgsubr
          hintmask 11011100
          487 143 callgsubr
          -13 -8 9 33 3 hvcurveto
          7 84 14 116 18 170 rrcurveto
          16 -14 8 -33 vhcurveto
          -221 hlineto
          -66 callsubr
          -17 -2 14 -9 34 hhcurveto
          15 4 callsubr
          43 407 rlineto
          157 hlineto
          -7 -70 -11 -102 -9 -81 -2 -22 -2 -29 -1 -21 rrcurveto
          -92 -5 45 -19 46 -64 callsubr
          -13 hhcurveto
          hintmask 11101010
          -37 611 -63 callsubr
        </CharString>
        <CharString name="five">
          -51 -7 92 253 92 178 92 hstem
          6 427.37 vstem
          170 -7 rmoveto
          104 122 51 169 18 hvcurveto
          169 17 -101 48 -114 hhcurveto
          -32 hlineto
          31 178 rlineto
          188 hlineto
          17 8 11 24 105 callgsubr
          27 3 -7 12 -17 hhcurveto
          -256 hlineto
          -24 -12 -10 -24 -4 hvcurveto
          -49 -293 rlineto
          -24 -2 5 -11 25 hhcurveto
          84 hlineto
          91 38 -44 -82 -8 hvcurveto
          -83 -9 -55 -44 -60 -71 -36 36 -13 hhcurveto
          -16 -32 -44 -19 -2 hvcurveto
          -31 -3 67 -34 100 hhcurveto
          endchar
        </CharString>
        <CharString name="fl">
          46 -7 92 346 92 143 92 -5 -20 hstemhm
          111 112 117 112 hintmask 11011100
          100 102 callsubr
          43 407 rlineto
          52 hlineto
          17 9 12 11 callsubr
          -53 hlineto
          hintmask 11101100
          -66 callsubr
          hintmask 11011100
          15 callgsubr
          341 -5 -69 callgsubr
          endchar
        </CharString>
        <CharString name="florin">
          -181 113 callsubr
          3 347 vstem
          270 758 rmoveto
          -71 -73 -35 -110 -13 hvcurveto
          -12 -90 rlineto
          -31 hlineto
          -27 -6 -36 -28 -18 4 -10 16 hvcurveto
          31 hlineto
          -85 -612 rlineto
          -16 12 -10 34 vhcurveto
          14 hlineto
          32 17 124 callgsubr
          85 612 rlineto
          50 hlineto
          38 16 54 19 14 -3 5 -13 hvcurveto
          -75 hlineto
          12 85 rlineto
          46 6 18 12 29 25 9 -6 6 hhcurveto
          15 17 50 12 32 -50 4 -30 hvcurveto
          endchar
        </CharString>
        <CharString name="four">
          -51 156 92 454 -20 hstem
          249.5 111 vstem
          282 -2 rmoveto
          25 hlineto
          31 13 124 callgsubr
          13 132 rlineto
          44 hlineto
          17 26 callsubr
          1 14 rlineto
          27 4 -6 12 -17 hhcurveto
          -44 hlineto
          45 428 -30 callsubr
          -11 9 -31 hhcurveto
          -33 hlineto
          -21 -18 -3 -15 -9 hvcurveto
          -292 -448 -2 -2 -1 -4 -1 -5 rlinecurve
          -22 -2 11 -47 14 hhcurveto
          229 hlineto
          -13 -132 rlineto
          -17 -3 12 -9 30 hhcurveto
          -164 250 rmoveto
          183 285 3 -2 -10 -41 -7 -36 -5 -51 rlinecurve
          -16 -155 rlineto
          endchar
        </CharString>
        <CharString name="fraction">
          -246 701 -20 hstem
          -121 514 vstem
          377 701 rmoveto
          -21 hlineto
          -17 -12 -8 -14 -9 hvcurveto
          -434 -658 rlineto
          -4 -5 -1 -5 -4 vvcurveto
          -5 5 -3 11 vhcurveto
          21 hlineto
          17 11 7 15 10 hvcurveto
          434 658 rlineto
          4 5 1 4 3 vvcurveto
          6 -5 4 -11 vhcurveto
          endchar
        </CharString>
        <CharString name="g">
          22 callgsubr
          33 callsubr
          hintmask 00000000
          hintmask 11011000
          399 525 rmoveto
          -9 hlineto
          -37 -6 -17 -31 -11 hvcurveto
          hintmask 11101000
          22 -17 -33 31 -52 hhcurveto
          -100 -76 -96 -168 -18 hvcurveto
          -128 -14 25 -136 117 hhcurveto
          44 40 22 46 29 hvcurveto
          -2 -20 rlineto
          -121 -12 -36 -49 -68 -69 -36 39 -11 hhcurveto
          -18 -5 -49 -21 6 hvcurveto
          -29 8 58 -32 84 hhcurveto
          126 66 83 211 22 hvcurveto
          hintmask 11011000
          44 420 rlineto
          15 -11 8 -28 vhcurveto
          -89 -176 rmoveto
          hintmask 11101000
          -17 -165 rlineto
          -65 -23 -35 -23 -27 hhcurveto
          -59 -5 81 90 10 hvcurveto
          112 12 29 59 62 hhcurveto
          30 19 -17 -14 13 hvcurveto
          hintmask 11011000
          -3 -15 -3 -20 -3 -23 rrcurveto
          endchar
        </CharString>
        <CharString name="g.ss01">
          56 callgsubr
          101 callgsubr
          hintmask 00000000
          hintmask 11010100
          184 -212 rmoveto
          17 callgsubr
          rrcurveto
          hintmask 11001010
          -59 12 -60 0 5 47 4 34 29 16 38 2 -50 callgsubr
          hintmask 10101010
          -40 callsubr
          hintmask 11010010
          91 callgsubr
          hintmask 11010100
          -91 -9 80 -37 99 hhcurveto
          hintmask 10101010
          -27 callgsubr
          hintmask 11010100
          -31 callgsubr
        </CharString>
        <CharString name="gbreve">
          22 callgsubr
          76 77 33 callsubr
          hintmask 11101100
          262 581 -103 callgsubr
          hintmask 11011100
          137 -56 -72 callgsubr
        </CharString>
        <CharString name="gbreve.ss01">
          56 callgsubr
          51 77 101 callgsubr
          hintmask 11010101
          275 581 -103 callgsubr
          hintmask 11011010
          -91 -793 -60 callgsubr
        </CharString>
        <CharString name="gcircumflex">
          22 callgsubr
          69 144 33 callsubr
          hintmask 11101100
          165 574 -107 callgsubr
          hintmask 11011100
          234 -49 -72 callgsubr
        </CharString>
        <CharString name="gcircumflex.ss01">
          56 callgsubr
          44 144 101 callgsubr
          hintmask 11010101
          177 574 -107 callgsubr
          hintmask 11011010
          7 -786 -60 callgsubr
        </CharString>
        <CharString name="gcommaaccent">
          22 callgsubr
          33 callsubr
          66.09 101 hintmask 11101100
          256 581 rmoveto
          107 callsubr
          144 callgsubr
          28 vhcurveto
          hintmask 11011100
          143 -56 -72 callgsubr
        </CharString>
        <CharString name="gcommaaccent.ss01">
          56 callgsubr
          hstemhm
          14 98 -36 96 56 101 -26 97 -77 96 hintmask 11001100
          314 767 rmoveto
          144 callgsubr
          28 hvcurveto
          107 callsubr
          vhcurveto
          hintmask 11010010
          -130 -979 rmoveto
          17 callgsubr
          rrcurveto
          hintmask 11001001
          -59 12 -60 0 5 47 4 34 29 16 38 2 -50 callgsubr
          hintmask 10101100
          -40 callsubr
          hintmask 11010100
          91 callgsubr
          hintmask 11010010
          -91 -9 80 -37 99 hhcurveto
          hintmask 10101001
          -27 callgsubr
          hintmask 11010010
          -31 callgsubr
        </CharString>
        <CharString name="gdotaccent">
          22 callgsubr
          89 108 33 callsubr
          64.59 -61 callgsubr
          hintmask 11101110
          264 -82 callsubr
          hintmask 11011110
          135 -69 rmoveto
          -9 hlineto
          -37 -6 -17 -31 -11 hvcurveto
          hintmask 11101110
          22 -17 -33 31 -52 hhcurveto
          -100 -76 -96 -168 -18 hvcurveto
          -128 -14 25 -136 117 hhcurveto
          44 40 22 46 29 hvcurveto
          -2 -20 rlineto
          -121 -12 -36 -49 -68 -69 -36 39 -11 hhcurveto
          -18 -5 -49 -21 6 hvcurveto
          -29 8 58 -32 84 hhcurveto
          126 66 83 211 22 hvcurveto
          hintmask 11011110
          44 420 rlineto
          15 -11 8 -28 vhcurveto
          -89 -176 rmoveto
          hintmask 11101110
          -17 -165 rlineto
          -65 -23 -35 -23 -27 hhcurveto
          -59 -5 81 90 10 hvcurveto
          112 12 29 59 62 hhcurveto
          30 19 -17 -14 13 hvcurveto
          hintmask 11011110
          -3 -15 -3 -20 -3 -23 rrcurveto
          endchar
        </CharString>
        <CharString name="gdotaccent.ss01">
          56 callgsubr
          64 108 hstemhm
          14 98 -36 96 54.5 -61 callgsubr
          -34 97 -77 96 hintmask 0000000000000000
          hintmask 1101101000000000
          276 -82 callsubr
          -92 -806 rmoveto
          hintmask 1101010100000000
          17 callgsubr
          -59 12 -60 0 5 47 4 34 29 16 38 2 rrcurveto
          hintmask 1101010010000000
          -50 callgsubr
          hintmask 1011010010000000
          -40 callsubr
          hintmask 1101100010000000
          91 callgsubr
          hintmask 1101101000000000
          -91 -9 80 -37 99 hhcurveto
          hintmask 1011010010000000
          -27 callgsubr
          hintmask 1101100100000000
          -31 callgsubr
        </CharString>
        <CharString name="germandbls">
          -30 0 92 231 91 198 95 hstemhm
          327 113 -101 118 hintmask 11101000
          85 -2 rmoveto
          19 45 callsubr
          52 502 rlineto
          54 6 28 32 44 hhcurveto
          39 23 -25 -68 -7 hvcurveto
          -65 -7 -33 -40 -37 hhcurveto
          -5 hlineto
          hintmask 11110000
          -15 -8 -12 91 callsubr
          -14 rlineto
          -27 -2 5 -11 17 hhcurveto
          10 hlineto
          47 29 -40 -78 -8 hvcurveto
          -76 -9 -34 -37 -44 hhcurveto
          -15 hlineto
          -17 -8 -12 -27 -3 hvcurveto
          -1 -14 rlineto
          -27 -4 150 callgsubr
          20 hlineto
          110 80 72 132 14 hvcurveto
          9 91 -26 59 -64 25 rrcurveto
          3 vlineto
          hintmask 11101000
          54 25 36 57 8 70 rrcurveto
          124 13 -78 49 -97 hhcurveto
          -116 -74 -76 -113 -13 hvcurveto
          -51 -494 -1 callgsubr
          endchar
        </CharString>
        <CharString name="grave">
          -254 119 callsubr
          44 166 vstem
          185 581 -95 callgsubr
          endchar
        </CharString>
        <CharString name="gravecomb">
          -510 119 callsubr
          -120 165 vstem
          21 581 rmoveto
          19 5 3 9 10 -11 23 -40 83 callsubr
          15 -9 35 hhcurveto
          endchar
        </CharString>
        <CharString name="greater">
          -62 8.66 450.99 hstem
          7.85 402.15 vstem
          8 41 rmoveto
          -2 -26 4 -14 25 12 348 174 rcurveline
          18 9 7 11 1 19 1 18 rcurveline
          1 18 -3 11 -15 9 -311 173 rcurveline
          -20 11 -8 -8 -3 -30 -2 -14 rcurveline
          -2 -28 2 -11 17 -9 232 -127 rcurveline
          -261 -132 -19 -10 -5 -15 -3 -26 rlinecurve
          endchar
        </CharString>
        <CharString name="greaterequal">
          -57 0 88 hstem
          10.46 413.54 vstem
          22 152 rmoveto
          -4 -35 6 -3 26 12 345 165 rcurveline
          17 8 9 10 1 19 2 18 rcurveline
          2 19 -6 11 -15 8 -311 164 rcurveline
          -24 12 -3 -7 -4 -31 -1 -13 rcurveline
          -3 -23 4 -12 15 -9 225 -128 rcurveline
          -252 -128 -19 -9 -5 -10 -2 -19 rlinecurve
          6 -171 rmoveto
          333 hlineto
          16 12 callsubr
          1 10 26 callgsubr
          -333 hlineto
          -17 118 callsubr
          -10 112 callsubr
          endchar
        </CharString>
        <CharString name="guillemotleft">
          -39 54 407 hstem
          28.76 409.24 vstem
          115 252 rmoveto
          126 callsubr
          -25 19 -14 hhcurveto
          -9 -9 -4 -9 -9 hvcurveto
          -139 -155 -23 -22 -6 -25 15 -23 rlinecurve
          96 -155 rlineto
          -9 5 7 -5 9 hhcurveto
          20 26 154 callsubr
          203 356 rmoveto
          -9 -8 -4 -9 -10 hvcurveto
          -138 -155 -22 -21 -8 -23 16 -26 rlinecurve
          95 -155 rlineto
          -9 6 7 -5 9 hhcurveto
          19 27 154 callsubr
          -82 147 126 callsubr
          -26 19 -14 hhcurveto
          endchar
        </CharString>
        <CharString name="guillemotright">
          -39 54 407 hstem
          47 409.22 vstem
          264 292 rmoveto
          -95 155 rlineto
          9 -6 -7 5 -9 hhcurveto
          -19 -27 154 callgsubr
          83 -147 -127 -148 -7 -8 -5 -8 -1 -7 rlinecurve
          -19 -2 26 -19 14 hhcurveto
          9 8 4 9 10 hvcurveto
          138 155 22 21 8 23 -16 26 rlinecurve
          184 hmoveto
          -96 155 rlineto
          9 -5 -7 5 -9 hhcurveto
          -20 -26 154 callgsubr
          82 -148 -126 -147 -7 -8 -5 -8 -1 -7 rlinecurve
          -19 -2 25 -19 14 hhcurveto
          9 9 4 9 9 hvcurveto
          139 155 23 22 6 25 -15 23 rlinecurve
          endchar
        </CharString>
        <CharString name="guilsinglleft">
          -263 55 406 hstem
          28 202 vstem
          143 55 rmoveto
          16 35 19 17 1 hvcurveto
          1 7 -2 7 -4 7 -75 146 rcurveline
          106 146 6 7 2 7 1 6 rlinecurve
          20 3 -32 17 -15 hhcurveto
          -8 -8 -3 -10 -8 hvcurveto
          -118 -155 -10 -13 -4 -9 -2 -13 rlinecurve
          -1 -13 3 -9 7 -13 86 -155 rcurveline
          -10 5 7 -3 8 hhcurveto
          endchar
        </CharString>
        <CharString name="guilsinglright">
          -263 55 406 hstem
          22 203.41 vstem
          67 55 rmoveto
          8 7 3 10 8 hvcurveto
          119 155 9 13 6 9 1 13 rlinecurve
          2 13 -4 9 -7 13 -86 155 rcurveline
          10 -6 -7 3 -7 hhcurveto
          -15 -36 -17 -20 -2 hvcurveto
          -1 -6 2 -7 4 -7 77 -146 rcurveline
          -108 -146 -5 -7 -3 -7 -1 -7 rlinecurve
          -17 -2 31 -19 16 hhcurveto
          endchar
        </CharString>
        <CharString name="h">
          -25 -5 92 348 95 223 -20 hstemhm
          287 115 -89 116 hintmask 11110000
          375 -5 21 callgsubr
          hintmask 11101000
          -45 callsubr
          hintmask 11110000
          60 callsubr
          vhcurveto
          endchar
        </CharString>
        <CharString name="hbar">
          -25 -5 92 348 95 61 81 81 -20 hstemhm
          103 114 70 115 -89 116 hintmask 11111100
          443 91 rmoveto
          -7 -5 -4 -11 hhcurveto
          -12 -7 8 24 1 hvcurveto
          hintmask 11111010
          18 19 176 8 68 vhcurveto
          103 12 -49 46 -69 hhcurveto
          -54 -46 -30 -38 -31 hvcurveto
          14 129 rlineto
          67 hlineto
          19 8 11 24 2 hvcurveto
          2 12 47 callgsubr
          -19 hhcurveto
          -68 hlineto
          6 55 72 callgsubr
          -21 121 callgsubr
          -3 hvcurveto
          -6 -55 rlineto
          -30 hlineto
          -18 -9 30 callsubr
          -12 rlineto
          -24 -2 6 -11 18 hhcurveto
          31 hlineto
          -59 -567 35 callsubr
          33 hhcurveto
          21 hlineto
          32 82 callgsubr
          37 358 rlineto
          20 11 30 33 39 hhcurveto
          39 15 -27 -46 -5 hvcurveto
          hintmask 11111100
          60 callsubr
          51 28 26 46 11 -3 13 -8 vhcurveto
          endchar
        </CharString>
        <CharString name="hcircumflex">
          -25 435 95 223 -20 48 144 hstemhm
          287 115 -89 116 hintmask 00000000
          hintmask 11110000
          73 781 -107 callgsubr
          302 -786 21 callgsubr
          hintmask 11001000
          -45 callsubr
          hintmask 11010000
          -21 -199 rlineto
          -3 -34 -2 -23 -11 vvcurveto
          hintmask 11110000
          -78 44 -22 44 vhcurveto
          endchar
        </CharString>
        <CharString name="hookabovecomb">
          -510 695 55 hstem
          -204 73 vstem
          -226 566 -87 callsubr
          endchar
        </CharString>
        <CharString name="hungarumlaut">
          -203 119 callsubr
          -2 310 vstem
          23 581 -73 callgsubr
          endchar
        </CharString>
        <CharString name="hyphen">
          -254 222 86 hstem
          22.6 210.94 vstem
          43 222 rmoveto
          162 149 callsubr
          27 2 hvcurveto
          1 9 rlineto
          27 3 50 callsubr
          -163 hlineto
          -16 -8 -11 -27 -3 hvcurveto
          -1 -9 rlineto
          -27 -3 7 -12 16 hhcurveto
          endchar
        </CharString>
        <CharString name="i">
          -256 -5 92 438 39 callgsubr
          hintmask 00000000
          hintmask 11101000
          152 -82 callsubr
          hintmask 11110000
          -18 -599 -102 callsubr
          endchar
        </CharString>
        <CharString name="i.loclTRK">
          141 callgsubr
          53 108 -55.5 141 callsubr
          hintmask 11101000
          155 -82 callsubr
          hintmask 11110000
          -21 -599 -102 callsubr
          endchar
        </CharString>
        <CharString name="iacute">
          57 callgsubr
          76 152 hstem
          53 108 vstem
          126 581 rmoveto
          -105 callgsubr
          8 -586 -102 callsubr
          endchar
        </CharString>
        <CharString name="iacute_j.loclNLD">
          -7 -212 92 115 92 438 57 callsubr
          53 108 vstem
          126 581 rmoveto
          -105 callgsubr
          256 hmoveto
          -105 callgsubr
          -248 -586 -102 callsubr
          128 -207 -82 callgsubr
        </CharString>
        <CharString name="ibreve">
          57 callgsubr
          76 77 hstem
          53 108 vstem
          153 581 -103 callgsubr
          -19 -586 -102 callsubr
          endchar
        </CharString>
        <CharString name="icircumflex">
          57 callgsubr
          69 144 hstem
          53 108 vstem
          56 574 -107 callgsubr
          78 -579 -102 callsubr
          endchar
        </CharString>
        <CharString name="idieresis">
          141 callgsubr
          43 94 -84 108 24 93.5 hintmask 00000000
          hintmask 11110100
          84 594 -104 callgsubr
          hintmask 11101000
          -91 -599 -102 callsubr
          endchar
        </CharString>
        <CharString name="igrave">
          57 callgsubr
          76 152 hstem
          53 108 vstem
          170 581 -95 callgsubr
          -36 -586 -102 callsubr
          endchar
        </CharString>
        <CharString name="ij">
          -7 -212 92 115 92 438 39 callgsubr
          145.5 141 callsubr
          hintmask 11110110
          152 -82 callsubr
          256 hmoveto
          38 18 10 -34 callsubr
          6 -54 callgsubr
          -16 9 -38 hhcurveto
          -39 -17 -10 -16 -2 -41 callgsubr
          -17 -3 16 -10 39 hhcurveto
          hintmask 11111010
          -274 -599 -102 callsubr
          128 -207 -82 callgsubr
        </CharString>
        <CharString name="imacron">
          57 callgsubr
          100 81 hstem
          53 108 vstem
          58 605 -84 callsubr
          76 -610 -102 callsubr
          endchar
        </CharString>
        <CharString name="infinity">
          120 113 81 -81 84 165 84 -81 81 hstemhm
          40 87 382 87 hintmask 00000000
          hintmask 10101100
          478 446 rmoveto
          -60 -55 -39 -71 -38 hvcurveto
          hintmask 01011100
          70 -21 -43 40 -60 hhcurveto
          -83 -68 -69 -98 -10 hvcurveto
          -95 -10 49 -71 79 hhcurveto
          59 56 39 71 38 hvcurveto
          hintmask 10011100
          -70 20 44 -40 60 hhcurveto
          83 67 69 98 11 hvcurveto
          hintmask 10101100
          95 10 -49 71 -79 hhcurveto
          hintmask 01011100
          -302 -249 rmoveto
          -37 -17 36 47 5 hvcurveto
          49 5 28 36 36 hhcurveto
          29 25 -25 -64 15 hvcurveto
          -42 -21 -33 -37 -35 hhcurveto
          hintmask 10101100
          333 82 rmoveto
          -49 -5 -29 -36 -35 hhcurveto
          -29 -25 25 64 -15 hvcurveto
          42 21 33 37 35 hhcurveto
          37 17 -36 -47 -5 hvcurveto
          endchar
        </CharString>
        <CharString name="integral">
          -212 -164 83 874 84 hstem
          -51 419 vstem
          23 -164 rmoveto
          90 57 80 174 18 hvcurveto
          18 172 8 185 18 162 rrcurveto
          131 14 20 53 39 18 9 -7 5 hhcurveto
          14 14 22 27 3 hvcurveto
          35 4 -55 7 -22 hhcurveto
          -91 -57 -81 -174 -18 hvcurveto
          -18 -172 -8 -183 -17 -164 rrcurveto
          -130 -14 -20 -54 -40 -18 -7 7 -6 hhcurveto
          -14 -15 -21 -27 -3 hvcurveto
          -36 -4 55 -6 23 hhcurveto
          endchar
        </CharString>
        <CharString name="iogonek">
          -256 -173 66 632 39 callgsubr
          -106 64 hintmask 00000000
          hintmask 11101000
          152 -82 callsubr
          hintmask 11100100
          101 -696 rmoveto
          -2 callsubr
          20 6 30 16 28 hvcurveto
          -2 1 rlineto
          hintmask 11110000
          10 9 7 12 2 14 rrcurveto
          46 callsubr
          -6 -6 -4 -10 hhcurveto
          -13 -8 9 33 3 hvcurveto
          7 84 14 116 18 170 rrcurveto
          16 -14 10 -33 vhcurveto
          -14 hlineto
          -32 -17 -8 -18 -2 hvcurveto
          -5 -30 -18 -177 -12 -114 -2 -22 -2 -29 -1 -21 rrcurveto
          hintmask 11100100
          -5 -87 40 -22 43 -2 rrcurveto
          -14 -30 -5 -29 -18 -59 callsubr
          endchar
        </CharString>
        <CharString name="itilde">
          57 callgsubr
          82 70 -35 70 hstemhm
          53 108 hintmask 00000000
          hintmask 11011000
          33 587 7 callgsubr
          hintmask 11101000
          -39 callsubr
          hintmask 11011000
          -2 callgsubr
          110 -595 -102 callsubr
          endchar
        </CharString>
        <CharString name="j">
          127 callsubr
          89 108 hstem
          104.5 -11 callgsubr
          154 -21 callsubr
        </CharString>
        <CharString name="jcircumflex">
          127 callsubr
          69 144 hstem
          -70 341 vstem
          58 574 -107 callgsubr
          -50 -786 -82 callgsubr
        </CharString>
        <CharString name="k">
          140 callsubr
          53.62 405.38 -29 callsubr
          endchar
        </CharString>
        <CharString name="kcommaaccent">
          140 callsubr
          163 101 -29 callsubr
          -194 -576 rmoveto
          -14 hlineto
          -32 99 callgsubr
          -78 -20 -32 -21 vvcurveto
          -14 21 -4 14 28 58 68 83 21 -12 14 -28 vhcurveto
          endchar
        </CharString>
        <CharString name="kgreenlandic">
          25 525 -20 21 -20 hstemhm
          48 452 hintmask 01100000
          164 526 rmoveto
          -14 hlineto
          -35 -15 92 callsubr
          -50 -475 rlineto
          -17 12 -9 35 vhcurveto
          14 4 callsubr
          24 223 4 1 160 -234 rlineto
          -14 9 22 -2 25 hhcurveto
          20 hlineto
          38 13 5 12 4 -2 4 -4 8 hvcurveto
          -173 250 rlineto
          hintmask 10100000
          192 210 rlineto
          8 8 4 8 5 vvcurveto
          7 -14 6 -29 vhcurveto
          -18 hlineto
          -25 -22 -3 -13 -11 hvcurveto
          -187 -208 -4 1 rlineto
          hintmask 01100000
          20 197 rlineto
          17 -11 10 -35 vhcurveto
          endchar
        </CharString>
        <CharString name="l">
          115 callsubr
          hstemhm
          54 112 hintmask 00000000
          hintmask 11100000
          155 -7 -69 callgsubr
          endchar
        </CharString>
        <CharString name="lacute">
          115 callsubr
          45 152 hstemhm
          54 112 hintmask 00000000
          hintmask 11110000
          151 778 rmoveto
          -105 callgsubr
          4 -785 rmoveto
          40 31 16 35 5 hvcurveto
          17 4 -1 28 -14 -6 -8 -4 -14 hhcurveto
          -18 -12 10 36 4 hvcurveto
          hintmask 11010000
          63 596 119 callgsubr
          -35 hhcurveto
          -14 hlineto
          -34 30 callgsubr
          -63 -599 rlineto
          hintmask 11110000
          65 callgsubr
          endchar
        </CharString>
        <CharString name="lcaron">
          -240 -7 92 616 -20 72 -20 hstem
          54 112 102 102 vstem
          155 -7 -69 callgsubr
          139 527 rmoveto
          -16 callgsubr
          -14 22 -5 14 vhcurveto
          endchar
        </CharString>
        <CharString name="lcommaaccent">
          115 callsubr
          hstemhm
          54 112 -96 101 hintmask 00000000
          hintmask 11100000
          155 -7 -69 callgsubr
          hintmask 11010000
          -70 -230 -78 callsubr
          endchar
        </CharString>
        <CharString name="ldot">
          -240 -7 92 215 119 334 -20 hstemhm
          54 112 50 115 hintmask 00000000
          hintmask 11111000
          155 -7 -69 callgsubr
          112 307 9 callgsubr
        </CharString>
        <CharString name="less">
          -62 8.52 452.55 hstem
          27 403.29 vstem
          363 12 rmoveto
          17 -10 6 12 3 27 2 15 rcurveline
          2 24 -2 13 -18 11 -226 131 rcurveline
          253 131 17 10 8 12 3 26 rlinecurve
          2 15 2 24 -3 16 -25 -12 rlinecurve
          -350 -175 -15 -8 -8 -11 -2 -19 rlinecurve
          -2 -18 -2 -19 6 -11 14 -8 rlinecurve
          endchar
        </CharString>
        <CharString name="lessequal">
          -57 0 88 hstem
          7.46 431.27 vstem
          370 124 rmoveto
          20 -10 8 8 3 30 1 19 rcurveline
          2 19 -6 11 -13 8 -227 128 rcurveline
          253 128 15 8 9 10 2 29 rlinecurve
          1 10 4 33 -8 5 -21 -10 rlinecurve
          -347 -166 -16 -8 -8 -11 -2 -19 rlinecurve
          -2 -18 -1 -19 5 -11 14 -7 rlinecurve
          -28 -291 rmoveto
          333 hlineto
          16 12 callsubr
          1 10 105 callsubr
          -17 hhcurveto
          -333 hlineto
          -16 118 callsubr
          -10 112 callsubr
          endchar
        </CharString>
        <CharString name="logicalnot">
          -61 255 88 hstem
          27.45 400.68 vstem
          342 75 rmoveto
          31 hlineto
          22 9 36 callgsubr
          22 207 rlineto
          24 3 -8 11 -22 hhcurveto
          -345 hlineto
          -16 -8 -12 -27 -3 hvcurveto
          -1 -10 58 callgsubr
          16 hhcurveto
          283 hlineto
          -16 -154 rlineto
          -17 -2 9 -9 21 hhcurveto
          endchar
        </CharString>
        <CharString name="longs">
          -237 113 callsubr
          53 280 vstem
          99 -2 rmoveto
          14 hlineto
          34 16 36 callgsubr
          62 588 rlineto
          44 5 15 10 22 16 9 -5 7 hhcurveto
          17 14 49 8 1 hvcurveto
          30 3 -50 10 -30 hhcurveto
          -64 -65 -32 -111 -12 hvcurveto
          -10 -92 rlineto
          -22 hlineto
          -17 -7 -12 -27 -4 hvcurveto
          -1 -14 112 callsubr
          22 hlineto
          -43 -407 142 callgsubr
          endchar
        </CharString>
        <CharString name="lozenge">
          -64 -18 733 hstem
          43 381 vstem
          421 369 rmoveto
          -98 323 rlineto
          18 -5 -17 5 -23 hhcurveto
          -12 hlineto
          -23 -18 -5 -18 -8 hvcurveto
          -167 -323 -5 -7 -1 -7 -1 -8 rlinecurve
          -1 -6 1 -7 3 -8 95 -321 rcurveline
          -17 6 16 -6 22 hhcurveto
          19 hlineto
          24 17 6 17 8 hvcurveto
          164 320 4 9 2 6 1 7 rlinecurve
          1 8 -2 7 -2 7 rrcurveto
          -212 -262 rmoveto
          -62 240 113 236 59 -236 rlineto
          endchar
        </CharString>
        <CharString name="lslash">
          115 callsubr
          hstemhm
          30 233 -209 112 hintmask 11100000
          253 498 rmoveto
          -3 -4 -1 -3 -5 hvcurveto
          -39 -24 27 257 119 callgsubr
          -35 hhcurveto
          -14 hlineto
          hintmask 11010000
          -34 30 callgsubr
          -35 -328 -30 -18 rlineto
          -14 -9 -8 -11 -17 vvcurveto
          -12 vlineto
          -11 4 -6 6 3 4 2 3 5 vhcurveto
          23 14 -21 -206 rlineto
          65 callgsubr
          40 31 16 35 5 hvcurveto
          17 4 -1 28 -14 -6 -8 -4 -14 hhcurveto
          -18 -12 10 36 4 hvcurveto
          29 274 46 28 rlineto
          15 9 7 10 18 vvcurveto
          12 vlineto
          hintmask 11100000
          11 -4 5 -6 vhcurveto
          endchar
        </CharString>
        <CharString name="m">
          210 -5 92 348 95 hstemhm
          74 114 333 168 -142 116 hintmask 11110000
          677 143 callgsubr
          -12 -7 7 25 hvcurveto
          hintmask 11101000
          11 16 143 11 105 vhcurveto
          106 10 -43 46 -69 hhcurveto
          -57 -49 -33 -41 -32 hvcurveto
          52 -13 -39 22 -49 hhcurveto
          -57 -47 -35 -41 -30 hvcurveto
          34 -3 4 34 -29 hhcurveto
          -15 -68 -6 -22 -3 hvcurveto
          -1 -10 7 -32 -9 -89 -36 -339 rcurveline
          -17 -2 13 -9 32 hhcurveto
          21 hlineto
          33 -41 callsubr
          38 358 rlineto
          20 10 30 33 37 hhcurveto
          39 13 -28 -48 -5 hvcurveto
          -35 -335 -1 callgsubr
          21 hlineto
          33 14 36 callgsubr
          39 363 rlineto
          24 16 28 24 30 hhcurveto
          37 13 -28 -48 -5 hvcurveto
          hintmask 11110000
          -20 -196 -6 -49 -18 vvcurveto
          -79 1 44 -22 44 hhcurveto
          51 28 26 46 11 -3 13 -9 hvcurveto
          endchar
        </CharString>
        <CharString name="macron">
          -255 605 103 callsubr
          605 -84 callsubr
          endchar
        </CharString>
        <CharString name="minus">
          -61 180 88 hstem
          18.6 404.08 vstem
          39 180 rmoveto
          355 hlineto
          17 7 12 27 3 hvcurveto
          1 10 rlineto
          27 3 -5 12 -17 hhcurveto
          -355 hlineto
          -16 -9 -12 -27 -2 hvcurveto
          -2 -10 rlineto
          -27 -3 7 -12 16 hhcurveto
          endchar
        </CharString>
        <CharString name="multiply">
          -62 4.63 456.62 hstem
          9.87 402.38 vstem
          402 434 rmoveto
          -18 16 -11 10 -12 9 -16 -18 rlinecurve
          -129 -154 -99 155 -10 15 -10 -5 -19 -14 rlinecurve
          -15 -12 -20 -16 1 -10 11 -16 rlinecurve
          102 -160 -136 -161 -14 -16 -2 -10 17 -16 rlinecurve
          12 -12 16 -14 9 -7 14 15 rlinecurve
          131 155 95 -152 12 -18 14 9 12 10 rlinecurve
          22 16 16 12 2 6 -13 20 rlinecurve
          -102 160 138 163 17 20 -2 8 -13 12 rlinecurve
          endchar
        </CharString>
        <CharString name="n">
          106 callgsubr
          28 callgsubr
          hintmask 11110000
          440 89 -13 callsubr
          hintmask 11101000
          9 10 91 18 164 vhcurveto
          -92 callsubr
          hintmask 11110000
          -54 callsubr
          endchar
        </CharString>
        <CharString name="nacute">
          106 callgsubr
          51 152 28 callgsubr
          hintmask 11111000
          248 581 rmoveto
          -105 callgsubr
          192 -492 -13 callsubr
          hintmask 11110100
          9 10 91 18 164 vhcurveto
          -92 callsubr
          hintmask 11111000
          -54 callsubr
          endchar
        </CharString>
        <CharString name="nacute.loclPLK">
          106 callgsubr
          51 152 28 callgsubr
          hintmask 11111000
          256 581 -76 callgsubr
          184 -492 -13 callsubr
          hintmask 11110100
          9 10 91 18 164 vhcurveto
          -92 callsubr
          hintmask 11111000
          -54 callsubr
          endchar
        </CharString>
        <CharString name="napostrophe">
          106 callgsubr
          hstemhm
          43 101 -70 114 96 115 -89 117 hintmask 11101000
          58 535 -78 callsubr
          382 -446 -13 callsubr
          hintmask 11010100
          9 10 91 18 164 vhcurveto
          -92 callsubr
          hintmask 11101000
          -54 callsubr
          endchar
        </CharString>
        <CharString name="ncaron">
          106 callgsubr
          48 144 28 callgsubr
          hintmask 11111000
          269 578 -105 callsubr
          171 -489 -13 callsubr
          hintmask 11110100
          9 10 91 18 164 vhcurveto
          -92 callsubr
          hintmask 11111000
          -54 callsubr
          endchar
        </CharString>
        <CharString name="ncommaaccent">
          106 callgsubr
          hstemhm
          74 114 -15 101 10 115 -89 117 hintmask 00000000
          hintmask 11011000
          440 89 -13 callsubr
          hintmask 11100100
          9 10 91 18 164 vhcurveto
          -92 callsubr
          hintmask 11011000
          -54 callsubr
          hintmask 11010100
          -252 -326 -78 callsubr
          endchar
        </CharString>
        <CharString name="nine">
          -51 283 91 238 92 hstem
          333.44 112.09 vstem
          82 -5 rmoveto
          41 285 121 334 35 hvcurveto
          170 18 -74 84 -114 hhcurveto
          -105 -102 -72 -144 -15 hvcurveto
          -139 -15 78 -66 81 hhcurveto
          37 35 9 20 32 hvcurveto
          -40 -107 -79 -84 -119 -45 rrcurveto
          -10 -3 -2 -4 -8 vvcurveto
          -16 -2 8 -50 27 hhcurveto
          160 379 rmoveto
          -49 -37 38 80 8 hvcurveto
          79 9 48 41 40 hhcurveto
          42 41 -32 -123 -13 hvcurveto
          -2 -19 -3 -20 -3 -19 rrcurveto
          -12 -21 -30 -13 -30 hhcurveto
          endchar
        </CharString>
        <CharString name="notequal">
          100 callgsubr
          402 354 rmoveto
          -53 hlineto
          30 46 rlineto
          27 17 -5 15 -37 hhcurveto
          -15 hlineto
          -22 -10 -9 -15 -10 hvcurveto
          -41 -64 rlineto
          -188 19 callgsubr
          144 hlineto
          -55 -86 rlineto
          -98 19 callgsubr
          53 hlineto
          -36 -56 rlineto
          -22 -13 6 -14 36 hhcurveto
          14 hlineto
          23 9 7 17 11 hvcurveto
          43 68 rlineto
          188 hlineto
          17 7 39 callsubr
          -143 hlineto
          55 86 rlineto
          97 hlineto
          16 8 39 callsubr
          endchar
        </CharString>
        <CharString name="ntilde">
          106 callgsubr
          57 70 -35 70 28 callgsubr
          hintmask 00000000
          hintmask 11011100
          142 21 callsubr
          hintmask 11101100
          -95 callsubr
          hintmask 11011100
          -74 callgsubr
          308 -501 -13 callsubr
          hintmask 11101010
          9 10 91 18 164 vhcurveto
          -92 callsubr
          hintmask 11101100
          -21 -204 rlineto
          -3 -29 -2 -22 -11 vvcurveto
          -80 -1 46 -23 43 hhcurveto
          51 29 26 45 hvcurveto
          hintmask 11011100
          13 -4 12 -8 vhcurveto
          endchar
        </CharString>
        <CharString name="numbersign">
          4 190 92 131 91 hstem
          12.46 505.06 vstem
          82 -2 rmoveto
          13 hlineto
          28 13 9 17 5 hvcurveto
          41 166 rlineto
          89 hlineto
          -28 -111 -12 -52 -1 -6 rrcurveto
          -16 -2 11 -7 24 hhcurveto
          12 hlineto
          28 14 9 17 5 hvcurveto
          41 166 rlineto
          75 hlineto
          17 9 12 11 callsubr
          -63 hlineto
          33 131 rlineto
          70 hlineto
          17 8 11 11 callsubr
          -56 hlineto
          38 157 rlineto
          16 4 -11 9 -25 hhcurveto
          -13 hlineto
          -29 -13 -9 -17 -5 hvcurveto
          -38 -156 rlineto
          -90 hlineto
          39 157 rlineto
          16 4 -10 9 -26 hhcurveto
          -12 hlineto
          -29 -13 -9 -17 -5 hvcurveto
          -39 -156 rlineto
          -73 hlineto
          -17 -8 -12 -27 -3 hvcurveto
          -1 -14 150 callsubr
          -11 17 hhcurveto
          60 hlineto
          -32 -131 rlineto
          -71 87 callsubr
          -3 6 -12 17 hhcurveto
          58 hlineto
          -28 -107 -13 -57 -1 -5 rrcurveto
          -16 -2 11 -7 24 hhcurveto
          123 284 rmoveto
          32 131 rlineto
          90 hlineto
          -32 -131 rlineto
          endchar
        </CharString>
        <CharString name="o">
          8 callsubr
          hstem
          -64 callgsubr
          vstem
          211 -7 -85 callgsubr
        </CharString>
        <CharString name="oacute">
          8 callsubr
          51 152 hstem
          -64 callgsubr
          vstem
          245 581 rmoveto
          -105 callgsubr
          -34 -588 -85 callgsubr
        </CharString>
        <CharString name="oacute.loclPLK">
          8 callsubr
          51 152 hstem
          -64 callgsubr
          vstem
          254 581 -76 callgsubr
          -43 -588 -85 callgsubr
        </CharString>
        <CharString name="obreve">
          8 callsubr
          51 77 hstem
          -64 callgsubr
          vstem
          273 581 -103 callgsubr
          -62 -588 -85 callgsubr
        </CharString>
        <CharString name="ocircumflex">
          8 callsubr
          44 144 hstem
          -64 callgsubr
          vstem
          -43 callsubr
          endchar
        </CharString>
        <CharString name="odieresis">
          8 callsubr
          64 108 hstemhm
          37.84 115.35 8.81 1 callgsubr
          -73.01 114.7 hintmask 00000000
          hintmask 11111100
          203 594 -104 callgsubr
          hintmask 11110010
          -133 -601 -85 callgsubr
        </CharString>
        <CharString name="oe">
          212 -10 callsubr
          hstem
          37.59 115.6 160.81 114 170 107 vstem
          498 209 rmoveto
          118 89 65 118 hvcurveto
          51 1 -30 87 -122 hhcurveto
          -67 -53 -25 -41 -38 hvcurveto
          43 -27 -43 23 -59 hhcurveto
          -135 -73 -96 -174 -18 hvcurveto
          -173 -18 53 -94 135 hhcurveto
          59 48 22 42 35 hvcurveto
          -46 35 56 -18 64 hhcurveto
          40 74 15 36 27 hvcurveto
          11 16 4 20 19 vvcurveto
          17 -5 16 -12 vhcurveto
          -16 -36 -47 -71 hhcurveto
          -59 -38 28 102 1 hvcurveto
          -4 18 23 -2 29 hhcurveto
          -278 -124 rmoveto
          -35 callgsubr
          125 13 30 52 58 hhcurveto
          47 23 -33 -75 hvcurveto
          -9 -40 -5 -43 -45 vvcurveto
          -8 vlineto
          -76 -17 -29 -33 -48 hhcurveto
          326 353 rmoveto
          33 19 -23 -36 -68 -59 -23 -62 hvcurveto
          -43 hlineto
          82 12 31 68 69 hhcurveto
          endchar
        </CharString>
        <CharString name="ogonek">
          -254 -183 66 hstem
          43 64 vstem
          137 -183 rmoveto
          22 22 5 11 18 hvcurveto
          10 6 5 10 13 vvcurveto
          19 -9 7 -16 vhcurveto
          -2 callsubr
          20 6 30 16 28 hvcurveto
          -46 16 rlineto
          -31 -40 -9 -47 -25 vvcurveto
          -26 9 -65 85 vhcurveto
          endchar
        </CharString>
        <CharString name="ograve">
          8 callsubr
          51 152 hstem
          -64 callgsubr
          vstem
          290 581 -95 callgsubr
          -79 -588 -85 callgsubr
        </CharString>
        <CharString name="ohorn">
          8 callsubr
          -74 38 -8 callsubr
          hintmask 00000000
          hintmask 10110100
          499 547 -56 callsubr
          hintmask 11011000
          1 callsubr
          hintmask 10111000
          72 callsubr
          hintmask 10110100
          96 callgsubr
          hintmask 11011000
          -279 -462 -89 callsubr
          endchar
        </CharString>
        <CharString name="ohungarumlaut">
          8 callsubr
          51 152 hstem
          -64 callgsubr
          vstem
          185 581 -73 callgsubr
          -118 -588 -85 callgsubr
        </CharString>
        <CharString name="omacron">
          8 callsubr
          75 81 hstem
          -64 callgsubr
          vstem
          177 605 -84 callsubr
          34 -612 -85 callgsubr
        </CharString>
        <CharString name="one">
          -51 0 92 611 -20 hstem
          23.48 385.04 vstem
          45 hmoveto
          333 hlineto
          17 8 12 27 4 hvcurveto
          1 14 35 callgsubr
          -101 hlineto
          62 589 rlineto
          12 1 -18 10 -16 hhcurveto
          -215 -43 -14 -3 -8 -8 -1 -12 rlinecurve
          -23 -3 1 -43 19 hhcurveto
          133 20 -53 -499 rlineto
          -121 87 callsubr
          -3 6 -12 18 hhcurveto
          endchar
        </CharString>
        <CharString name="oneeighth">
          118 -4 54 313 54 285 -20 21 -20 hstemhm
          348 67 -36 66 67 68 -53 65 hintmask 11011001
          -50 callsubr
          -7 -296 90 callsubr
          7 hvcurveto
          hintmask 11101001
          292 661 rlineto
          1 136 callgsubr
          -4 3 -12 vhcurveto
          -13 38 callsubr
          hintmask 11011001
          147 callgsubr
          314 -3 rmoveto
          hintmask 11011010
          75 47 51 68 7 hvcurveto
          6 61 -25 27 -31 20 rrcurveto
          hintmask 11010101
          30 15 27 27 5 51 rrcurveto
          65 7 -42 36 -59 hhcurveto
          -64 -48 -39 -67 -7 hvcurveto
          -5 -47 18 -25 24 -19 rrcurveto
          hintmask 11011001
          -32 -16 -30 -31 -6 -58 rrcurveto
          -73 -8 39 -46 72 hhcurveto
          hintmask 11010101
          35 253 rmoveto
          -24 14 -20 16 3 35 rrcurveto
          34 4 20 15 22 hhcurveto
          23 16 -16 -34 -3 hvcurveto
          -3 -29 -16 -20 -22 -15 rrcurveto
          hintmask 11011010
          -29 -199 rmoveto
          -27 -20 21 47 5 hvcurveto
          4 37 16 21 23 16 30 -17 29 -16 -5 -45 rrcurveto
          -37 -3 -23 -27 -29 hhcurveto
          endchar
        </CharString>
        <CharString name="onehalf">
          131 0 53 303 54 292 -20 21 -20 hstemhm
          538 67 hintmask 11011000
          -50 callsubr
          -6 -296 rmoveto
          13 hlineto
          16 12 6 15 6 hvcurveto
          hintmask 11101000
          293 661 rlineto
          1 79 callgsubr
          -14 -13 -6 -15 -6 80 callgsubr
          hintmask 11011000
          -7 5 -2 11 vhcurveto
          219 1 123 callsubr
          2 -4 7 -10 hhcurveto
          -135 hlineto
          102 130 52 61 16 26 4 39 rlinecurve
          61 146 callgsubr
          -20 -28 80 callsubr
          35 20 -18 -33 -4 hvcurveto
          -2 -21 -9 -16 -25 -33 -152 -189 rcurveline
          -2 -2 0 -3 -1 -4 rrcurveto
          -14 -1 3 -23 8 hhcurveto
          endchar
        </CharString>
        <CharString name="onequarter">
          76 90 53 559 -20 21 -20 hstemhm
          433 65 hintmask 10110000
          -50 callsubr
          -12 -296 90 callsubr
          7 hvcurveto
          hintmask 11010000
          292 661 rlineto
          2 5 2 4 3 vvcurveto
          6 -5 3 -11 vhcurveto
          -14 38 callsubr
          hintmask 10110000
          147 callgsubr
          321 -1 rmoveto
          14 hlineto
          18 8 5 10 1 hvcurveto
          8 77 rlineto
          25 hlineto
          10 5 6 16 2 hvcurveto
          8 vlineto
          16 2 -3 7 -10 hhcurveto
          -25 hlineto
          26 249 rlineto
          9 1 -7 6 -18 hhcurveto
          -19 hlineto
          -12 -11 -2 -8 -5 hvcurveto
          -170 -261 -1 -1 0 -2 -1 -3 rlinecurve
          -13 -1 6 -27 8 hhcurveto
          133 hlineto
          -8 -77 rlineto
          -10 -1 7 -5 18 hhcurveto
          -96 145 rmoveto
          106 166 2 -1 -5 -24 -5 -21 -3 -30 rlinecurve
          -9 -90 rlineto
          endchar
        </CharString>
        <CharString name="ordfeminine">
          -229 438 57 -56 53 160 56 hstemhm
          59 71 62 95 -89 63 hintmask 10111000
          130 438 rmoveto
          27 21 15 26 14 hvcurveto
          hintmask 01111000
          -30 4 19 -10 22 hhcurveto
          35 15 16 24 7 -1 7 -5 hvcurveto
          -3 -3 -1 -5 hhcurveto
          -6 -3 3 11 hvcurveto
          1 22 7 57 6 52 rrcurveto
          2 19 4 30 7 vvcurveto
          8 -7 5 -17 vhcurveto
          -11 hlineto
          -21 -3 -8 -17 -6 hvcurveto
          11 -9 -16 16 -29 hhcurveto
          -52 -41 -46 -86 -10 hvcurveto
          hintmask 10111000
          -65 -8 15 -73 64 hhcurveto
          25 57 rmoveto
          -27 -3 39 43 5 hvcurveto
          53 6 14 22 28 hhcurveto
          hintmask 10110100
          15 8 -5 -4 6 hvcurveto
          -2 -7 -1 -11 -2 -14 -8 -81 rcurveline
          hintmask 10111000
          -22 -9 -15 -13 -15 hhcurveto
          endchar
        </CharString>
        <CharString name="ordmasculine">
          -218 440 66 136 66 hstem
          62 78 79 78 vstem
          166 440 rmoveto
          75 47 47 86 9 hvcurveto
          86 9 -36 49 -76 hhcurveto
          -76 -47 -49 -86 -9 hvcurveto
          -85 -9 36 -48 77 hhcurveto
          6 66 rmoveto
          -27 -11 20 48 6 hvcurveto
          48 4 15 20 28 hhcurveto
          27 9 -20 -48 -4 hvcurveto
          -48 -6 -13 -20 -28 hhcurveto
          endchar
        </CharString>
        <CharString name="oslash">
          8 callsubr
          87 callgsubr
          433 491 -45 callgsubr
        </CharString>
        <CharString name="oslashacute">
          8 callsubr
          51 152 87 callgsubr
          245 581 rmoveto
          -105 callgsubr
          188 -90 -45 callgsubr
        </CharString>
        <CharString name="otilde">
          8 callsubr
          57 122 callgsubr
          -64 callgsubr
          hintmask 00000000
          hintmask 11011100
          140 21 callsubr
          hintmask 11101100
          -95 callsubr
          hintmask 11011100
          -74 callgsubr
          81 -597 -85 callgsubr
        </CharString>
        <CharString name="p">
          -26 -7 93 350 94 hstem
          80 114 134.52 115.08 vstem
          65 -207 rmoveto
          17 4 callsubr
          23 216 rlineto
          -24 20 27 -18 44 hhcurveto
          101 75 96 170 17 hvcurveto
          167 18 -50 104 -93 hhcurveto
          -47 -44 -27 -46 -30 hvcurveto
          30 -3 1 35 -27 hhcurveto
          -17 -65 -6 -20 -3 hvcurveto
          -1 -12 8 -32 -10 -90 -57 -543 rcurveline
          -17 -2 13 -9 34 hhcurveto
          162 293 rmoveto
          -27 -20 11 20 -16 hvcurveto
          28 263 rlineto
          34 23 28 22 29 hhcurveto
          48 17 -60 -116 -12 hvcurveto
          -119 -12 -33 -55 -53 hhcurveto
          endchar
        </CharString>
        <CharString name="paragraph">
          -44 638 62 hstem
          48.31 452.69 vstem
          186 -172 rmoveto
          133 callgsubr
          78 hlineto
          -82 -785 rlineto
          -17 -3 8 -8 18 hhcurveto
          133 callgsubr
          26 hlineto
          18 7 8 18 2 hvcurveto
          1 9 rlineto
          19 2 -6 8 -18 hhcurveto
          -203 hlineto
          -110 -101 -93 -148 -15 hvcurveto
          -14 -134 68 -92 97 -14 -38 -366 rcurveline
          -17 -3 8 -8 18 hhcurveto
          endchar
        </CharString>
        <CharString name="parenleft">
          -261 -210 993 hstem
          11.77 95.29 vstem
          144 -210 rmoveto
          17 25 20 16 2 hvcurveto
          1 6 -2 7 -4 7 -72 120 -15 153 18 167 17 168 48 153 97 121 7 7 1 7 1 7 rrcurveto
          18 2 -24 16 -15 hhcurveto
          -9 -9 -4 -9 -8 hvcurveto
          -112 -115 -73 -177 -20 -192 -21 -191 36 -177 88 -115 rrcurveto
          -9 7 8 -4 9 hhcurveto
          endchar
        </CharString>
        <CharString name="parenright">
          -261 -210 993 hstem
          146.51 95.37 vstem
          6 -210 rmoveto
          8 9 4 9 8 hvcurveto
          112 115 73 177 21 191 20 192 -36 178 -88 114 rrcurveto
          9 -7 -7 4 -8 hhcurveto
          -17 -27 -18 -13 callgsubr
          -1 -6 2 -7 5 -7 72 -121 14 -153 -17 -168 -18 -168 -49 -154 -96 -120 -5 -7 -3 -6 -1 -5 rrcurveto
          -17 -1 22 -19 17 hhcurveto
          endchar
        </CharString>
        <CharString name="partialdiff">
          -99 -8 92 243 93 221 95 hstem
          11 109 171 116.17 vstem
          159 -8 rmoveto
          123 95 108 235 25 hvcurveto
          253 26 -73 148 -136 hhcurveto
          -79 -48 -34 -30 -3 hvcurveto
          -18 -2 22 -41 16 12 21 28 41 hhcurveto
          61 42 -87 -170 -11 hvcurveto
          25 -23 -33 11 -33 hhcurveto
          -91 -86 -87 -141 -14 hvcurveto
          -136 -15 66 -64 97 hhcurveto
          13 92 rmoveto
          -45 -13 46 63 6 hvcurveto
          71 8 38 63 47 hhcurveto
          29 18 -14 -28 19 hvcurveto
          -106 -11 -40 -95 -56 hhcurveto
          endchar
        </CharString>
        <CharString name="percent">
          176 50 callgsubr
          hintmask 1111011110000000
          13 callgsubr
          hintmask 1110111110000000
          42 callgsubr
          hintmask 1111011110000000
          -5 callgsubr
          7 59 callsubr
          endchar
        </CharString>
        <CharString name="period">
          -322 -2 130 hstemhm
          14 118 hintmask 00000000
          hintmask 11000000
          54 -2 -5 callsubr
          endchar
        </CharString>
        <CharString name="periodcentered">
          -296 300 119 hstemhm
          63 115 hintmask 00000000
          hintmask 11000000
          114 300 9 callgsubr
        </CharString>
        <CharString name="perthousand">
          476 50 callgsubr
          42 78.63 100.37 81 hintmask 1111011111100000
          13 callgsubr
          hintmask 0000100010000000
          42 callgsubr
          hintmask 1111011111100000
          -5 callgsubr
          301 hmoveto
          61 73 28 136 14 hvcurveto
          136 14 -67 29 -60 hhcurveto
          -61 -72 -29 -136 -14 hvcurveto
          -136 -14 67 -28 59 hhcurveto
          -294 59 callsubr
          301 hmoveto
          -41 -3 44 53 6 hvcurveto
          50 5 12 47 42 hhcurveto
          42 2 -47 -50 -5 hvcurveto
          -53 -6 -13 -44 -41 hhcurveto
          endchar
        </CharString>
        <CharString name="pi">
          -3 431 92 hstem
          288.39 109.61 vstem
          74 -2 rmoveto
          10 hlineto
          27 22 9 18 8 hvcurveto
          37 95 39 186 18 125 rrcurveto
          92 hlineto
          -33 -297 rlineto
          -79 -9 -4 -57 47 hhcurveto
          21 hlineto
          32 16 11 16 1 hvcurveto
          2 16 -3 38 8 75 29 277 rcurveline
          39 hlineto
          17 10 7 20 4 hvcurveto
          4 19 3 12 10 vvcurveto
          17 2 -8 7 -18 hhcurveto
          -324 hlineto
          -66 -59 -10 -37 -4 hvcurveto
          -16 -2 -3 -39 26 hhcurveto
          12 15 9 1 47 hvcurveto
          -18 -127 -41 -169 -39 -106 rrcurveto
          -1 -3 -1 -3 -3 vvcurveto
          -13 -2 17 -9 30 hhcurveto
          endchar
        </CharString>
        <CharString name="plus">
          -61 190 85 hstem
          34 376 vstem
          249 467 rmoveto
          -10 hlineto
          -29 -11 -7 -17 -1 hvcurveto
          -18 -168 rlineto
          -117 hlineto
          -23 -6 -27 -26 -22 4 -10 16 hvcurveto
          117 hlineto
          -17 -167 rlineto
          -17 7 -7 29 vhcurveto
          10 hlineto
          26 13 7 -34 callsubr
          18 167 rlineto
          121 hlineto
          24 6 26 26 22 -5 11 -16 hvcurveto
          -122 hlineto
          18 168 rlineto
          17 -8 7 -28 vhcurveto
          endchar
        </CharString>
        <CharString name="plusminus">
          -61 0 88 233 84 hstem
          4 423 vstem
          264 598 rmoveto
          -10 hlineto
          -26 -13 -10 -20 -2 hvcurveto
          -18 -163 rlineto
          -117 hlineto
          -26 -9 -33 -22 -19 7 -10 20 hvcurveto
          117 hlineto
          -17 -161 rlineto
          -20 7 -10 28 vhcurveto
          10 hlineto
          27 13 10 20 2 hvcurveto
          17 161 rlineto
          118 hlineto
          28 7 33 21 20 -7 10 -20 hvcurveto
          -117 hlineto
          17 163 rlineto
          20 -8 10 -28 vhcurveto
          109 -510 rmoveto
          -333 hlineto
          -28 -8 -37 -22 -20 7 -9 19 hvcurveto
          333 hlineto
          26 10 36 22 19 -7 11 -19 hvcurveto
          endchar
        </CharString>
        <CharString name="product">
          90 603 97 hstem
          54 577 vstem
          610 700 rmoveto
          -526 hlineto
          -20 -10 -22 -41 -23 4 -11 17 hvcurveto
          68 73 callsubr
          165 73 callsubr
          71 hlineto
          20 10 21 42 23 -4 11 -17 hvcurveto
          endchar
        </CharString>
        <CharString name="q">
          -29 -7 93 350 94 -5 -20 hstemhm
          40.61 115.39 hintmask 10110000
          304 -207 rmoveto
          18 hlineto
          33 16 36 callgsubr
          72 680 -30 callsubr
          -12 9 -32 hhcurveto
          -8 hlineto
          -22 -15 -3 -15 -6 hvcurveto
          hintmask 11010000
          -5 -17 -6 -16 -5 -17 rrcurveto
          46 -21 -40 27 -46 hhcurveto
          -93 -73 -103 -167 -18 hvcurveto
          -172 -18 55 -95 102 hhcurveto
          45 30 19 23 25 hvcurveto
          -23 -216 rlineto
          hintmask 10110000
          -17 -2 13 -9 33 hhcurveto
          -83 293 rmoveto
          -54 -20 52 121 12 hvcurveto
          hintmask 11010000
          119 13 30 58 49 hhcurveto
          28 23 -21 -33 17 hvcurveto
          -28 -264 rlineto
          hintmask 10110000
          -21 -19 -24 -11 -27 hhcurveto
          endchar
        </CharString>
        <CharString name="question">
          -119 -2 130 480 99 hstem
          68 121 91 123 vstem
          135 211 rmoveto
          19 hlineto
          28 10 6 17 6 hvcurveto
          13 53 38 37 45 43 49 48 52 48 8 78 rrcurveto
          99 11 -70 67 -120 hhcurveto
          -70 -93 -26 -42 -5 hvcurveto
          -17 -2 23 -47 18 13 38 33 53 hhcurveto
          59 27 -28 -52 -5 hvcurveto
          -5 -45 -41 -39 -47 -48 -51 -54 -31 -55 -6 -51 rrcurveto
          -17 -1 10 -8 27 hhcurveto
          -25 -213 rmoveto
          23 hlineto
          34 16 36 callgsubr
          8 78 -15 callsubr
          -35 hhcurveto
          -23 25 callsubr
          -8 -78 142 callgsubr
          endchar
        </CharString>
        <CharString name="questiondown">
          -119 -184 99 480 130 hstem
          -12 122 91 121 vstem
          281 525 rmoveto
          -24 25 callsubr
          -8 -78 142 callgsubr
          24 4 callsubr
          8 78 -15 callsubr
          -34 hhcurveto
          -26 -213 rmoveto
          -18 hlineto
          -28 -11 -6 -17 -5 hvcurveto
          -14 -53 -37 -37 -46 -43 -49 -48 -51 -48 -8 -78 rrcurveto
          -99 -11 69 -67 121 hhcurveto
          69 94 26 42 4 hvcurveto
          17 2 -23 47 -18 -12 -38 -33 -54 hhcurveto
          -59 -27 28 52 5 hvcurveto
          5 45 41 39 47 48 52 54 31 55 5 51 rrcurveto
          17 2 -11 8 -27 hhcurveto
          endchar
        </CharString>
        <CharString name="quotedbl">
          -201 137 callsubr
          75.5 106.5 31.5 107.5 vstem
          102 469 rmoveto
          9 hlineto
          16 20 callsubr
          138 hmoveto
          9 hlineto
          16 10 6 13 3 hvcurveto
          15 63 27 116 1 9 rrcurveto
          17 1 -14 9 -34 hhcurveto
          -10 hlineto
          -34 -15 -38 callgsubr
          -1 -9 3 -179 rlineto
          -13 2 7 -6 16 hhcurveto
          endchar
        </CharString>
        <CharString name="quotedblbase">
          -162 -120 248 hstem
          -18 327 vstem
          16 -120 rmoveto
          -9 callsubr
          152 hmoveto
          -9 callsubr
          endchar
        </CharString>
        <CharString name="quotedblleft">
          -162 499 248 hstem
          50 327 vstem
          95 499 rmoveto
          14 hlineto
          33 17 15 22 2 hvcurveto
          9 81 22 49 callsubr
          152 hmoveto
          14 hlineto
          33 17 15 22 2 hvcurveto
          8 81 23 49 callsubr
          endchar
        </CharString>
        <CharString name="quotedblright">
          -162 755 -20 hstem
          33 327 vstem
          67 507 rmoveto
          38 91 97 116 12 hvcurveto
          21 2 -15 14 -32 hhcurveto
          -13 hlineto
          -34 63 callgsubr
          152 hmoveto
          38 91 97 116 12 hvcurveto
          21 2 -15 14 -32 hhcurveto
          -14 hlineto
          -33 63 callgsubr
          endchar
        </CharString>
        <CharString name="quoteleft">
          -300 499 248 hstem
          56 175 vstem
          102 499 rmoveto
          13 hlineto
          34 16 15 22 2 hvcurveto
          9 81 22 48 23 39 5 9 4 9 1 7 rrcurveto
          14 1 -21 4 -14 hhcurveto
          -38 -91 -97 -116 -12 hvcurveto
          -21 -2 15 -14 33 hhcurveto
          endchar
        </CharString>
        <CharString name="quoteright">
          -300 755 -20 hstem
          55 175 vstem
          89 507 rmoveto
          -9 callsubr
          endchar
        </CharString>
        <CharString name="quotesinglbase">
          -300 -120 248 hstem
          -10 174.27 vstem
          24 -120 rmoveto
          37 91 97 116 12 hvcurveto
          21 3 -15 14 -33 148 callsubr
          -15 -22 -2 hvcurveto
          -8 -80 -23 -48 -22 -39 rrcurveto
          -5 -9 -5 -10 -7 vvcurveto
          -14 -2 22 -4 14 hhcurveto
          endchar
        </CharString>
        <CharString name="quotesingle">
          -346 137 callsubr
          72.5 106.5 vstem
          99 469 rmoveto
          8 hlineto
          17 20 callsubr
          endchar
        </CharString>
        <CharString name="quotesingle.loclGUA">
          -339 700 -20 hstem
          49 132.32 vstem
          83 389 rmoveto
          23 2 58 108 17 166 rrcurveto
          21 3 -14 14 -29 148 callsubr
          -15 -22 -2 hvcurveto
          -26 -255 rlineto
          -14 -2 22 -5 14 hhcurveto
          endchar
        </CharString>
        <CharString name="r">
          112 callgsubr
          hstemhm
          45 299 -261 112 hintmask 01100000
          88 callsubr
          hintmask 10100000
          -25 callsubr
          hintmask 01010000
          -28 callsubr
          hintmask 01100000
          15 callgsubr
          endchar
        </CharString>
        <CharString name="racute">
          112 callgsubr
          69 152 151 callsubr
          182 579 rmoveto
          -105 callgsubr
          -91 -581 55 callsubr
          hintmask 10110000
          -25 callsubr
          hintmask 01101000
          -28 callsubr
          hintmask 01110000
          15 callgsubr
          endchar
        </CharString>
        <CharString name="radical">
          -16 -5 -20 hstem
          21 484 vstem
          261 -153 rmoveto
          23 hlineto
          25 15 9 17 4 hvcurveto
          177 915 rlineto
          9 vlineto
          10 -10 6 -24 vhcurveto
          -22 hlineto
          -26 -15 -8 -17 -3 hvcurveto
          -125 -704 rlineto
          -5 -25 -7 -53 -11 vvcurveto
          -3 hlineto
          -1 11 -10 42 -10 38 -68 278 rcurveline
          15 -3 -8 7 -11 hhcurveto
          -15 -60 -31 -20 -38 hvcurveto
          -14 -7 -6 -5 -10 vvcurveto
          -6 2 -6 10 -26 vhcurveto
          -12 5 7 -5 9 hhcurveto
          6 11 3 16 30 hvcurveto
          114 -405 rlineto
          -18 5 16 -7 25 hhcurveto
          endchar
        </CharString>
        <CharString name="rcaron">
          112 callgsubr
          66 144 151 callsubr
          203 576 -105 callsubr
          -112 -578 55 callsubr
          hintmask 10110000
          -25 callsubr
          hintmask 01101000
          -28 callsubr
          hintmask 01110000
          15 callgsubr
          endchar
        </CharString>
        <CharString name="rcommaaccent">
          112 callgsubr
          hstemhm
          50 101 -68 112 hintmask 01100000
          88 callsubr
          hintmask 10010000
          -25 callsubr
          -28 callsubr
          hintmask 01100000
          15 callgsubr
          -26 -237 -78 callsubr
          endchar
        </CharString>
        <CharString name="registered">
          82 -6 55 271 58 119 57 100 55 hstem
          19 57 127 67 80 69 116 -4 callsubr
          -77 101 rmoveto
          15 hlineto
          19 7 5 10 hvcurveto
          155 19 vlineto
          30 8 -11 -36 10 hvcurveto
          35 -113 rlineto
          -7 2 10 -3 13 hhcurveto
          18 hlineto
          17 8 4 6 2 0 3 -2 5 hvcurveto
          -37 119 -10 32 -13 23 -12 8 rlinecurve
          3 vlineto
          30 15 23 32 48 vvcurveto
          71 -35 33 -77 vhcurveto
          -86 hlineto
          -12 -6 -6 -14 hvcurveto
          -369 vlineto
          -10 8 -5 18 vhcurveto
          40 228 rmoveto
          119 41 vlineto
          25 15 -19 -39 -33 -17 -28 -20 hvcurveto
          endchar
        </CharString>
        <CharString name="ring">
          -254 558 47 87 48 hstem
          79 48 85 48 vstem
          159 558 -70 callgsubr
          endchar
        </CharString>
        <CharString name="s">
          71 callgsubr
          70 callgsubr
          134 -9 -78 callgsubr
        </CharString>
        <CharString name="sacute">
          71 callgsubr
          51 152 70 callgsubr
          183 581 rmoveto
          -105 callgsubr
          -49 -590 -78 callgsubr
        </CharString>
        <CharString name="sacute.loclPLK">
          71 callgsubr
          51 152 70 callgsubr
          191 581 -76 callgsubr
          -57 -590 -78 callgsubr
        </CharString>
        <CharString name="scaron">
          71 callgsubr
          48 144 70 callgsubr
          204 578 -105 callsubr
          -70 -587 -78 callgsubr
        </CharString>
        <CharString name="scedilla">
          -157 -211 60 143 94 351 93 hstemhm
          45 114 -10 78 -27 112 hintmask 00000000
          hintmask 11110100
          221 437 rmoveto
          37 23 -22 7 hhcurveto
          14 26 47 19 2 hvcurveto
          32 4 -66 17 -52 hhcurveto
          -90 -71 -57 -93 -10 hvcurveto
          -8 -81 41 -37 54 -29 44 -24 29 -22 -5 -43 rrcurveto
          -38 -3 -25 -20 -39 -47 -25 34 -10 hhcurveto
          -15 -32 -45 -20 -2 hvcurveto
          hintmask 11101000
          -3 -29 55 -30 65 -4 rrcurveto
          -18 -51 -4 -13 -7 -53 callsubr
          13 49 rlineto
          hintmask 11110100
          77 14 56 59 8 81 9 83 -39 39 -57 31 -37 22 -34 20 5 44 rrcurveto
          33 4 26 16 32 hhcurveto
          endchar
        </CharString>
        <CharString name="scircumflex">
          71 callgsubr
          44 144 70 callgsubr
          113 574 -107 callgsubr
          21 -583 -78 callgsubr
        </CharString>
</ttFont>
